<svg width="296" height="266" viewBox="0 0 296 266" xmlns="http://www.w3.org/2000/svg"><title>final-adv</title><g fill="#C12762"><path d="M205.136 56.595L223 45.898V.5h-74.5v43.46l-37.388 22.707h3.532l16.818-10.072 17.871-10.697 17.864 10.697 16.819 10.072h4.294l16.826-10.072zm16.759-12.609l-17.864 10.697-16.76 10.035V23.18l34.624-20.732v41.538zm-36.826 20.732l-16.766-10.035-17.865-10.697V2.448l34.624 20.732.007 41.538zM151.484.5h69.365l-34.682 20.769L151.484.5zM295.5.5H223v45.398l17.864 10.697 16.818 10.072h4.295l16.818-10.072L295.5 45.898V.5zm-36.772 64.218L241.97 54.683l-17.864-10.697V2.448l34.623 20.732v41.538zM225.151.5h69.365l-34.683 20.769L225.151.5zm70.41 43.486l-17.863 10.697-16.76 10.035V23.18l34.624-20.732v41.538z"/><path d="M223 265.13v-45.361L188.318 199 223 178.231V87.436l-34.682-20.77h-4.295l-34.69 20.77-34.682-20.77h-2.775v43.146L74.66 132.296v44.269l-36.665 21.678v44.04L.752 265.13H223zm-1.105-43.45v41.538l-16.76-10.035-17.863-10.697v-41.538l34.623 20.732zm0-45.36l-17.864 10.696-16.76 10.036v-41.538l34.624-20.732v41.538zM187.272 68.615l34.623 20.732v41.538l-16.76-10.035-17.863-10.697V68.615zm16.759 54.146l16.818 10.072-34.682 20.77-34.683-20.77 16.819-10.072 17.864-10.697 17.864 10.697zm-53.593-33.414l34.624-20.732v41.538l-17.865 10.697-16.759 10.035V89.347zm0 45.435l34.624 20.732v41.538l-16.76-10.036-17.864-10.696v-41.538zm-36.833-66.167l34.623 20.732v41.538L131.47 120.85l-17.864-10.697V68.615zm16.76 54.146l16.817 10.072-34.682 20.77-34.682-20.77 16.818-10.072 17.864-10.697 17.864 10.697zm17.863 12.02v41.539l-17.864 10.696-16.759 10.036v-41.538l34.623-20.732zm-71.456 0l34.623 20.733v41.538l-16.76-10.036-17.863-10.696v-41.538zM4.152 265.168l16.817-10.072 17.864-10.697 17.864 10.697 16.819 10.072H4.15zm70.41-1.949l-16.76-10.035-17.864-10.697v-41.538l34.624 20.732v41.538zM40.984 199l34.683-20.769L110.357 199l-34.69 20.769L40.984 199zm70.418 1.948v41.538l-17.871 10.697-16.76 10.035V221.68l34.631-20.732zm-33.584 64.219l16.818-10.072 17.864-10.697 17.864 10.697 16.818 10.072H77.818zm70.41-1.949l-16.759-10.035-17.864-10.697v-41.538l34.623 20.732v41.538zM114.651 199l34.682-20.769L184.023 199l-34.69 20.769L114.651 199zm70.418 1.948v41.538l-17.871 10.697-16.76 10.035V221.68l34.631-20.732zm-33.585 64.219l16.819-10.072 17.864-10.697 17.864 10.697 16.818 10.072h-69.365zM295.513 86.745l-33.529-20.078h-4.294L223 87.436v90.795L257.69 199 223 219.769v45.401h72.513V86.745zm-34.575-18.13l34.624 20.732v41.538l-16.76-10.035-17.864-10.697V68.615zm16.76 54.146l16.818 10.072-34.683 20.77-34.682-20.77 16.818-10.072 17.864-10.697 17.864 10.697zm17.864 12.02v41.539l-17.865 10.696-16.759 10.036v-41.538l34.624-20.732zm-71.457-45.434l34.623-20.732v41.538l-17.864 10.697-16.759 10.035V89.347zm17.864 97.67l-17.864-10.697v-41.538l34.623 20.732v41.538l-16.759-10.036zm-17.864 34.663l34.623-20.732v41.538l-17.864 10.697-16.759 10.035V221.68zm1.046 43.487l16.818-10.072 17.864-10.697 17.864 10.697 16.819 10.072H225.15zm70.41-1.949l-16.758-10.035-17.865-10.697v-41.538l34.624 20.732v41.538zM261.985 199l33.576-19.942v40.112L261.984 199z"/></g></svg>