<svg width="377" height="246" viewBox="0 0 377 246" xmlns="http://www.w3.org/2000/svg"><title>final-pack</title><g fill="#790000"><path d="M317.88 220.369a42.26 42.26 0 0 0-16.106-5.164h-8.753a42.398 42.398 0 0 0-27.595 14.363 79.23 79.23 0 0 1 8.993 7.9 37.28 37.28 0 0 1 3.044 3.42 25.85 25.85 0 0 1 15.01-8.858l2.12-.308h5.541l2.12.308a25.884 25.884 0 0 1 15.01 8.857c.992-1.094 1.984-2.188 3.01-3.42a79.298 79.298 0 0 1 8.856-7.865 42.435 42.435 0 0 0-11.352-9.233m-158.728 0a42.294 42.294 0 0 0-16.276-5.164h-8.788a42.398 42.398 0 0 0-27.594 14.363 79.913 79.913 0 0 1 9.062 7.865c1.025 1.06 2.051 2.155 3.043 3.42a25.85 25.85 0 0 1 15.045-8.994l2.12-.308h5.539l2.12.308a25.884 25.884 0 0 1 14.84 8.857c.98-1.117 1.984-2.2 3.01-3.248a80.118 80.118 0 0 1 9.06-7.866 42.196 42.196 0 0 0-11.317-9.233M183.191 245s7.259-3.948 11.215-5.617c1.197-.513 2.428-.958 3.66-1.402a58.123 58.123 0 0 1 12.275-2.941l2.051-.274h11.079l2.052.274a58.123 58.123 0 0 1 12.275 2.94c1.231.445 2.462.89 3.659 1.403C245.38 241.094 252.57 245 252.57 245h22.362l-2.086-3.223a76.699 76.699 0 0 0-10.258-9.029c-1.162-.855-2.359-1.675-3.419-2.462a75.223 75.223 0 0 0-10.737-5.848c-1.573-.684-3.18-1.368-4.821-1.949a75.834 75.834 0 0 0-11.42-3.146l-2.223-.479h-2.086a73.815 73.815 0 0 0-20.106 0l-2.188.308-2.12.376a76.245 76.245 0 0 0-11.42 3.146c-1.642.582-3.25 1.266-4.822 1.95a74.744 74.744 0 0 0-10.737 5.847 50.625 50.625 0 0 0-3.42 2.463 77.417 77.417 0 0 0-10.257 9.028L160.726 245h22.465zm181.363-25.828l-2.12.376a75.56 75.56 0 0 0-11.421 3.146c-1.641.582-3.248 1.266-4.821 1.95a76.249 76.249 0 0 0-10.737 5.847c-1.197.787-2.394 1.608-3.42 2.463a76.46 76.46 0 0 0-10.258 9.028L319.692 245h22.499s7.027-3.86 10.874-5.617c1.196-.513 2.427-.958 3.658-1.402A58.123 58.123 0 0 1 369 235.04l2.051-.274h5.54v-16.415a76.14 76.14 0 0 0-9.848.513l-2.188.308zM317.88 5.369a42.26 42.26 0 0 0-16.106-5.13h-4.65L294.935 0h-2.051a42.364 42.364 0 0 0-27.594 14.363 78.648 78.648 0 0 1 9.13 8.105c1.06 1.06 2.051 2.154 3.043 3.249a25.85 25.85 0 0 1 15.01-8.823c.684 0 1.402-.24 2.12-.308.719-.069 1.402 0 2.086 0h3.454c.684 0 1.402.17 2.12.308a25.884 25.884 0 0 1 15.01 8.823c.992-1.095 1.984-2.19 3.01-3.25 2.75-2.84 5.71-5.47 8.856-7.865a42.401 42.401 0 0 0-11.352-9.233m58.573 30.47h-4.103a42.226 42.226 0 0 0-16.276 5.198l-1.539.923a42.094 42.094 0 0 0-9.78 8.276 78.409 78.409 0 0 1 9.062 7.9 74.3 74.3 0 0 1 2.77 2.94l.273.309a25.781 25.781 0 0 1 14.875-8.687c.683 0 1.402-.239 2.12-.307.718-.069 1.402 0 2.085 0h.684V35.976h-.273m-56.83 41.994l-1.539-.923a42.089 42.089 0 0 0-16.105-5.232h-8.89a41.918 41.918 0 0 0-16.242 5.164l-1.539.923a42.23 42.23 0 0 0-9.813 8.276 78.17 78.17 0 0 1 9.13 7.968 74.3 74.3 0 0 1 2.769 2.94l.274.309a25.781 25.781 0 0 1 14.874-8.687l2.12-.342h5.539l2.12.342a25.85 25.85 0 0 1 14.874 8.687l.24-.308c.889-1.026 1.846-1.984 2.77-2.941a77.622 77.622 0 0 1 9.129-7.9 42.264 42.264 0 0 0-9.78-8.276m-79.329 35.84l-1.538-.958a42.157 42.157 0 0 0-16.276-5.13h-8.754a42.226 42.226 0 0 0-16.276 5.13l-1.539.957a42.538 42.538 0 0 0-9.779 8.276 79.879 79.879 0 0 1 9.027 7.866c.958.957 1.88 1.949 2.77 2.94l.24.308a25.85 25.85 0 0 1 14.976-8.823c.684 0 1.402-.239 2.12-.307h5.505l2.12.307a25.85 25.85 0 0 1 14.874 8.687l.274-.308a67.14 67.14 0 0 1 2.77-2.941 80.05 80.05 0 0 1 9.06-7.866 42.06 42.06 0 0 0-9.779-8.275m134.484-6.053h-2.052a42.26 42.26 0 0 0-16.276 5.232l-1.539.957a42.23 42.23 0 0 0-9.78 8.276 80.768 80.768 0 0 1 9.062 7.866c.958.957 1.88 1.949 2.77 2.94l.273.308a25.781 25.781 0 0 1 14.875-8.686l2.12-.308h2.769v-16.414h-2.325m-54.778 41.857l-1.539-.923a42.089 42.089 0 0 0-16.105-5.095h-8.753a42.02 42.02 0 0 0-16.242 5.163l-1.539.924a42.47 42.47 0 0 0-9.814 8.276 78.956 78.956 0 0 1 11.763 10.738l.274.307a25.884 25.884 0 0 1 14.874-8.686l2.12-.308h5.539l2.12.308a25.884 25.884 0 0 1 14.874 8.686l.24-.307c.889-1.026 1.846-1.984 2.77-2.941a78.374 78.374 0 0 1 9.129-7.866 42.538 42.538 0 0 0-9.78-8.276m-158.726 0l-1.538-.923a42.089 42.089 0 0 0-16.277-5.095h-8.787a42.089 42.089 0 0 0-16.242 5.163l-1.539.924a42.367 42.367 0 0 0-9.814 8.276 80.528 80.528 0 0 1 9.062 7.865c.957.958 1.88 1.95 2.77 2.941l.273.308a25.85 25.85 0 0 1 14.874-8.686l2.12-.308h5.54l2.12.308a25.884 25.884 0 0 1 14.976 8.48l.24-.307c.889-1.026 1.846-1.984 2.77-2.941a79.16 79.16 0 0 1 9.06-7.866 42.47 42.47 0 0 0-9.779-8.275m79.568 35.941l-1.538-.786a42.02 42.02 0 0 0-16.276-5.164h-8.754a41.918 41.918 0 0 0-16.276 5.164l-1.539.923a42.504 42.504 0 0 0-9.779 8.31 78.203 78.203 0 0 1 9.027 7.865 74.3 74.3 0 0 1 2.77 2.941l.24.308a25.85 25.85 0 0 1 14.976-8.96l2.12-.307h5.505l2.12.307a25.85 25.85 0 0 1 14.874 8.687l.274-.308a56.29 56.29 0 0 1 2.77-2.941 78.956 78.956 0 0 1 9.06-7.866 42.265 42.265 0 0 0-9.779-8.31m134.484-6.053h-2.052a41.961 41.961 0 0 0-16.276 5.404c-.547.273-1.026.615-1.539.923a42.435 42.435 0 0 0-9.78 8.276 79.058 79.058 0 0 1 9.062 7.9 74.3 74.3 0 0 1 2.77 2.94l.273.308a25.781 25.781 0 0 1 14.875-8.686l2.12-.308h2.769v-16.415h-2.325M366.742 3.693l-2.188.308-2.12.376a75.56 75.56 0 0 0-11.421 3.146c-1.641.582-3.248 1.266-4.821 1.95a75.565 75.565 0 0 0-10.737 5.847c-1.197.787-2.394 1.608-3.42 2.463a75.741 75.741 0 0 0-10.258 9.028 44.122 44.122 0 0 0-2.085 2.325 74.14 74.14 0 0 0-5.608 7.353 79.732 79.732 0 0 1 8.959 2.462 76.132 76.132 0 0 1 7.078 2.804l.376.171a59.295 59.295 0 0 1 8.275-8.618c1.128-.957 2.29-1.846 3.419-2.701a58.709 58.709 0 0 1 10.874-6.327c1.196-.513 2.427-.957 3.658-1.402A58.294 58.294 0 0 1 369 19.938l2.051-.24h5.54V3.009a75.56 75.56 0 0 0-10.053.684"/><path d="M266.623 45.312a78.027 78.027 0 0 0-10.737 5.984c-1.196.787-2.393 1.608-3.419 2.497l-.273.17a75.879 75.879 0 0 0-9.848 8.824 44.122 44.122 0 0 0-2.086 2.325 77.73 77.73 0 0 0-5.608 7.353 78.809 78.809 0 0 1 8.959 2.496l2.633.958 2.701 1.06 1.744.786.376.171a84.641 84.641 0 0 1 2.872-3.42 61.552 61.552 0 0 1 5.437-5.266c1.129-.958 2.325-1.847 3.42-2.702h.205a58.127 58.127 0 0 1 9.506-5.54l1.367-.65c1.06-.478 2.154-.854 3.42-1.23h.41a58.329 58.329 0 0 1 12.275-2.941l2.052-.274h11.079l2.051.274a58.739 58.739 0 0 1 12.276 2.94h.41c1.094.41 2.189.787 3.42 1.232l1.367.65a58.982 58.982 0 0 1 9.54 5.54c1.197.854 2.394 1.743 3.42 2.701a59.26 59.26 0 0 1 5.436 5.266c.992 1.095 1.95 2.19 2.873 3.42l.376-.17 1.744-.787 2.7-1.06 2.634-.958a77.168 77.168 0 0 1 8.548-2.633 72.43 72.43 0 0 0-5.573-7.353 67.37 67.37 0 0 0-2.086-2.325 75.229 75.229 0 0 0-9.814-8.823l-.307-.205c-1.163-.855-2.36-1.676-3.42-2.497a77.172 77.172 0 0 0-10.737-5.847c-1.572-.684-3.18-1.368-4.82-1.95a74.672 74.672 0 0 0-11.387-3.146l-2.12-.376h-.342l-2.018-.274h-.41l-2.394-.273a72.284 72.284 0 0 0-7.214-.342c-2.428 0-4.856 0-7.25.342l-2.393.273h-.41l-2.018.274h-.17l-2.12.376a74.877 74.877 0 0 0-11.421 3.146c-1.642.582-3.249 1.266-4.822 1.95m-54.265 46.098h11.079l2.052.24a58.123 58.123 0 0 1 12.275 2.94h.41c1.095.41 2.189.787 3.42 1.265l1.367.65a58.948 58.948 0 0 1 9.506 5.54c1.197.855 2.36 1.744 3.42 2.702 1.92 1.64 3.735 3.4 5.436 5.266.992 1.095 1.95 2.189 2.838 3.42l.377-.171 1.743-.787 2.702-1.06 2.633-.957a80.074 80.074 0 0 1 8.958-2.462 76.499 76.499 0 0 0-5.607-7.353l-2.086-2.325a75.57 75.57 0 0 0-9.814-8.823l-.307-.24c-1.163-.855-2.36-1.675-3.42-2.462a74.573 74.573 0 0 0-10.737-5.848l-2.325-.991-2.667-.719h-.444l-3.249-1.06a74.603 74.603 0 0 0-7.727-1.915l-2.257-.547-2.086-.444h-.41l-2.394-.274a72.284 72.284 0 0 0-7.215-.342c-2.428 0-4.855 0-7.215.342l-2.393.274h-.445l-2.017.273-2.12.376a73.885 73.885 0 0 0-7.899 2.086l-3.248 1.06h-.445l-2.496.992-2.325.992a74.163 74.163 0 0 0-10.737 5.848c-1.197.786-2.393 1.607-3.42 2.462l-.341.24a75.229 75.229 0 0 0-9.814 8.788l-2.085 2.326a76.465 76.465 0 0 0-5.608 7.352 79.493 79.493 0 0 1 8.959 2.462l2.632.958 2.702 1.06 1.71.786.376.171a125.098 125.098 0 0 1 2.838-3.42 58.714 58.714 0 0 1 5.436-5.266c1.129-.957 2.291-1.846 3.42-2.701l.273-.206a59.119 59.119 0 0 1 9.472-5.505l1.368-.65a52.891 52.891 0 0 1 3.248-1.231h.41a58.123 58.123 0 0 1 12.276-2.941l2.051-.24m154.589-16.072h-.273l-2.017.273-2.12.376a73.201 73.201 0 0 0-7.728 1.915l-3.249 1.06h-.444l-2.496.958-2.325.992a75.223 75.223 0 0 0-10.737 5.848c-1.197.786-2.394 1.607-3.42 2.462l-.239.205a75.229 75.229 0 0 0-10.36 9.165c-.719.752-1.402 1.539-2.086 2.325a76.191 76.191 0 0 0-5.608 7.353c3.02.66 6 1.493 8.924 2.496l2.633.958 2.702 1.06 1.743.786.377.171c.889-1.162 1.846-2.257 2.838-3.42a59.773 59.773 0 0 1 5.436-5.266c1.129-.957 2.291-1.846 3.42-2.701h.205a58.709 58.709 0 0 1 9.506-5.54l1.368-.65c1.06-.479 2.154-.855 3.419-1.265h.41a58.123 58.123 0 0 1 12.276-2.941l2.051-.24h5.54V75.2c-2.428 0-4.856 0-7.215.342l-2.394.274m-121.079 71.61l2.701 1.06 1.744.786.376.171a67.07 67.07 0 0 1 2.872-3.42 58.987 58.987 0 0 1 5.437-5.266c1.129-.957 2.325-1.847 3.42-2.702h.205a58.811 58.811 0 0 1 9.506-5.54l1.367-.65a32.876 32.876 0 0 1 3.42-1.23h.41a58.5 58.5 0 0 1 12.275-2.941l2.052-.274h11.079l2.051.274a58.431 58.431 0 0 1 12.276 2.94h.41c1.094.41 2.189.787 3.42 1.232l1.367.65a58.367 58.367 0 0 1 9.506 5.54c1.197.854 2.394 1.744 3.42 2.701a57.653 57.653 0 0 1 5.436 5.266c.992 1.095 1.95 2.19 2.872 3.42l.377-.17 1.743-.787 2.702-1.06 2.633-.958a77.236 77.236 0 0 1 8.753-2.462 72.19 72.19 0 0 0-5.573-7.216 68.505 68.505 0 0 0-2.086-2.36 75.64 75.64 0 0 0-9.814-8.822l-.307-.206c-1.163-.855-2.36-1.675-3.42-2.462a74.573 74.573 0 0 0-10.737-5.848l-2.325-.991-2.496-.958h-.444l-3.42-1.06a73.372 73.372 0 0 0-7.727-1.915l-2.12-.376-2.018-.274h-.41l-2.394-.273a72.283 72.283 0 0 0-7.215-.342c-2.427 0-4.855 0-7.214.342l-2.394.273h-.41l-2.018.274h-.17l-2.12.376a74.74 74.74 0 0 0-7.728 1.915l-3.249 1.06h-.444l-2.496.958-2.326.991a75.223 75.223 0 0 0-10.736 5.848c-1.231.787-2.394 1.607-3.42 2.462l-.24.206a75.64 75.64 0 0 0-9.847 8.822 68.505 68.505 0 0 0-2.086 2.36 76.396 76.396 0 0 0-5.607 7.353 80.313 80.313 0 0 1 8.958 2.462l2.633.957m-53.068-13.234a74.716 74.716 0 0 0-9.814-8.789l-.307-.24c-1.163-.854-2.326-1.675-3.42-2.461a74.368 74.368 0 0 0-10.737-5.848l-2.325-.992-2.496-.992h-.444l-3.249-1.06a75.218 75.218 0 0 0-7.728-1.915l-2.12-.376h-.17l-2.018-.274h-.444l-2.394-.273a72.283 72.283 0 0 0-7.215-.342c-2.428 0-4.855 0-7.249.342l-2.393.273h-.445l-2.017.274h-.171l-2.12.376a77.407 77.407 0 0 0-7.728 1.915l-3.248 1.06h-.445l-2.496.992-2.325.992a74.505 74.505 0 0 0-10.737 5.848c-1.197.786-2.394 1.607-3.42 2.462l-.546.205a75.913 75.913 0 0 0-9.814 8.823 68.504 68.504 0 0 0-2.086 2.36 73.08 73.08 0 0 0-5.608 7.352 77.305 77.305 0 0 1 8.96 2.462l2.632.958 2.701 1.06 1.744.786.376.171a125.1 125.1 0 0 1 2.838-3.42 58.132 58.132 0 0 1 5.437-5.266c1.129-.957 2.325-1.846 3.42-2.701a58.47 58.47 0 0 1 9.916-5.677l1.367-.65c1.06-.479 2.155-.855 3.42-1.265h.41a58.705 58.705 0 0 1 11.9-3.044l2.051-.24h11.079l2.051.24a58.773 58.773 0 0 1 12.276 2.941h.41c1.094.41 2.189.787 3.42 1.265l1.367.65a58.811 58.811 0 0 1 9.472 5.506l.273.205a45.74 45.74 0 0 1 3.42 2.702 58.132 58.132 0 0 1 5.437 5.266c.991 1.095 1.949 2.189 2.872 3.42l.376-.171 1.744-.787 2.701-1.06 2.633-.957a76.21 76.21 0 0 1 8.925-2.462 79.2 79.2 0 0 0-5.78-7.182l-2.085-2.325m-.034 70.863a74.716 74.716 0 0 0-9.814-8.789l-.307-.24c-1.163-.854-2.326-1.675-3.42-2.461a74.368 74.368 0 0 0-10.737-5.848l-2.325-.992-2.496-.992h-.444l-3.249-1.06a75.218 75.218 0 0 0-7.728-1.915l-2.12-.376h-.17l-2.018-.274h-.444l-2.394-.273a72.283 72.283 0 0 0-7.215-.342c-2.428 0-4.855 0-7.249.342l-2.393.273h-.445l-2.017.274h-.171l-2.12.376a77.407 77.407 0 0 0-7.728 1.915l-3.248 1.06h-.445l-2.496.992-2.325.992a74.505 74.505 0 0 0-10.737 5.848c-1.197.786-2.394 1.607-3.42 2.462l-.546.205a75.913 75.913 0 0 0-9.814 8.823 68.504 68.504 0 0 0-2.086 2.36 73.08 73.08 0 0 0-5.608 7.352 77.305 77.305 0 0 1 8.96 2.462l2.632.958 2.701 1.06 1.744.786.376.171a125.1 125.1 0 0 1 2.838-3.42 58.132 58.132 0 0 1 5.437-5.266c1.129-.957 2.325-1.846 3.42-2.701a58.47 58.47 0 0 1 9.916-5.677l1.367-.65c1.06-.479 2.155-.855 3.42-1.265h.41a58.705 58.705 0 0 1 11.9-3.044l2.051-.24h11.079l2.051.24a58.773 58.773 0 0 1 12.276 2.941h.41c1.094.41 2.189.787 3.42 1.265l1.367.65a58.811 58.811 0 0 1 9.472 5.506l.273.205a45.74 45.74 0 0 1 3.42 2.702 58.132 58.132 0 0 1 5.437 5.266c.991 1.095 1.949 2.189 2.872 3.42l.376-.171 1.744-.787 2.701-1.06 2.633-.957a76.21 76.21 0 0 1 8.925-2.462 79.2 79.2 0 0 0-5.78-7.182l-2.085-2.325m-80.034 35.863a74.716 74.716 0 0 0-9.814-8.789l-.307-.24c-1.163-.854-2.326-1.675-3.42-2.461a74.368 74.368 0 0 0-10.737-5.848l-2.325-.992-2.496-.992h-.444l-3.249-1.06a75.218 75.218 0 0 0-7.728-1.915l-2.12-.376-2.188-.274h-.444l-2.394-.273a72.283 72.283 0 0 0-7.215-.342c-2.428 0-4.855 0-7.249.342l-2.393.273h-.445l-2.017.274-2.291.376a77.407 77.407 0 0 0-7.728 1.915l-3.248 1.06h-.445l-2.496.992-2.325.992a74.505 74.505 0 0 0-10.737 5.848c-1.197.786-2.394 1.607-3.42 2.462l-.546.205a75.913 75.913 0 0 0-9.814 8.823 68.504 68.504 0 0 0-2.086 2.36C.971 244.06.336 245 .336 245s22.363.855 23.458 0v.09a58.47 58.47 0 0 1 9.916-5.677l1.367-.65c1.06-.479 2.155-.855 3.42-1.265h.41a58.705 58.705 0 0 1 11.9-3.044l2.051-.24h11.079l2.051.24a58.773 58.773 0 0 1 12.276 2.941h.41c1.094.41 2.189.787 3.42 1.265l1.367.65a58.811 58.811 0 0 1 9.472 5.506l.273.184h23.59s-.835-.739-1.261-1.21l-2.086-2.325m238.966-36.137a74.716 74.716 0 0 0-9.814-8.789l-.307-.24c-1.163-.854-2.326-1.675-3.42-2.461a74.368 74.368 0 0 0-10.737-5.848l-2.325-.992-2.496-.992h-.444l-3.249-1.06a75.218 75.218 0 0 0-7.728-1.915l-2.12-.376h-.17l-2.018-.274h-.444l-2.394-.273a72.283 72.283 0 0 0-7.215-.342c-2.428 0-4.855 0-7.249.342l-2.393.273h-.445l-2.017.274h-.171l-2.12.376a77.407 77.407 0 0 0-7.728 1.915l-3.248 1.06h-.445l-2.496.992-2.325.992a74.505 74.505 0 0 0-10.737 5.848c-1.197.786-2.394 1.607-3.42 2.462l-.546.205a75.913 75.913 0 0 0-9.814 8.823 68.504 68.504 0 0 0-2.086 2.36 73.08 73.08 0 0 0-5.608 7.352 77.305 77.305 0 0 1 8.96 2.462l2.632.958 2.701 1.06 1.744.786.376.171a125.1 125.1 0 0 1 2.838-3.42 58.132 58.132 0 0 1 5.437-5.266c1.129-.957 2.325-1.846 3.42-2.701a58.47 58.47 0 0 1 9.916-5.677l1.367-.65c1.06-.479 2.155-.855 3.42-1.265h.41a58.705 58.705 0 0 1 11.9-3.044l2.051-.24h11.079l2.051.24a58.773 58.773 0 0 1 12.276 2.941h.41c1.094.41 2.189.787 3.42 1.265l1.367.65a58.811 58.811 0 0 1 9.472 5.506l.273.205a45.74 45.74 0 0 1 3.42 2.702 58.132 58.132 0 0 1 5.437 5.266c.991 1.095 1.949 2.189 2.872 3.42l.376-.171 1.744-.787 2.701-1.06 2.633-.957a76.21 76.21 0 0 1 8.925-2.462 79.2 79.2 0 0 0-5.78-7.182l-2.085-2.325m-114.48-39.094c1.094.41 2.188.787 3.42 1.231l1.367.65a59.119 59.119 0 0 1 9.506 5.54c1.197.855 2.393 1.744 3.42 2.701a60.742 60.742 0 0 1 5.436 5.267c.992 1.094 1.95 2.189 2.838 3.42l.376-.171 1.744-.787 2.701-1.06 2.633-.958a78.638 78.638 0 0 1 8.959-2.496 74.515 74.515 0 0 0-5.608-7.352l-2.086-2.326a75.229 75.229 0 0 0-9.813-8.823l-.308-.205c-1.162-.855-2.36-1.676-3.42-2.462a75.565 75.565 0 0 0-10.736-5.848l-2.325-.992-2.428-.82h-.444l-3.249-1.095a76.757 76.757 0 0 0-7.727-1.915l-2.257-.513-2.12-.308h-.445l-2.393-.273c-2.394-.205-4.787-.342-7.25-.342-2.461 0-4.855 0-7.214.342l-2.394.273h-.444l-2.018.274h-.17l-2.12.376a75.697 75.697 0 0 0-7.728 1.915l-3.249 1.095h-.444l-2.496.957-2.326.992a74.71 74.71 0 0 0-10.736 5.848c-1.197.786-2.394 1.607-3.42 2.428l-.342.239a75.844 75.844 0 0 0-9.779 8.789l-2.086 2.325a76.225 76.225 0 0 0-5.608 7.353 79.869 79.869 0 0 1 8.96 2.496l2.632.958 2.701 1.06 1.744.786.376.171c.89-1.162 1.847-2.257 2.838-3.42a61.278 61.278 0 0 1 5.437-5.266c1.129-.957 2.291-1.847 3.42-2.702l.273-.205a59.255 59.255 0 0 1 9.472-5.266l1.367-.65c1.06-.479 2.155-.855 3.42-1.231h.41a58.123 58.123 0 0 1 12.276-2.941l2.051-.274h5.54c1.23 0 2.222 0 3.419.171h2.12l2.052.274a57.918 57.918 0 0 1 12.275 2.941h.41m128.636-19.492h-.273l-2.017.273-2.12.376a75.834 75.834 0 0 0-7.728 1.915l-3.249 1.095h-.444l-2.496.957-2.325.992a74.915 74.915 0 0 0-10.737 5.848c-1.197.786-2.394 1.607-3.42 2.462l-.239.17a75.81 75.81 0 0 0-9.848 8.824 66.686 66.686 0 0 0-2.085 2.325 74.447 74.447 0 0 0-5.608 7.353 79.8 79.8 0 0 1 8.924 2.496l2.633.958 2.702 1.06 1.743.786.377.171c.889-1.162 1.846-2.257 2.838-3.42a60.286 60.286 0 0 1 5.436-5.266c1.129-.957 2.291-1.847 3.42-2.702h.205a58.709 58.709 0 0 1 9.506-5.54l.855-.615c1.06-.479 2.154-.855 3.419-1.265h.41a58.123 58.123 0 0 1 12.276-2.941l2.051-.24h5.54v-16.415c-2.428 0-4.856 0-7.215.342l-2.394.274"/></g></svg>