<svg width="339" height="434" viewBox="0 0 339 434" xmlns="http://www.w3.org/2000/svg" xmlns:xlink="http://www.w3.org/1999/xlink"><title>final-book</title><defs><path id="a" d="M0 0h390v530H0z"/></defs><g transform="translate(-51 -96)" fill="none" fill-rule="evenodd"><mask id="b" fill="#fff"><use xlink:href="#a"/></mask><g fill="#00769A" mask="url(#b)"><path d="M328.085 317.532l24.5 42.436-3.464 2-24.5-42.436zm-7.795 4.5l24.5 42.436-3.463 2-24.5-42.436zm-7.794 4.5l24.5 42.436-3.464 2-24.5-42.436zm-7.794 4.5l24.5 42.436-3.464 2-24.5-42.436zm-7.794 4.5l24.5 42.436-3.464 2-24.5-42.436zm-7.794 4.5l24.5 42.436-3.464 2-24.5-42.436zm90.471 66.701l-42.435 24.5-2-3.464 42.435-24.5zm-4.5-7.794l-42.435 24.5-2-3.464 42.435-24.5zm-4.5-7.794l-42.435 24.5-2-3.465 42.435-24.5zm-4.5-7.795l-42.435 24.5-2-3.464 42.435-24.5zm-4.5-7.794l-42.435 24.5-2-3.464 42.435-24.5zm-4.5-7.794l-42.435 24.5-2-3.464 42.435-24.5zm-31.5-54.56l-42.435 24.5-2-3.464 42.435-24.5zm-4.5-7.794l-42.435 24.5-2-3.464 42.435-24.5zm-4.5-7.794l-42.435 24.5-2-3.464 42.435-24.5zm-4.5-7.794l-42.435 24.5-2-3.465 42.435-24.5zm-4.5-7.795l-42.435 24.5-2-3.464 42.435-24.5zm-4.5-7.794l-42.435 24.5-2-3.464 42.435-24.5zm-48.765 23.536l24.5 42.435-3.465 2-24.5-42.435zm-7.795 4.5l24.5 42.435-3.464 2-24.5-42.435zm-7.794 4.5l24.5 42.435-3.464 2-24.5-42.435zm-7.794 4.5l24.5 42.435-3.464 2-24.5-42.435zm-7.794 4.5l24.5 42.435-3.464 2-24.5-42.435zm-7.795 4.5l24.5 42.435-3.464 2-24.5-42.435zm92.972 71.031l24.5 42.435-3.465 2-24.5-42.435zm-7.795 4.5l24.5 42.435-3.464 2-24.5-42.435zm-7.794 4.5l24.5 42.435-3.464 2-24.5-42.435zm-7.794 4.5l24.5 42.435-3.464 2-24.5-42.435zm-7.794 4.5l24.5 42.435-3.464 2-24.5-42.435zm-7.795 4.5l24.5 42.435-3.464 2-24.5-42.435zm36.472-26.83l-42.436 24.5-2-3.464 42.436-24.5zm-4.5-7.795l-42.436 24.5-2-3.464 42.436-24.5zm-4.5-7.793l-42.436 24.5-2-3.465 42.436-24.5zm-4.5-7.795l-42.436 24.5-2-3.464 42.436-24.5zm-4.5-7.795l-42.436 24.5-2-3.463 42.436-24.5zm-4.5-7.794l-42.436 24.5-2-3.464 42.436-24.5zm107.119-66.464l24.5 42.436-3.464 2-24.5-42.436zm-7.794 4.5l24.5 42.436-3.465 2-24.5-42.436zm36.471-26.83l-42.436 24.5-2-3.464 42.436-24.5zm-4.5-7.794l-42.436 24.5-2-3.464 42.436-24.5zm-4.5-7.794l-42.436 24.5-2-3.464 42.436-24.5zm-4.5-7.794l-42.436 24.5-2-3.465 42.436-24.5zm-4.5-7.795l-42.436 24.5-2-3.464 42.436-24.5zm-4.5-7.794l-42.436 24.5-2-3.464 42.436-24.5zm-48.766 23.536l24.5 42.435-3.464 2-24.5-42.435zm-7.794 4.5l24.5 42.435-3.464 2-24.5-42.435zm-7.794 4.5l24.5 42.435-3.464 2-24.5-42.435zm-7.794 4.5l24.5 42.435-3.464 2-24.5-42.435zm-7.795 4.5l24.5 42.435-3.464 2-24.5-42.435zm-7.793 4.5l24.5 42.435-3.465 2-24.5-42.435zm77.382 80.031l24.5 42.435-3.464 2-24.5-42.435zm-7.794 4.5l24.5 42.435-3.464 2-24.5-42.435zm-7.795 4.5l24.5 42.435-3.464 2-24.5-42.435zm-7.793 4.5l24.5 42.435-3.465 2-24.5-42.435zm36.47-26.83l-42.435 24.5-2-3.464 42.435-24.5zm-4.5-7.795l-42.435 24.5-2-3.464 42.435-24.5zm-4.5-7.793l-42.435 24.5-2-3.465 42.435-24.5zm-4.5-7.795l-42.435 24.5-2-3.464 42.435-24.5zm-4.5-7.795l-42.435 24.5-2-3.463 42.435-24.5zm-4.5-7.794l-42.435 24.5-2-3.464 42.435-24.5zm-218.561 53.441l-42.435 24.5-2-3.464 42.435-24.5zm-4.5-7.794l-42.435 24.5-2-3.464 42.435-24.5zm-4.5-7.795l-42.435 24.5-2-3.464 42.435-24.5zm-4.5-7.794l-42.435 24.5-2-3.464 42.435-24.5zm-4.5-7.794l-42.435 24.5-2-3.464 42.435-24.5zm-4.5-7.794l-42.435 24.5-2-3.464 42.435-24.5zm64.531-104.23l24.5 42.436-3.465 2-24.5-42.436zm-7.795 4.5l24.5 42.436-3.464 2-24.5-42.436zm-7.794 4.5l24.5 42.436-3.464 2-24.5-42.436zm-7.794 4.5l24.5 42.436-3.464 2-24.5-42.436zm-7.794 4.5l24.5 42.436-3.464 2-24.5-42.436zm-7.795 4.5l24.5 42.436-3.464 2-24.5-42.436zm90.472 66.701l-42.436 24.5-2-3.464 42.436-24.5zm-4.5-7.794l-42.436 24.5-2-3.464 42.436-24.5zm-4.5-7.795l-42.436 24.5-2-3.464 42.436-24.5zm-4.5-7.794l-42.436 24.5-2-3.464 42.436-24.5zm-4.5-7.794l-42.436 24.5-2-3.464 42.436-24.5zm-4.5-7.794l-42.436 24.5-2-3.464 42.436-24.5zm32.469 272.238l-42.435 24.5-2-3.464 42.435-24.5zm-4.5-7.794l-42.435 24.5-2-3.464 42.435-24.5zm-4.5-7.794l-42.435 24.5-2-3.464 42.435-24.5zm-4.5-7.795l-42.435 24.5-2-3.464 42.435-24.5zm-4.5-7.794l-42.435 24.5-2-3.464 42.435-24.5zm-48.766 23.536l24.5 42.435-3.464 2-24.5-42.435zm-7.793 4.5l24.5 42.435-3.465 2-24.5-42.435zm-7.795 4.5l24.5 42.435-3.464 2-24.5-42.435zm182.885-43.235l24.5 42.436-3.465 2-24.5-42.436zm-7.795 4.5l24.5 42.436-3.464 2-24.5-42.436zm-7.794 4.5l24.5 42.436-3.464 2-24.5-42.436zm-7.794 4.5l24.5 42.436-3.464 2-24.5-42.436zm-7.794 4.5l24.5 42.436-3.464 2-24.5-42.436zm-7.795 4.5l24.5 42.436-3.464 2-24.5-42.436zm36.472-26.83l-42.436 24.5-2-3.464 42.436-24.5zm-4.5-7.794l-42.436 24.5-2-3.464 42.436-24.5zm-4.5-7.794l-42.436 24.5-2-3.464 42.436-24.5zm-4.5-7.794l-42.436 24.5-2-3.464 42.436-24.5zm-4.5-7.795l-42.436 24.5-2-3.464 42.436-24.5zm-4.5-7.794l-42.436 24.5-2-3.464 42.436-24.5zm-48.766 23.536l24.5 42.435-3.464 2-24.5-42.435zm-7.794 4.5l24.5 42.435-3.464 2-24.5-42.435zm-7.794 4.5l24.5 42.435-3.464 2-24.5-42.435zm-7.794 4.5l24.5 42.435-3.465 2-24.5-42.435zm-7.795 4.5l24.5 42.435-3.464 2-24.5-42.435zm-7.794 4.5l24.5 42.435-3.464 2-24.5-42.435zm76.971 43.318l-42.435 24.5-2-3.464 42.435-24.5zm-4.5-7.794l-42.435 24.5-2-3.464 42.435-24.5zm-4.5-7.794l-42.435 24.5-2-3.465 42.435-24.5zM293.85 150.236l24.5 42.436-3.464 2-24.5-42.436zm-7.794 4.5l24.5 42.436-3.464 2-24.5-42.436zm-7.794 4.5l24.5 42.436-3.464 2-24.5-42.436zm-7.794 4.5l24.5 42.436-3.464 2-24.5-42.436zm-7.795 4.5l24.5 42.436-3.464 2-24.5-42.436zm-7.793 4.5l24.5 42.436-3.465 2-24.5-42.436zm90.47 66.701l-42.435 24.5-2-3.464 42.435-24.5zm-4.5-7.794l-42.435 24.5-2-3.464 42.435-24.5zm-4.5-7.795l-42.435 24.5-2-3.464 42.435-24.5zm-4.5-7.794l-42.435 24.5-2-3.464 42.435-24.5zm-4.5-7.794l-42.435 24.5-2-3.464 42.435-24.5zm-4.5-7.794l-42.435 24.5-2-3.464 42.435-24.5zM220.085 130.47l24.5 42.436-3.464 2-24.5-42.435zm-7.795 4.5l24.5 42.436-3.463 2-24.5-42.435zm-7.794 4.5l24.5 42.436-3.464 2-24.5-42.435zm-7.794 4.5l24.5 42.436-3.464 2-24.5-42.435zm-7.794 4.5l24.5 42.436-3.464 2-24.5-42.435zm-7.794 4.5l24.5 42.436-3.464 2-24.5-42.435zm92.971 71.032l24.5 42.435-3.464 2-24.5-42.435zm-7.795 4.5l24.5 42.435-3.463 2-24.5-42.435zm-7.794 4.5l24.5 42.435-3.464 2-24.5-42.435zm-7.794 4.5l24.5 42.435-3.464 2-24.5-42.435zm-7.794 4.5l24.5 42.435-3.464 2-24.5-42.435zm-7.794 4.5l24.5 42.435-3.464 2-24.5-42.435zM387.381 96.236l24.5 42.436-3.464 2-24.5-42.436zm-7.794 4.5l24.5 42.436-3.464 2-24.5-42.436zm-7.794 4.5l24.5 42.436-3.465 2-24.5-42.436zm-7.795 4.5l24.5 42.436-3.464 2-24.5-42.436zm-7.794 4.5l24.5 42.436-3.464 2-24.5-42.436zm-7.794 4.5l24.5 42.436-3.464 2-24.5-42.436zm85.971 58.907l-42.435 24.5-2-3.464 42.435-24.5zm-4.5-7.795l-42.435 24.5-2-3.464 42.435-24.5zm-4.5-7.794l-42.435 24.5-2-3.464 42.435-24.5zm-4.5-7.794l-42.435 24.5-2-3.464 42.435-24.5zm-4.5-7.794l-42.435 24.5-2-3.464 42.435-24.5zm-48.765 23.536l24.5 42.435-3.464 2-24.5-42.435zm-7.795 4.5l24.5 42.435-3.464 2-24.5-42.435zm-7.794 4.5l24.5 42.435-3.464 2-24.5-42.435zm-7.794 4.5l24.5 42.435-3.464 2-24.5-42.435zm-7.794 4.5l24.5 42.435-3.464 2-24.5-42.435zm-7.794 4.5l24.5 42.435-3.465 2-24.5-42.435zM430.85 387.527l-42.435 24.5-2-3.464 42.435-24.5zm-48.765 23.536l24.5 42.435-3.464 2-24.5-42.435zm-7.795 4.5l24.5 42.435-3.463 2-24.5-42.435zm-7.794 4.5l24.5 42.435-3.464 2-24.5-42.435zm-7.794 4.5l24.5 42.435-3.464 2-24.5-42.435zm-7.794 4.5l24.5 42.435-3.464 2-24.5-42.435zm-7.794 4.5l24.5 42.435-3.464 2-24.5-42.435zm90.471 66.701l-42.435 24.5-2-3.464 42.435-24.5zm-4.5-7.794l-42.435 24.5-2-3.465 42.435-24.5zm-4.5-7.795l-42.435 24.5-2-3.464 42.435-24.5zm-4.5-7.794l-42.435 24.5-2-3.464 42.435-24.5zm-4.5-7.794l-42.435 24.5-2-3.464 42.435-24.5zm-4.5-7.794l-42.435 24.5-2-3.465 42.435-24.5zm-218.562 53.44l-42.435 24.5-2-3.464 42.435-24.5zm-4.5-7.794l-42.435 24.5-2-3.464 42.435-24.5zm-4.5-7.794l-42.435 24.5-2-3.465 42.435-24.5zm-4.5-7.795l-42.435 24.5-2-3.464 42.435-24.5zm-4.5-7.794l-42.435 24.5-2-3.464 42.435-24.5zm-4.5-7.794l-42.435 24.5-2-3.464 42.435-24.5zm-51.265 19.206l-42.435 24.5-2-3.464 42.435-24.5zm-4.5-7.795l-42.435 24.5-2-3.464 42.435-24.5zm-4.5-7.793l-42.435 24.5-2-3.465 42.435-24.5zm-4.5-7.795l-42.435 24.5-2-3.464 42.435-24.5zm-4.5-7.795l-42.435 24.5-2-3.463 42.435-24.5zm-4.5-7.794l-42.435 24.5-2-3.464 42.435-24.5zm138.296-84.464l24.5 42.436-3.464 2-24.5-42.436zm-7.794 4.5l24.5 42.436-3.464 2-24.5-42.436zm-7.794 4.5l24.5 42.436-3.464 2-24.5-42.436zm-7.794 4.5l24.5 42.436-3.465 2-24.5-42.436zm-7.795 4.5l24.5 42.436-3.464 2-24.5-42.436zm-7.794 4.5l24.5 42.436-3.464 2-24.5-42.436zm90.471 66.701l-42.435 24.5-2-3.464 42.435-24.5zm-4.5-7.794l-42.435 24.5-2-3.464 42.435-24.5zm-4.5-7.794l-42.435 24.5-2-3.465 42.435-24.5zm-4.5-7.795l-42.435 24.5-2-3.464 42.435-24.5zm-4.5-7.794l-42.435 24.5-2-3.464 42.435-24.5zm-4.5-7.794l-42.435 24.5-2-3.464 42.435-24.5zm-31.5-54.56l-42.435 24.5-2-3.464 42.435-24.5zm-4.5-7.794l-42.435 24.5-2-3.464 42.435-24.5zm-4.5-7.794l-42.435 24.5-2-3.464 42.435-24.5zm-4.5-7.794l-42.435 24.5-2-3.465 42.435-24.5zm-4.5-7.795l-42.435 24.5-2-3.464 42.435-24.5zm-4.5-7.794l-42.435 24.5-2-3.464 42.435-24.5zm-48.765 23.536l24.5 42.435-3.464 2-24.5-42.435zm-7.794 4.5l24.5 42.435-3.465 2-24.5-42.435zm-7.795 4.5l24.5 42.435-3.464 2-24.5-42.435zm-7.794 4.5l24.5 42.435-3.464 2-24.5-42.435zm-7.794 4.5l24.5 42.435-3.464 2-24.5-42.435zm-7.794 4.5l24.5 42.435-3.464 2-24.5-42.435zm92.971 71.031l24.5 42.435-3.464 2-24.5-42.435zm-7.794 4.5l24.5 42.435-3.465 2-24.5-42.435zm-7.795 4.5l24.5 42.435-3.464 2-24.5-42.435zm-7.794 4.5l24.5 42.435-3.464 2-24.5-42.435zm-7.794 4.5l24.5 42.435-3.464 2-24.5-42.435zm-7.794 4.5l24.5 42.435-3.464 2-24.5-42.435zm36.471-26.83l-42.435 24.5-2-3.464 42.435-24.5zm-4.5-7.795l-42.435 24.5-2-3.464 42.435-24.5zm-4.5-7.793l-42.435 24.5-2-3.465 42.435-24.5zm-4.5-7.795l-42.435 24.5-2-3.464 42.435-24.5zm-4.5-7.795l-42.435 24.5-2-3.463 42.435-24.5zm-4.5-7.794l-42.435 24.5-2-3.464 42.435-24.5z"/></g></g></svg>