<svg width="302" height="322" viewBox="0 0 302 322" xmlns="http://www.w3.org/2000/svg"><title>final-label</title><g fill="#006A5F"><path d="M207.76 170.13v-51.04l44.38-25.474 44.356 25.475v51.039l-44.357 25.387-44.379-25.387zm-4.798-53.69v56.341l49.177 28.281 49.155-28.28V116.35L252.14 88.114l-49.177 28.325z"/><path d="M211.918 121.521V167.7l40.221 23.045 40.2-23.089v-46.134l-40.2-23.133-40.221 23.133zm75.645 2.762v40.61l-35.38 20.327-35.379-20.327V124.24l35.38-20.327 35.379 20.327v.044z"/><path d="M220.873 126.603v35.904l31.266 17.941 31.267-17.941v-35.904l-31.267-17.94-31.266 17.94zm57.734 33.142l-26.534 15.201-26.534-15.179v-30.402l26.534-15.18 26.534 15.202v30.358z"/><path d="M238.784 136.988v15.245l13.267 7.667 13.267-7.667v-15.245l-13.267-7.667-13.267 7.667zm21.935 2.761v9.833l-8.558 4.927-8.557-4.927v-9.943l8.535-4.86 8.558 4.904.022.066zm-6.589-55.082L302 112.462v-5.501l-43.072-25.034v-50.95L302 5.943V.442l-47.87 27.795z"/><path d="M272.04 74.393l29.96 17.5V86.39l-25.162-14.738V41.251L302 26.49v-5.479l-29.96 17.5z"/><path d="M280.996 69.267L302 81.618v-5.502l-16.206-9.61V46.398L302 36.788v-5.502l-21.004 12.351z"/><path d="M289.95 64.119L302 71.344v-5.502l-7.25-4.485v-9.81l7.25-4.485V41.56l-12.05 7.225zm-35.82 196.776L302 288.69v-5.501l-43.072-25.034v-50.95L302 182.17v-5.501l-47.87 27.773z"/><path d="M272.04 250.621L302 268.12v-5.502l-25.162-14.737V217.48L302 202.719v-5.501l-29.96 17.521z"/><path d="M280.996 245.473L302 257.846v-5.502l-16.206-9.61v-20.107L302 213.016v-5.502l-21.004 12.351z"/><path d="M289.95 240.347l12.05 7.225v-5.502l-7.25-4.485v-9.832l7.25-4.463v-5.502l-12.05 7.225zM151.706 84.69l49.266 28.214L250.15 84.69V28.237L200.972 0l-49.266 28.215v56.474zm4.887-53.757l44.38-25.431 44.378 25.43v50.995l-44.379 25.476-44.379-25.476V30.933z"/><path d="M241.194 79.541V33.363l-40.222-23.089-40.222 23.09V79.54l40.222 23.09 40.222-23.09zm-75.645-43.416l35.379-20.327 35.38 20.327v40.654l-35.38 20.328-35.38-20.328V36.125z"/><path d="M223.283 69.267v-25.63l-22.31-12.704-22.312 12.815v25.52l22.311 12.814 22.311-12.815zm-39.802-2.762V46.4l17.513-10.053 17.49 10.053v20.106l-17.512 10.053-17.513-10.053h.022z"/><path d="M214.328 64.075v-15.29l-13.267-7.667-13.268 7.667v15.29l13.268 7.667 13.267-7.667zm-21.913-12.572l8.557-4.927 8.557 4.927v9.832l-8.557 4.95-8.557-4.906v-9.876zm57.735 152.94l-49.178-28.215-49.266 28.215v56.452l49.178 28.237 49.177-28.237.088-56.452zm-4.8 53.69l-44.378 25.498-44.379-25.476v-50.95l44.38-25.476 44.378 25.476v50.928z"/><path d="M160.75 209.591v46.178l40.222 23.067 40.222-23.09v-46.155l-40.222-23.09-40.222 23.09zm75.646 43.416l-35.38 20.327-35.379-20.327v-40.676l35.38-20.327 35.379 20.327v40.676z"/><path d="M178.661 219.865v25.608l22.311 12.815 22.311-12.815v-25.608l-22.31-12.815-22.312 12.815zm39.802 22.868l-17.513 10.053-17.513-10.053v-20.106l17.513-10.053 17.513 10.053v20.106z"/><path d="M187.594 225.013v15.334l13.267 7.667 13.268-7.667v-15.334l-13.268-7.667-13.267 7.667zm21.913 12.572l-8.557 4.927-8.557-4.927v-9.832l8.557-4.927 8.557 4.927v9.832zM301.835 322v-29.13l-49.177-28.238-49.266 28.215V322h98.443zm-93.556-26.435l44.379-25.431 44.379 25.43V322h-88.758v-26.435z"/><path d="M292.88 322v-24.005l-40.222-23.089-40.222 23.09V322h80.444zm-75.645-21.243l35.379-20.327 35.38 20.327V322h-70.76v-21.243z"/><path d="M283.924 322v-18.857l-31.266-17.94-31.266 17.94V322h62.532zm-57.734-16.117l26.534-15.201 26.535 15.201V322h-53.07v-16.117z"/><path d="M266.014 322v-8.583l-13.268-7.666-13.267 7.666V322h26.535zm-21.913-5.865l8.557-4.927 8.557 4.927V322h-17.114v-5.865zm-93.777-51.503v5.502l44.378 25.475V322h4.799v-29.13z"/><path d="M150.324 274.906v5.502l35.423 20.35V322h4.798v-24.005z"/><path d="M150.324 285.18v5.502l26.468 15.201V322h4.798v-18.857z"/><path d="M150.324 295.476v5.502l17.512 10.053V322h4.799v-13.73zM102.492 322h4.798v-26.39l43.605-25.034v-5.502l-48.403 27.795z"/><path d="M111.447 322h4.799v-21.243l34.65-19.907v-5.502l-39.449 22.647z"/><path d="M120.403 322h4.798v-16.117l25.694-14.76v-5.479l-30.492 17.5z"/><path d="M134.156 322v-10.969l16.74-9.611v-5.502l-21.538 12.351V322zm-35.644 0v-29.13l-49.178-28.238L.07 292.847V322h98.443zM4.956 295.565l44.378-25.431 44.38 25.43V322H4.955v-26.435z"/><path d="M89.556 322v-24.005l-40.222-23.089-40.221 23.09V322h80.443zm-75.645-21.243l35.38-20.327 35.379 20.327V322H13.91v-21.243z"/><path d="M71.646 322v-13.73l-22.312-12.705-22.31 12.815V322h44.622zm-39.802 0v-10.969l17.513-10.053 17.49 10.053V322H31.844z"/><path d="M62.69 322v-8.583l-13.267-7.666-13.267 7.666V322H62.69zm-21.913-5.865l8.557-4.927 8.558 4.927V322H40.777v-5.865z"/></g></svg>