<svg width="191" height="175" viewBox="0 0 191 175" xmlns="http://www.w3.org/2000/svg"><title>material-foil</title><g stroke="#006A5F" stroke-width="2" fill="none" fill-rule="evenodd"><path d="M47.47 49.462a5.991 5.991 0 0 1 5.992-5.991h18.946c7.182 0 13.004 5.824 13.004 13.004v11.933c0 7.182-5.825 13.004-13.004 13.004H60.475c-7.182 0-13.004-5.825-13.004-13.004V49.462zm0 75.882a5.991 5.991 0 0 1 5.992-5.991h18.946c7.182 0 13.004 5.824 13.004 13.004v11.933c0 7.182-5.825 13.004-13.004 13.004H60.475c-7.182 0-13.004-5.824-13.004-13.004v-18.946zm83.883 0a5.991 5.991 0 0 1 5.99-5.991h18.947c7.182 0 13.004 5.824 13.004 13.004v11.933c0 7.182-5.824 13.004-13.004 13.004h-11.933c-7.182 0-13.004-5.824-13.004-13.004v-18.946zm0-75.882a5.991 5.991 0 0 1 5.99-5.991h18.947c7.182 0 13.004 5.824 13.004 13.004v11.933c0 7.182-5.824 13.004-13.004 13.004h-11.933c-7.182 0-13.004-5.825-13.004-13.004V49.462zM89.412 87.403a5.991 5.991 0 0 1 5.99-5.991h18.947c7.182 0 13.004 5.824 13.004 13.004v11.933c0 7.182-5.824 13.004-13.004 13.004h-11.933c-7.182 0-13.004-5.824-13.004-13.004V87.403zM191 119.353h-9.488a8.22 8.22 0 0 1-8.218-8.221V85.206a3.794 3.794 0 0 1 3.798-3.794H191m0-37.942h-9.488a8.22 8.22 0 0 1-8.218-8.22V9.324a3.794 3.794 0 0 1 3.798-3.795H191M89.412 11.52a5.991 5.991 0 0 1 5.99-5.99h18.947c7.182 0 13.004 5.824 13.004 13.004v11.932c0 7.182-5.824 13.005-13.004 13.005h-11.933c-7.182 0-13.004-5.825-13.004-13.005V11.52zm0 163.48v-13.908a3.8 3.8 0 0 1 3.794-3.798h25.926a8.219 8.219 0 0 1 8.22 8.217v9.486m45.942.003v-13.908a3.797 3.797 0 0 1 3.798-3.798H191M5.53 87.403a5.991 5.991 0 0 1 5.99-5.991h18.946c7.182 0 13.005 5.824 13.005 13.004v11.933c0 7.182-5.825 13.004-13.005 13.004H18.534c-7.182 0-13.005-5.824-13.005-13.004V87.403z"/><g transform="translate(1 1)"><rect x="41.941" y="37.941" width="37.941" height="37.941" rx="10"/><rect x="41.941" y="113.824" width="37.941" height="37.941" rx="10"/><rect x="125.824" y="113.824" width="37.941" height="37.941" rx="10"/><rect x="125.824" y="37.941" width="37.941" height="37.941" rx="10"/><rect x="83.882" y="75.882" width="37.941" height="37.941" rx="10"/><path d="M190 113.824h-15.916c-3.49 0-6.32-2.837-6.32-6.33V82.211c0-3.495 2.836-6.329 6.32-6.329H190m0-37.941h-15.916c-3.49 0-6.32-2.836-6.32-6.329V6.329c0-3.495 2.836-6.329 6.32-6.329H190"/><rect x="83.882" width="37.941" height="37.941" rx="10"/><path d="M83.882 174v-15.916c0-3.49 2.837-6.32 6.33-6.32h25.282c3.496 0 6.33 2.836 6.33 6.32V174m45.941 0v-15.916c0-3.49 2.835-6.32 6.319-6.32H190"/><rect y="75.882" width="37.941" height="37.941" rx="10"/></g></g></svg>