<svg width="127" height="151" viewBox="0 0 127 151" xmlns="http://www.w3.org/2000/svg" xmlns:xlink="http://www.w3.org/1999/xlink"><title>material-cover-720</title><defs><path id="a" d="M0 0h176v220H0z"/></defs><g transform="translate(-49 -69)" fill="none" fill-rule="evenodd" opacity=".3"><mask id="b" fill="#fff"><use xlink:href="#a"/></mask><g fill="#00769A" mask="url(#b)"><path d="M175.817 170.15l13.13 22.741-1.857 1.072-13.13-22.741zm-4.177 2.412l13.13 22.741-1.856 1.071-13.13-22.74zm-4.176 2.411l13.13 22.741-1.856 1.071-13.13-22.74zm-4.177 2.412l13.13 22.74-1.856 1.072-13.13-22.741zm-4.177 2.411l13.13 22.741-1.856 1.071-13.13-22.74zm-4.176 2.411l13.13 22.741-1.856 1.071-13.13-22.74zm43.659 27.392l-22.74 13.13-1.072-1.857 22.74-13.13zm-2.411-4.177l-22.741 13.13-1.072-1.856 22.741-13.13zm-2.412-4.177l-22.74 13.13-1.072-1.856 22.74-13.13zm-2.41-4.175l-22.742 13.129-1.071-1.856 22.74-13.13zm-16.883-29.241l-22.74 13.13-1.072-1.857 22.74-13.13zm-2.411-4.177l-22.741 13.13-1.072-1.856 22.741-13.13zm-2.411-4.176l-22.741 13.13-1.072-1.856 22.741-13.13zm-2.412-4.176l-22.74 13.129-1.072-1.856 22.74-13.13zm-2.411-4.178l-22.741 13.13-1.072-1.856 22.741-13.13zm-2.412-4.176l-22.74 13.13-1.072-1.856 22.741-13.13zm-26.132 12.611l13.13 22.741-1.856 1.071-13.13-22.74zm-4.176 2.412l13.13 22.74-1.857 1.072-13.13-22.741zm-4.176 2.411l13.13 22.74-1.857 1.072-13.13-22.741zm-4.177 2.411l13.13 22.741-1.857 1.071-13.13-22.74zm-4.177 2.412l13.13 22.74-1.856 1.072-13.13-22.741zm-4.176 2.411l13.13 22.74-1.856 1.072-13.13-22.741zm49.821 38.066l13.13 22.74-1.857 1.072-13.129-22.74zm-4.177 2.411l13.13 22.741-1.856 1.072-13.13-22.741zm-4.176 2.411l13.13 22.741-1.856 1.072-13.13-22.741zm-4.177 2.412l13.13 22.74-1.856 1.072-13.13-22.74zm-4.177 2.411l13.13 22.741-1.856 1.072-13.13-22.741zm15.367-11.967l-22.74 13.13-1.072-1.856 22.741-13.13zm-2.411-4.177l-22.741 13.13-1.071-1.856 22.74-13.13zm-2.411-4.176l-22.741 13.13-1.071-1.856 22.74-13.13zm-2.412-4.177l-22.74 13.13-1.072-1.856 22.741-13.13zm-2.411-4.176l-22.741 13.13-1.071-1.857 22.74-13.13zm-2.411-4.176l-22.741 13.13-1.071-1.857 22.74-13.13zm22.046-48.621l13.13 22.741-1.856 1.072-13.13-22.741zm-4.177 2.412l13.13 22.74-1.856 1.072-13.13-22.74zm-4.176 2.411l13.13 22.74-1.856 1.072-13.13-22.74zM84.83 186.171l-22.74 13.13-1.072-1.856 22.741-13.13zm-2.41-4.177l-22.742 13.13-1.071-1.856 22.74-13.13zm-2.412-4.176l-22.74 13.13-1.072-1.856 22.74-13.13zm-2.411-4.177l-22.741 13.13-1.072-1.856 22.741-13.13zm-2.412-4.176l-22.74 13.13-1.072-1.857 22.74-13.13zm-2.411-4.176l-22.74 13.13-1.072-1.857 22.74-13.13zm34.576-55.855l13.13 22.741-1.856 1.072-13.13-22.741zm-4.177 2.412l13.13 22.74-1.856 1.072-13.13-22.74zm-4.176 2.411l13.13 22.74-1.856 1.072-13.13-22.74zm-4.177 2.411l13.13 22.741-1.856 1.072-13.13-22.741zm-4.177 2.412l13.13 22.74-1.856 1.072-13.13-22.74zm-4.176 2.41l13.13 22.742-1.856 1.071-13.13-22.74zm48.482 35.745l-22.74 13.13-1.072-1.856 22.74-13.13zm-2.411-4.177l-22.741 13.13-1.072-1.856 22.741-13.13zm-2.411-4.176l-22.741 13.13-1.072-1.856 22.741-13.13zm-2.412-4.176l-22.74 13.13-1.072-1.857 22.74-13.13zm-2.411-4.177l-22.741 13.13-1.072-1.857 22.741-13.13zm-2.411-4.176l-22.741 13.13-1.072-1.857 22.741-13.13zm34.575-55.855l13.13 22.741-1.856 1.072-13.13-22.741zm-4.177 2.412l13.13 22.74-1.856 1.072-13.13-22.74zm-4.176 2.41l13.13 22.742-1.856 1.071-13.13-22.74zm-4.176 2.412l13.13 22.741-1.857 1.072-13.13-22.741zm-4.177 2.412l13.13 22.74-1.857 1.072-13.13-22.74zm-4.176 2.411l13.13 22.74-1.857 1.072-13.13-22.74zm48.481 35.745l-22.74 13.129-1.072-1.856 22.74-13.13zm-2.411-4.177l-22.741 13.129-1.072-1.856 22.741-13.13zm-2.411-4.176l-22.741 13.13-1.072-1.857 22.741-13.13zm-2.412-4.177l-22.74 13.13-1.072-1.857 22.74-13.13zm-2.411-4.177l-22.741 13.13-1.072-1.857 22.741-13.129zm-2.412-4.176l-22.74 13.13-1.072-1.856 22.741-13.13zm-55.07-37.512l13.13 22.74-1.856 1.072-13.13-22.74zm-4.177 2.411l13.13 22.741-1.856 1.072-13.13-22.741zm-4.176 2.411l13.13 22.741-1.856 1.072-13.13-22.741zm-4.177 2.412l13.13 22.74-1.856 1.072-13.13-22.74zm-4.177 2.411l13.13 22.741-1.856 1.072-13.13-22.741zm-4.176 2.411l13.13 22.741-1.856 1.072-13.13-22.741zm49.821 38.067l13.13 22.74-1.856 1.072-13.13-22.74zm-4.176 2.412l13.129 22.74-1.856 1.072-13.13-22.741zm-4.176 2.41l13.129 22.741-1.856 1.072-13.13-22.741zm-4.177 2.412l13.13 22.74-1.857 1.072-13.13-22.74zm-4.177 2.411l13.13 22.741-1.857 1.072-13.129-22.741zm-4.176 2.411l13.13 22.741-1.857 1.072-13.129-22.741zm50.118-28.936l13.13 22.741-1.856 1.072-13.13-22.741zm-50.416 95.938l13.13 22.741-1.856 1.072-13.13-22.741zm-4.176 2.412l13.13 22.74-1.857 1.072-13.13-22.74zm-4.176 2.411l13.13 22.74-1.857 1.072-13.13-22.74zm-4.177 2.411l13.13 22.741-1.857 1.072-13.13-22.741zm-4.177 2.412l13.13 22.74-1.856 1.072-13.13-22.74zm-4.176 2.411l13.13 22.74-1.856 1.072-13.13-22.74zm19.544-14.378l-22.742 13.13-1.071-1.857 22.74-13.13zm-2.412-4.177l-22.741 13.13-1.072-1.857 22.741-13.13zm-2.411-4.176l-22.741 13.13-1.072-1.857 22.741-13.13zm-2.412-4.177l-22.74 13.13-1.072-1.856 22.74-13.13zm-2.411-4.177l-22.741 13.13-1.072-1.856 22.741-13.13zm-2.411-4.176l-22.741 13.13-1.072-1.856 22.741-13.13zM86.17 188.493l13.13 22.74-1.856 1.072-13.13-22.74zm-4.177 2.411l13.13 22.741-1.856 1.072-13.13-22.741zm-4.176 2.411l13.13 22.741-1.856 1.072-13.13-22.741zm-4.177 2.412l13.13 22.74-1.856 1.072-13.13-22.74zm-4.176 2.411l13.13 22.741-1.857 1.072-13.13-22.741zm-4.176 2.412l13.13 22.74-1.857 1.072-13.13-22.741zm38.836 19.037l-22.741 13.13-1.072-1.856 22.741-13.13zm-2.411-4.176l-22.741 13.13-1.072-1.856 22.741-13.13z"/></g></g></svg>