<svg width="200" height="199" viewBox="0 0 200 199" xmlns="http://www.w3.org/2000/svg"><title>marerial-paper-720</title><g fill="#00769A" opacity=".3"><path d="M199.77 124.362l-12.919 11.874-1.347 12.926 10.482-7.645 3.691-17.155zm-42.741-24.8l12.9-11.874 1.347-12.945-10.464 7.627zm42.741-24.819l-12.9 11.874-1.348 12.945 10.483-7.645 3.764-17.174z"/><path d="M186.87 112.507l12.9 11.855-3.765-17.174-10.483-7.626zm-15.594 11.855l11.829 5.3 16.664-5.3-16.664-5.3zm15.594-61.78l12.9 11.855-3.765-17.173-10.483-7.627zm-15.594 11.855l11.829 5.3 16.664-5.3-16.664-5.3zm-14.247 25.125l3.765 17.174 10.482 7.626-1.348-12.945zm0 0l16.683 5.3 11.81-5.3-11.81-5.318zM171.276 174l-10.464 7.644-3.783 17.174 12.9-11.874zm15.594-11.874l12.9 11.873-16.683-5.3-11.811 5.3 11.81 5.3 16.683-5.3-3.764-17.173-10.483-7.645z"/><path d="M199.77 174l-12.9 11.873-1.348 12.945 10.483-7.645 3.764-17.155v-.019zm-14.248 24.818l-11.81-5.3-16.683 5.3zm-28.493-99.256l-16.665-5.318-11.81 5.318 11.81 5.3 16.665-5.3v-.019.019l-3.765-17.192-10.482-7.627 1.347 12.945zM85.813 74.743L75.331 82.37l-3.765 17.192 12.9-11.874zm0 49.619l-10.482 7.645-3.765 17.174 12.9-11.856z"/><path d="M142.782 124.362l10.482-7.626 3.765-17.174-12.9 11.855zm-42.722-24.8l1.347 12.945 12.9 11.855-3.783-17.155z"/><path d="M114.307 124.362l-16.683-5.3-11.81 5.3 11.81 5.3z"/><path d="M100.06 149.18l10.464-7.644 3.783-17.155 3.765 17.155 10.482 7.645-1.348-12.945-12.9-11.874 16.665 5.318 11.811-5.318-11.81-5.3-16.665 5.3v.019-.019l-12.9 11.874z"/><path d="M114.307 124.362l12.9-11.855 1.347-12.945-10.482 7.626zm-42.741-24.8l16.665 5.3 11.829-5.3-11.83-5.318-16.664 5.318 3.765 17.174 10.482 7.626-1.347-12.945zm85.463 99.256l-3.765-17.174L142.782 174l1.347 12.945zm-46.505-41.992l-10.464-7.645 1.347 12.945 12.9 11.873-16.683-5.3-11.81 5.3 11.81 5.3 16.683-5.3h-.019.019z"/><path d="M114.307 174l3.765 17.173 10.482 7.645-1.348-12.945-12.9-11.874-12.899 11.874-1.347 12.945 10.464-7.645z"/><path d="M114.307 174l16.664 5.3 11.83-5.3-11.83-5.3zm12.899-11.874l1.348-12.945-10.482 7.645-3.765 17.173zM100.06 149.18l-11.83-5.3-16.664 5.3 16.665 5.319zm56.969 49.638l-16.665-5.3-11.81 5.3zM57.32 74.743l1.347 12.945 12.9 11.874v-.019.019L67.801 82.37z"/><path d="M57.32 124.362l1.347 12.963 12.9 11.856-3.765-17.174z"/><path d="M71.566 149.18l-16.664-5.3-11.83 5.3 11.83 5.319zm0-49.618l-16.664-5.318-11.83 5.318 11.83 5.3z"/><path d="M71.566 99.562l-12.9 11.855-1.347 12.945 10.483-7.626 3.764-17.174zm0 49.638l3.765 17.154L85.813 174l-1.347-12.944-12.9-11.874v.018-.018.018-.018l-12.9 11.874L57.319 174l10.483-7.645zm-42.5 25.889l3.543 16.084 10.464 7.645-1.348-12.945-12.66-11.652zm0-1.163v.147l16.443 5.226 11.81-5.3-11.81-5.3zm3.543-17.1l-3.543 16.102v.85l12.66-11.652 1.347-12.945zm-16.674 5.3l12.9 11.873-16.683-5.3L.342 174l11.81 5.3 16.683-5.3-3.765-17.173-10.482-7.645z"/><path d="M28.835 174l-12.9 11.873-1.347 12.945 10.482-7.645 3.765-17.155v-.019zM171.276 24.919l-10.464 7.645-3.783 17.174 12.9-11.874zm15.594-11.874l12.9 11.874-16.683-5.3-11.811 5.3 11.81 5.3 16.683-5.3-3.764-17.174L185.522.1z"/><path d="M199.77 24.919l-12.9 11.874-1.348 12.945 10.483-7.645 3.764-17.156v-.018zm-42.741 24.819l-12.9 11.873-1.347 12.945 10.482-7.645 3.765-17.173 3.765 17.173 10.482 7.645-1.348-12.945-12.9-11.873 16.684 5.3 11.81-5.3-11.81-5.3z"/><path d="M157.029 49.738l-3.765-17.174-10.482-7.645 1.347 12.945zm-28.475 0l11.81 5.3 16.665-5.3-16.665-5.3z"/></g></svg>