<svg width="201" height="142" viewBox="0 0 201 142" xmlns="http://www.w3.org/2000/svg"><title>material-sticker</title><g fill="#790000"><path d="M124.601 131.532a37.81 37.81 0 0 1 25.211 9.447h-47.039a3.13 3.13 0 0 0-.873-2.187 37.977 37.977 0 0 1 22.701-7.26m73.758-86.97a3.685 3.685 0 0 1 2.314-.81V.017c-12.657 11.784-13.682 31.51-2.314 44.546m0 94.01a3.663 3.663 0 0 1 2.314-.831V94.006c-12.657 11.783-13.682 31.509-2.314 44.545m-48.24 2.515h47.017a3.086 3.086 0 0 1 .895-2.187 38.02 38.02 0 0 0-22.635-7.348 37.766 37.766 0 0 0-25.277 9.535z"/><path d="M190.457 70.52a32.524 32.524 0 0 0 10.216 23.508V50.29a3.685 3.685 0 0 1-2.336-.809 32.246 32.246 0 0 0-7.902 21.037m-40.316-23.485c13.538 11.863 33.465 12.77 48.022 2.187a3.13 3.13 0 0 1-.895-2.187 3.086 3.086 0 0 1 .895-2.187c-14.554-10.592-34.487-9.684-48.022 2.187m-.153 0c-12.657 11.784-13.681 31.51-2.314 44.545a3.662 3.662 0 0 1 4.628 0c11.368-13.036 10.343-32.761-2.314-44.545m2.641 44.83a3.064 3.064 0 0 1 0 4.373c14.532 10.534 34.397 9.627 47.913-2.187-13.509-11.81-33.366-12.717-47.89-2.186m-.35 4.614a3.684 3.684 0 0 1-4.628 0c-11.396 13.042-10.37 32.8 2.314 44.589 12.657-11.784 13.682-31.51 2.314-44.545m-27.678-12.006a37.722 37.722 0 0 0-25.277 9.49c13.516 11.815 33.381 12.721 47.913 2.188a3.064 3.064 0 0 1 0-4.374 38.02 38.02 0 0 0-22.636-7.304m-35.558 32.999a32.268 32.268 0 0 0 7.902 21.059 3.641 3.641 0 0 1 4.628 0 32.246 32.246 0 0 0 7.901-21.037A32.568 32.568 0 0 0 99.26 94.028a32.568 32.568 0 0 0-10.216 23.508m-15.061 13.995a37.766 37.766 0 0 0-25.277 9.535h47.018a3.13 3.13 0 0 1 .873-2.187 37.955 37.955 0 0 0-22.614-7.348M.488 138.88c.575.581.896 1.367.895 2.186H48.38a37.766 37.766 0 0 0-25.277-9.49 37.999 37.999 0 0 0-22.614 7.303M73.83 84.515a38.043 38.043 0 0 0-22.635 7.348 3.042 3.042 0 0 1 0 4.373c14.531 10.534 34.397 9.627 47.912-2.187a37.744 37.744 0 0 0-25.277-9.49M50.867 96.477a3.663 3.663 0 0 1-2.313.809 3.641 3.641 0 0 1-2.314-.81 32.246 32.246 0 0 0-7.902 21.038 32.568 32.568 0 0 0 10.216 23.552 32.546 32.546 0 0 0 10.215-23.508 32.246 32.246 0 0 0-7.902-21.037"/></g></svg>