<svg width="275" height="179" viewBox="0 0 275 179" xmlns="http://www.w3.org/2000/svg"><title>material-glue</title><g fill="#006A5F"><path d="M231.875 160.35a30.88 30.88 0 0 0-11.748-3.758h-6.385a30.952 30.952 0 0 0-20.129 10.451 57.75 57.75 0 0 1 6.56 5.749 27.149 27.149 0 0 1 2.22 2.488 18.865 18.865 0 0 1 10.95-6.445l1.546-.224h4.041l1.546.224a18.89 18.89 0 0 1 10.95 6.445c.723-.796 1.447-1.593 2.195-2.488a57.797 57.797 0 0 1 6.46-5.724 30.939 30.939 0 0 0-8.281-6.718m-115.782 0a30.905 30.905 0 0 0-11.872-3.758h-6.411a30.952 30.952 0 0 0-20.128 10.451 58.25 58.25 0 0 1 6.61 5.724c.748.771 1.496 1.567 2.22 2.488a18.864 18.864 0 0 1 10.974-6.544l1.547-.224h4.04l1.547.224a18.89 18.89 0 0 1 10.825 6.444c.715-.812 1.446-1.6 2.195-2.363a58.4 58.4 0 0 1 6.61-5.724 30.764 30.764 0 0 0-8.257-6.718m17.709 17.922s5.295-2.873 8.181-4.087c.873-.373 1.771-.697 2.67-1.02a42.485 42.485 0 0 1 8.954-2.14l1.496-.2h8.081l1.497.2a42.485 42.485 0 0 1 8.954 2.14c.898.323 1.796.647 2.669 1.02 2.862 1.245 8.106 4.087 8.106 4.087h16.312l-1.521-2.345a55.905 55.905 0 0 0-7.483-6.57c-.848-.622-1.72-1.219-2.494-1.791a54.913 54.913 0 0 0-7.832-4.255c-1.147-.498-2.32-.995-3.517-1.418a55.424 55.424 0 0 0-8.33-2.29l-1.622-.348h-1.521a53.976 53.976 0 0 0-14.666 0l-1.596.224-1.547.274a55.724 55.724 0 0 0-8.33 2.289c-1.198.423-2.37.92-3.517 1.418a54.564 54.564 0 0 0-7.832 4.255 36.926 36.926 0 0 0-2.495 1.792 56.428 56.428 0 0 0-7.482 6.57l-1.522 2.195h16.387zm132.294-18.793l-1.546.274a55.224 55.224 0 0 0-8.331 2.289c-1.197.423-2.37.92-3.517 1.418a55.662 55.662 0 0 0-7.832 4.255c-.873.573-1.746 1.17-2.494 1.792a55.73 55.73 0 0 0-7.483 6.57l-1.521 2.195h16.412s5.126-2.808 7.931-4.087c.873-.373 1.771-.697 2.67-1.02a42.485 42.485 0 0 1 8.954-2.14l1.496-.2h4.041v-11.943c-2.4-.031-4.8.094-7.184.373l-1.596.224zM231.875 3.907A30.88 30.88 0 0 0 220.127.174h-3.393L215.14 0h-1.497a30.927 30.927 0 0 0-20.128 10.451 57.324 57.324 0 0 1 6.66 5.898 65.654 65.654 0 0 1 2.22 2.363 18.865 18.865 0 0 1 10.949-6.42c.499 0 1.022-.174 1.546-.223.524-.05 1.023 0 1.522 0h2.519c.499 0 1.022.124 1.546.223a18.89 18.89 0 0 1 10.95 6.42 98.52 98.52 0 0 1 2.195-2.363 57.324 57.324 0 0 1 6.46-5.724 30.914 30.914 0 0 0-8.281-6.718m42.725 22.171h-2.993a30.855 30.855 0 0 0-11.872 3.782l-1.123.672a30.686 30.686 0 0 0-7.133 6.022 57.153 57.153 0 0 1 6.61 5.748 54.12 54.12 0 0 1 2.02 2.14l.2.224a18.816 18.816 0 0 1 10.85-6.32c.498 0 1.022-.175 1.545-.224.524-.05 1.023 0 1.522 0h.499V26.178h-.2m-41.454 30.557l-1.122-.672a30.754 30.754 0 0 0-11.748-3.808h-6.485a30.63 30.63 0 0 0-11.847 3.758l-1.123.672a30.786 30.786 0 0 0-7.158 6.022 56.978 56.978 0 0 1 6.66 5.797 54.12 54.12 0 0 1 2.02 2.14l.2.224a18.816 18.816 0 0 1 10.849-6.32l1.546-.249h4.041l1.546.249a18.866 18.866 0 0 1 10.85 6.32l.175-.224c.648-.746 1.347-1.443 2.02-2.14a56.581 56.581 0 0 1 6.66-5.748 30.81 30.81 0 0 0-7.134-6.021m-57.866 26.078l-1.122-.697a30.805 30.805 0 0 0-11.873-3.733h-6.385a30.855 30.855 0 0 0-11.872 3.733l-1.123.697a31.01 31.01 0 0 0-7.133 6.021 58.225 58.225 0 0 1 6.585 5.724 54.12 54.12 0 0 1 2.02 2.14l.175.224a18.865 18.865 0 0 1 10.924-6.42c.5 0 1.023-.175 1.547-.224h4.015l1.547.224a18.866 18.866 0 0 1 10.85 6.32l.2-.224a48.904 48.904 0 0 1 2.02-2.14 58.35 58.35 0 0 1 6.61-5.723 30.66 30.66 0 0 0-7.134-6.022m98.098-4.404h-1.497a30.88 30.88 0 0 0-11.872 3.807l-1.123.697a30.785 30.785 0 0 0-7.133 6.021 58.874 58.874 0 0 1 6.61 5.724 54.12 54.12 0 0 1 2.02 2.14l.2.224a18.816 18.816 0 0 1 10.85-6.32l1.545-.225h2.021V78.433h-1.696m-39.958 30.457l-1.122-.671a30.755 30.755 0 0 0-11.748-3.708h-6.385a30.705 30.705 0 0 0-11.848 3.757l-1.122.672a30.96 30.96 0 0 0-7.159 6.022 57.553 57.553 0 0 1 8.58 7.814l.2.223a18.89 18.89 0 0 1 10.85-6.32l1.546-.224h4.041l1.546.224a18.89 18.89 0 0 1 10.85 6.32l.175-.223c.648-.747 1.347-1.444 2.02-2.14a57.13 57.13 0 0 1 6.66-5.724 31.01 31.01 0 0 0-7.134-6.022m-115.782 0l-1.122-.671a30.756 30.756 0 0 0-11.872-3.708H97.76a30.755 30.755 0 0 0-11.847 3.757l-1.123.672a30.885 30.885 0 0 0-7.158 6.022 58.7 58.7 0 0 1 6.61 5.723 54.12 54.12 0 0 1 2.02 2.14l.2.224a18.866 18.866 0 0 1 10.85-6.32l1.546-.224h4.041l1.546.224a18.892 18.892 0 0 1 10.925 6.17l.174-.223c.649-.747 1.347-1.443 2.02-2.14a57.702 57.702 0 0 1 6.61-5.723 30.96 30.96 0 0 0-7.133-6.022m58.04 26.153l-1.122-.573a30.705 30.705 0 0 0-11.873-3.757h-6.385a30.63 30.63 0 0 0-11.872 3.757l-1.123.672a30.984 30.984 0 0 0-7.133 6.047 57.004 57.004 0 0 1 6.585 5.723 54.12 54.12 0 0 1 2.02 2.14l.175.224a18.864 18.864 0 0 1 10.924-6.52l1.547-.223h4.015l1.547.224a18.866 18.866 0 0 1 10.85 6.32l.2-.224a41.001 41.001 0 0 1 2.02-2.14 57.553 57.553 0 0 1 6.61-5.723 30.81 30.81 0 0 0-7.134-6.047m98.098-4.404h-1.497a30.654 30.654 0 0 0-11.872 3.931c-.4.2-.749.448-1.123.672a30.935 30.935 0 0 0-7.133 6.022 57.627 57.627 0 0 1 6.61 5.748 54.12 54.12 0 0 1 2.02 2.14l.2.224a18.816 18.816 0 0 1 10.85-6.32l1.545-.224h2.021v-11.944h-1.696M267.517 2.687l-1.596.224-1.546.274a55.225 55.225 0 0 0-8.331 2.29c-1.197.422-2.37.92-3.517 1.418a55.163 55.163 0 0 0-7.832 4.255c-.873.572-1.746 1.17-2.494 1.791a55.207 55.207 0 0 0-7.483 6.57 32.132 32.132 0 0 0-1.521 1.692 53.96 53.96 0 0 0-4.09 5.35 58.273 58.273 0 0 1 6.534 1.791 55.616 55.616 0 0 1 5.163 2.04l.275.125a43.193 43.193 0 0 1 6.036-6.27 57.344 57.344 0 0 1 2.494-1.966 42.85 42.85 0 0 1 7.931-4.604c.873-.373 1.771-.696 2.67-1.02a42.61 42.61 0 0 1 8.954-2.14l1.496-.174h4.041V2.19a55.25 55.25 0 0 0-7.333.497"/><path d="M194.486 32.97a56.957 56.957 0 0 0-7.831 4.355c-.873.573-1.746 1.17-2.495 1.817l-.2.124a55.303 55.303 0 0 0-7.183 6.42 32.132 32.132 0 0 0-1.521 1.692 56.575 56.575 0 0 0-4.09 5.35 57.598 57.598 0 0 1 6.534 1.817l1.92.697 1.971.77 1.272.573.275.125a61.625 61.625 0 0 1 2.095-2.489 44.848 44.848 0 0 1 3.966-3.832c.823-.697 1.696-1.343 2.494-1.966h.15a42.357 42.357 0 0 1 6.934-4.03l.997-.474c.773-.348 1.572-.622 2.494-.895h.3a42.635 42.635 0 0 1 8.954-2.14l1.497-.2h8.081l1.496.2a42.935 42.935 0 0 1 8.955 2.14h.299c.798.298 1.596.572 2.494.895l.998.473a43.05 43.05 0 0 1 6.959 4.031c.873.623 1.746 1.27 2.494 1.966a43.18 43.18 0 0 1 3.966 3.832c.723.797 1.421 1.593 2.095 2.489l.274-.125 1.272-.572 1.97-.771 1.921-.697a56.393 56.393 0 0 1 6.236-1.916 52.716 52.716 0 0 0-4.066-5.35 49.062 49.062 0 0 0-1.521-1.692 54.83 54.83 0 0 0-7.159-6.42l-.224-.15c-.848-.622-1.721-1.219-2.494-1.816a56.336 56.336 0 0 0-7.832-4.255c-1.148-.498-2.32-.995-3.517-1.419a54.575 54.575 0 0 0-8.306-2.289l-1.546-.274h-.25l-1.471-.199h-.3l-1.745-.199a52.856 52.856 0 0 0-5.263-.248c-1.771 0-3.542 0-5.288.248l-1.746.2h-.3l-1.47.198h-.126l-1.546.274a54.725 54.725 0 0 0-8.33 2.29c-1.198.423-2.37.92-3.518 1.418m-39.583 33.543h8.081l1.497.174a42.485 42.485 0 0 1 8.954 2.14h.3c.798.299 1.596.572 2.494.92l.997.474a43.025 43.025 0 0 1 6.934 4.03c.873.623 1.721 1.27 2.495 1.966a44.225 44.225 0 0 1 3.965 3.833c.724.796 1.422 1.592 2.07 2.488l.275-.125 1.272-.572 1.97-.771 1.92-.697a58.523 58.523 0 0 1 6.536-1.792 55.678 55.678 0 0 0-4.09-5.35l-1.522-1.692a55.078 55.078 0 0 0-7.159-6.42l-.224-.174c-.848-.622-1.721-1.22-2.494-1.791a54.44 54.44 0 0 0-7.832-4.255l-1.696-.722-1.946-.523h-.324l-2.37-.771a54.53 54.53 0 0 0-5.636-1.394l-1.647-.398-1.521-.323h-.3l-1.745-.2a52.856 52.856 0 0 0-5.263-.248c-1.771 0-3.542 0-5.263.249l-1.746.199h-.324l-1.472.199-1.546.274c-1.947.4-3.87.906-5.762 1.518l-2.37.77h-.324l-1.82.723-1.697.721a54.14 54.14 0 0 0-7.831 4.255c-.873.573-1.746 1.17-2.495 1.792l-.249.174a54.83 54.83 0 0 0-7.158 6.395l-1.522 1.692a55.653 55.653 0 0 0-4.09 5.35 58.099 58.099 0 0 1 6.534 1.792l1.921.697 1.97.77 1.248.573.274.125a91.078 91.078 0 0 1 2.07-2.489 42.78 42.78 0 0 1 3.966-3.832 57.344 57.344 0 0 1 2.494-1.966l.2-.149a43.15 43.15 0 0 1 6.909-4.006l.997-.473a38.64 38.64 0 0 1 2.37-.896h.3a42.485 42.485 0 0 1 8.953-2.14l1.497-.174m112.764-11.695h-.2l-1.471.199-1.547.274a53.505 53.505 0 0 0-5.637 1.393l-2.37.772h-.323l-1.821.696-1.696.722a54.913 54.913 0 0 0-7.832 4.255c-.873.572-1.746 1.17-2.494 1.792l-.175.149a54.832 54.832 0 0 0-7.557 6.669c-.524.547-1.023 1.12-1.522 1.692a55.454 55.454 0 0 0-4.09 5.35 58.847 58.847 0 0 1 6.51 1.816l1.92.697 1.97.771 1.273.573.274.124c.648-.846 1.347-1.642 2.07-2.488a43.553 43.553 0 0 1 3.966-3.832 57.344 57.344 0 0 1 2.494-1.966h.15a42.85 42.85 0 0 1 6.934-4.031l.997-.473c.774-.348 1.572-.622 2.495-.92h.299a42.485 42.485 0 0 1 8.954-2.14l1.497-.175h4.04V54.72c-1.77 0-3.541 0-5.262.249l-1.746.199m-88.321 52.105l1.97.771 1.273.573.274.124a48.833 48.833 0 0 1 2.095-2.488 42.98 42.98 0 0 1 3.966-3.832c.823-.697 1.696-1.344 2.494-1.966h.15a42.925 42.925 0 0 1 6.934-4.031l.997-.473a24.02 24.02 0 0 1 2.495-.896h.299a42.76 42.76 0 0 1 8.954-2.14l1.497-.199h8.081l1.497.2a42.71 42.71 0 0 1 8.954 2.14h.3c.797.298 1.596.572 2.493.895l.998.473a42.6 42.6 0 0 1 6.934 4.031c.873.622 1.746 1.269 2.494 1.966a42.008 42.008 0 0 1 3.966 3.832c.723.796 1.422 1.592 2.095 2.488l.275-.124 1.272-.573 1.97-.77 1.92-.698a56.448 56.448 0 0 1 6.386-1.791 52.545 52.545 0 0 0-4.066-5.25 49.886 49.886 0 0 0-1.521-1.718 55.128 55.128 0 0 0-7.159-6.42l-.224-.149c-.848-.622-1.721-1.22-2.494-1.792a54.44 54.44 0 0 0-7.832-4.255l-1.696-.721-1.821-.697h-.324l-2.495-.771a53.63 53.63 0 0 0-5.636-1.394l-1.547-.274-1.471-.199h-.3l-1.746-.199a52.856 52.856 0 0 0-5.263-.249c-1.77 0-3.541 0-5.262.25l-1.746.198h-.3l-1.471.2h-.125l-1.546.273a54.63 54.63 0 0 0-5.637 1.394l-2.37.771h-.324l-1.82.697-1.697.721a54.913 54.913 0 0 0-7.832 4.255 24.624 24.624 0 0 0-2.494 1.792l-.175.15a55.129 55.129 0 0 0-7.183 6.42 49.886 49.886 0 0 0-1.521 1.716 55.604 55.604 0 0 0-4.091 5.35 58.847 58.847 0 0 1 6.535 1.792l1.92.697m-38.71-9.63a54.456 54.456 0 0 0-7.158-6.395l-.225-.175c-.848-.622-1.696-1.219-2.494-1.791a54.29 54.29 0 0 0-7.832-4.255l-1.696-.722-1.82-.722h-.325l-2.37-.77a54.98 54.98 0 0 0-5.636-1.394l-1.547-.274h-.125l-1.471-.2h-.324l-1.746-.198a52.856 52.856 0 0 0-5.263-.25c-1.771 0-3.542 0-5.288.25l-1.746.199h-.324l-1.472.199H92.1l-1.547.274a56.58 56.58 0 0 0-5.637 1.393l-2.37.771h-.324l-1.82.722-1.696.722a54.39 54.39 0 0 0-7.832 4.255c-.873.572-1.746 1.17-2.495 1.791l-.399.15a55.328 55.328 0 0 0-7.158 6.42A49.886 49.886 0 0 0 59.3 99.46a53.19 53.19 0 0 0-4.09 5.35 56.5 56.5 0 0 1 6.535 1.791l1.92.697 1.97.771 1.273.573.274.124a91.077 91.077 0 0 1 2.07-2.488 42.357 42.357 0 0 1 3.966-3.832c.823-.697 1.696-1.344 2.494-1.966a42.677 42.677 0 0 1 7.234-4.13l.997-.474c.774-.348 1.572-.622 2.495-.92h.299a42.908 42.908 0 0 1 8.68-2.215l1.496-.174h8.082l1.496.174a42.96 42.96 0 0 1 8.954 2.14h.3c.798.299 1.596.572 2.494.92l.998.474a42.925 42.925 0 0 1 6.909 4.006l.2.15a33.352 33.352 0 0 1 2.493 1.965 42.357 42.357 0 0 1 3.966 3.832c.724.796 1.422 1.593 2.095 2.488l.275-.124 1.272-.572 1.97-.772 1.92-.697a55.7 55.7 0 0 1 6.51-1.791 57.655 57.655 0 0 0-4.214-5.226l-1.522-1.692m-.026 51.563a54.456 54.456 0 0 0-7.158-6.395l-.225-.174c-.848-.622-1.696-1.22-2.494-1.792a54.29 54.29 0 0 0-7.832-4.255l-1.696-.721-1.82-.722h-.325l-2.37-.771a54.98 54.98 0 0 0-5.636-1.394l-1.547-.274h-.125l-1.471-.199h-.324l-1.746-.199a52.856 52.856 0 0 0-5.263-.249c-1.771 0-3.542 0-5.288.25l-1.746.198h-.324l-1.472.2H92.1l-1.547.273a56.58 56.58 0 0 0-5.637 1.394l-2.37.771h-.324l-1.82.722-1.696.721a54.39 54.39 0 0 0-7.832 4.255c-.873.573-1.746 1.17-2.495 1.792l-.399.15a55.327 55.327 0 0 0-7.158 6.42 49.886 49.886 0 0 0-1.522 1.716 53.19 53.19 0 0 0-4.09 5.35 56.5 56.5 0 0 1 6.535 1.792l1.92.697 1.97.77 1.273.573.274.125a91.075 91.075 0 0 1 2.07-2.489 42.357 42.357 0 0 1 3.966-3.832c.823-.696 1.696-1.343 2.494-1.966a42.677 42.677 0 0 1 7.234-4.13l.997-.473c.774-.348 1.572-.622 2.495-.92h.299a42.908 42.908 0 0 1 8.68-2.215l1.496-.175h8.082l1.496.175a42.96 42.96 0 0 1 8.954 2.14h.3c.798.298 1.596.572 2.494.92l.998.473a42.925 42.925 0 0 1 6.909 4.006l.2.15a33.352 33.352 0 0 1 2.493 1.965 42.357 42.357 0 0 1 3.966 3.833c.724.796 1.422 1.592 2.095 2.488l.275-.125 1.272-.572 1.97-.771 1.92-.697a55.7 55.7 0 0 1 6.51-1.792 57.655 57.655 0 0 0-4.214-5.225l-1.522-1.692M82.73 175.6a54.456 54.456 0 0 0-7.159-6.395l-.224-.174c-.848-.622-1.696-1.22-2.494-1.791a54.29 54.29 0 0 0-7.832-4.256l-1.696-.721-1.821-.722h-.324l-2.37-.771a54.98 54.98 0 0 0-5.637-1.394l-1.546-.273-1.597-.2h-.324l-1.746-.199a52.856 52.856 0 0 0-5.263-.248c-1.77 0-3.541 0-5.287.248l-1.746.2h-.325l-1.471.199-1.671.273a56.58 56.58 0 0 0-5.637 1.394l-2.37.771h-.324l-1.82.722-1.697.721a54.39 54.39 0 0 0-7.832 4.256c-.873.572-1.746 1.169-2.494 1.791l-.4.15a55.327 55.327 0 0 0-7.157 6.42 49.886 49.886 0 0 0-1.522 1.716c-.236.271-.7.955-.7.955s16.314.622 17.112 0v.066a42.677 42.677 0 0 1 7.233-4.131l.998-.473c.773-.348 1.571-.622 2.494-.92h.3a42.908 42.908 0 0 1 8.68-2.215l1.496-.174h8.081l1.497.174a42.96 42.96 0 0 1 8.954 2.14h.3c.797.298 1.596.572 2.494.92l.997.473a42.925 42.925 0 0 1 6.91 4.007l.199.133h17.208s-.61-.537-.92-.88l-1.522-1.692m174.312-26.295a54.456 54.456 0 0 0-7.159-6.395l-.224-.174c-.848-.622-1.696-1.22-2.495-1.792a54.29 54.29 0 0 0-7.831-4.255l-1.697-.721-1.82-.722h-.325l-2.37-.771a54.98 54.98 0 0 0-5.636-1.394l-1.546-.274h-.125l-1.472-.199h-.324l-1.746-.199a52.856 52.856 0 0 0-5.263-.249c-1.77 0-3.542 0-5.288.25l-1.745.198h-.325l-1.471.2h-.125l-1.546.273a56.58 56.58 0 0 0-5.637 1.394l-2.37.771h-.324l-1.821.722-1.696.721a54.39 54.39 0 0 0-7.832 4.255c-.873.573-1.746 1.17-2.494 1.792l-.4.15a55.328 55.328 0 0 0-7.158 6.42 49.887 49.887 0 0 0-1.521 1.716 53.19 53.19 0 0 0-4.09 5.35 56.5 56.5 0 0 1 6.534 1.792l1.92.697 1.971.77 1.272.573.275.125a91.076 91.076 0 0 1 2.07-2.489 42.357 42.357 0 0 1 3.966-3.832c.823-.696 1.696-1.343 2.494-1.966a42.677 42.677 0 0 1 7.233-4.13l.998-.473c.773-.348 1.571-.622 2.494-.92h.3a42.908 42.908 0 0 1 8.68-2.215l1.496-.175h8.081l1.497.175a42.96 42.96 0 0 1 8.954 2.14h.3c.797.298 1.596.572 2.493.92l.998.473a42.925 42.925 0 0 1 6.91 4.006l.199.15a33.352 33.352 0 0 1 2.494 1.965 42.357 42.357 0 0 1 3.966 3.833c.723.796 1.421 1.592 2.095 2.488l.274-.125 1.272-.572 1.97-.771 1.921-.697a55.7 55.7 0 0 1 6.51-1.792 57.655 57.655 0 0 0-4.215-5.225l-1.522-1.692m-83.506-28.446c.798.298 1.596.572 2.494.895l.998.473a43.15 43.15 0 0 1 6.934 4.031c.873.622 1.746 1.27 2.494 1.966a44.225 44.225 0 0 1 3.966 3.832c.723.796 1.421 1.593 2.07 2.489l.274-.125 1.272-.572 1.97-.772 1.921-.696a57.473 57.473 0 0 1 6.535-1.817 54.235 54.235 0 0 0-4.09-5.35l-1.522-1.692a54.829 54.829 0 0 0-7.158-6.42l-.225-.15c-.848-.621-1.72-1.218-2.494-1.79a55.163 55.163 0 0 0-7.832-4.256l-1.696-.721-1.77-.598h-.325l-2.37-.796a56.105 56.105 0 0 0-5.636-1.393l-1.647-.374-1.546-.224h-.324l-1.746-.199a61.69 61.69 0 0 0-5.288-.249c-1.796 0-3.542 0-5.263.25l-1.746.198h-.324l-1.472.2h-.124l-1.547.273a55.33 55.33 0 0 0-5.637 1.394l-2.37.796h-.323l-1.821.697-1.696.721a54.539 54.539 0 0 0-7.832 4.255c-.873.573-1.746 1.17-2.494 1.767l-.25.174a55.278 55.278 0 0 0-7.133 6.395l-1.522 1.692a55.48 55.48 0 0 0-4.09 5.35 58.373 58.373 0 0 1 6.535 1.817l1.92.697 1.97.771 1.273.572.274.125c.648-.846 1.347-1.643 2.07-2.489a44.65 44.65 0 0 1 3.966-3.832 57.344 57.344 0 0 1 2.494-1.965l.2-.15a43.255 43.255 0 0 1 6.909-3.832l.997-.473c.774-.348 1.572-.622 2.495-.895h.299a42.485 42.485 0 0 1 8.954-2.14l1.497-.2h4.04c.898 0 1.622 0 2.495.125h1.546l1.497.199a42.335 42.335 0 0 1 8.954 2.14h.3M267.717 107h-.2l-1.471.198-1.547.274a55.43 55.43 0 0 0-5.637 1.394l-2.37.796h-.323l-1.821.697-1.696.721a54.689 54.689 0 0 0-7.832 4.255c-.873.573-1.746 1.17-2.494 1.792l-.175.124a55.253 55.253 0 0 0-7.183 6.42c-.524.548-1.023 1.12-1.522 1.692a54.185 54.185 0 0 0-4.09 5.35 58.322 58.322 0 0 1 6.51 1.817l1.92.697 1.97.771 1.273.572.274.125c.649-.846 1.347-1.643 2.07-2.489a43.927 43.927 0 0 1 3.966-3.832 57.344 57.344 0 0 1 2.494-1.965h.15a42.85 42.85 0 0 1 6.934-4.032l.623-.448c.774-.348 1.572-.622 2.495-.92h.299a42.485 42.485 0 0 1 8.954-2.14l1.497-.174h4.04V106.75c-1.77 0-3.541 0-5.262.248l-1.746.2"/></g></svg>