<svg width="219" height="92" viewBox="0 0 219 92" xmlns="http://www.w3.org/2000/svg"><title>material-cards</title><g fill="#790000"><path d="M79.82 3.2c0 6.782-5.508 12.279-12.301 12.279v4.648c-6.81 0-12.331 5.51-12.331 12.308s5.52 12.308 12.33 12.308v4.649c6.794 0 12.302 5.497 12.302 12.278 0 6.782-5.508 12.28-12.301 12.28v4.648a12.336 12.336 0 0 0-11.178 5.967c-1.214 2.021-1.798 4.451-1.751 6.724 9.834-.02 45.483.036 55.295 0a12.177 12.177 0 0 0-1.753-6.198 12.336 12.336 0 0 0-11.178-5.967v-4.649c-6.794 0-12.302-5.497-12.302-12.278 0-6.782 5.508-12.279 12.302-12.279V45.27c6.81 0 12.33-5.51 12.33-12.308s-5.52-12.308-12.33-12.308v-4.649c-6.794 0-12.302-6.02-12.302-12.802 0-3.325-4.832-3.459-4.832-.003zm14.205 78.438h2.929a9.523 9.523 0 0 1 8.682 4.585A9.649 9.649 0 0 1 107 91.289c-7.501 0-36.796.01-49.908 0a9.708 9.708 0 0 1 1.364-5.066 9.523 9.523 0 0 1 8.682-4.585h2.929v-4.94a15.07 15.07 0 0 0 11.715-11.929h.527a15.07 15.07 0 0 0 11.716 11.928v4.941zm0-58.382h2.929a9.523 9.523 0 0 1 8.682 4.584 9.487 9.487 0 0 1 0 9.804 9.523 9.523 0 0 1-8.682 4.585h-2.93v4.94a15.07 15.07 0 0 0-11.714 11.93h-.527A15.07 15.07 0 0 0 70.067 47.17V42.2h-2.93a9.523 9.523 0 0 1-8.681-4.585 9.487 9.487 0 0 1 0-9.804 9.523 9.523 0 0 1 8.682-4.585h2.929v-5.028A15.07 15.07 0 0 0 81.782 6.27h.527a15.07 15.07 0 0 0 11.716 11.928v5.058z"/><path d="M134.092 3.2c0 6.782-5.508 12.279-12.301 12.279v4.648c-6.81 0-12.33 5.51-12.33 12.308s5.52 12.308 12.33 12.308v4.649c6.793 0 12.3 5.497 12.3 12.278 0 6.782-5.507 12.28-12.3 12.28v4.648a12.336 12.336 0 0 0-11.178 5.967 12.22 12.22 0 0 0-1.747 6.724c20.421.026 43.95.015 55.32 0 .008-2.204-.576-4.238-1.753-6.198a12.336 12.336 0 0 0-11.178-5.967v-4.649c-6.794 0-12.301-5.497-12.301-12.278 0-6.782 5.507-12.279 12.301-12.279V45.27c6.81 0 12.33-5.51 12.33-12.308s-5.52-12.308-12.33-12.308v-4.649c-6.794 0-12.301-6.02-12.301-12.802 0-3.522-4.862-3.262-4.862-.003zm14.234 78.438h2.93a9.523 9.523 0 0 1 8.681 4.585c.923 1.529 1.378 3.345 1.364 5.066-5.886.025-40.234.016-49.907 0a9.549 9.549 0 0 1 1.363-5.066 9.523 9.523 0 0 1 8.682-4.585h2.929v-4.94a15.098 15.098 0 0 0 11.716-11.929h.527a15.07 15.07 0 0 0 11.715 11.928v4.941zm0-58.382h2.93a9.523 9.523 0 0 1 8.681 4.584 9.487 9.487 0 0 1 0 9.804 9.523 9.523 0 0 1-8.682 4.585h-2.929v4.94a15.07 15.07 0 0 0-11.715 11.929h-.527a15.098 15.098 0 0 0-11.716-11.928V42.2h-2.929a9.523 9.523 0 0 1-8.682-4.585 9.487 9.487 0 0 1 0-9.804 9.523 9.523 0 0 1 8.682-4.585h2.929v-5.028A15.098 15.098 0 0 0 136.084 6.27h.527a15.07 15.07 0 0 0 11.715 11.928v5.058z"/><path d="M188.092 3.2c0 6.782-5.508 12.279-12.301 12.279v4.648c-6.81 0-12.33 5.51-12.33 12.308s5.52 12.308 12.33 12.308v4.649c6.793 0 12.3 5.497 12.3 12.278 0 6.782-5.507 12.28-12.3 12.28v4.648a12.336 12.336 0 0 0-11.178 5.967 12.22 12.22 0 0 0-1.747 6.724c20.421.026 43.95.015 55.32 0 .008-2.204-.576-4.238-1.753-6.198a12.336 12.336 0 0 0-11.178-5.967v-4.649c-6.794 0-12.301-5.497-12.301-12.278 0-6.782 5.507-12.279 12.301-12.279V45.27c6.81 0 12.33-5.51 12.33-12.308s-5.52-12.308-12.33-12.308v-4.649c-6.794 0-12.301-6.02-12.301-12.802 0-3.522-4.862-3.262-4.862-.003zm14.234 78.438h2.93a9.523 9.523 0 0 1 8.681 4.585c.923 1.529 1.378 3.345 1.364 5.066-5.886.025-40.234.016-49.907 0a9.549 9.549 0 0 1 1.363-5.066 9.523 9.523 0 0 1 8.682-4.585h2.929v-4.94a15.098 15.098 0 0 0 11.716-11.929h.527a15.07 15.07 0 0 0 11.715 11.928v4.941zm0-58.382h2.93a9.523 9.523 0 0 1 8.681 4.584 9.487 9.487 0 0 1 0 9.804 9.523 9.523 0 0 1-8.682 4.585h-2.929v4.94a15.07 15.07 0 0 0-11.715 11.929h-.527a15.098 15.098 0 0 0-11.716-11.928V42.2h-2.929a9.523 9.523 0 0 1-8.682-4.585 9.487 9.487 0 0 1 0-9.804 9.523 9.523 0 0 1 8.682-4.585h2.929v-5.028A15.098 15.098 0 0 0 190.084 6.27h.527a15.07 15.07 0 0 0 11.715 11.928v5.058zM25.548 61.67c0 6.782-5.508 12.28-12.301 12.28v4.648a12.336 12.336 0 0 0-11.178 5.967 12.102 12.102 0 0 0-1.745 6.724c6.282.011 40.193.037 55.318 0 .004-2.196-.58-4.245-1.753-6.198a12.336 12.336 0 0 0-11.178-5.967v-4.649c-6.794 0-12.301-5.497-12.301-12.278 0-3.4-4.862-3.909-4.862-.527zm14.234 14.94v5.028h2.929a9.523 9.523 0 0 1 8.682 4.585c.954 1.581 1.408 3.287 1.361 5.066-14.77.028-28.14.005-49.901 0-.056-1.795.397-3.47 1.36-5.066a9.523 9.523 0 0 1 8.682-4.585h2.929v-4.94a15.098 15.098 0 0 0 11.715-11.929h.528a15.098 15.098 0 0 0 11.715 11.928"/></g></svg>