<svg width="232" height="180" viewBox="0 0 232 180" xmlns="http://www.w3.org/2000/svg"><title>material-lacquer</title><g fill="#00769A"><path d="M158.927 62.911V23.82l33.948-19.513 33.93 19.513v39.09l-33.93 19.445-33.948-19.445zm-3.67-41.123v43.154l37.618 21.662 37.601-21.662V21.72L192.875.092l-37.618 21.696z"/><path d="M162.107 25.68v35.37l30.768 17.65 30.75-17.684V25.68l-30.75-17.718-30.768 17.718zm57.865 2.116V58.9L192.91 74.47 165.845 58.9V27.762l27.064-15.57 27.063 15.57v.034z"/><path d="M168.957 29.573v27.5l23.918 13.741 23.917-13.741v-27.5L192.875 15.83l-23.918 13.742zm44.165 25.384L192.824 66.6l-20.298-11.626V31.688l20.298-11.626 20.298 11.643v23.252z"/><path d="M182.658 37.526v11.677l10.15 5.873 10.148-5.873V37.526l-10.149-5.872-10.149 5.872zm16.78 2.116v7.53l-6.546 3.774-6.546-3.773v-7.616l6.529-3.723 6.546 3.757.017.05zm-5.041 92.79l36.619 21.289v-4.214l-32.948-19.174V91.308l32.948-19.174V67.92l-36.619 21.273z"/><path d="M208.098 124.562l22.918 13.403v-4.213l-19.248-11.288V99.178l19.248-11.305v-4.214l-22.918 13.42z"/><path d="M214.948 120.62l16.068 9.476v-4.214l-12.397-7.361v-15.4l12.397-7.362v-4.214l-16.068 9.46z"/><path d="M221.799 116.693l9.217 5.534v-4.214l-5.547-3.435v-7.531l5.547-3.419v-4.214l-9.217 5.534zm-30.447-27.5l-37.618-21.611-37.686 21.61v43.24l37.619 21.627 37.618-21.627.067-43.24zm-3.67 41.123l-33.948 19.53-33.948-19.513V91.308l33.948-19.512 33.948 19.512v39.008z"/><path d="M122.966 93.136v35.37l30.768 17.667 30.768-17.685V93.136l-30.768-17.685-30.768 17.685zm57.866 33.254l-27.064 15.57-27.063-15.57V95.234l27.063-15.569 27.064 15.57v31.155z"/><path d="M136.667 101.005v19.614l17.067 9.816 17.067-9.816v-19.614l-17.067-9.815-17.067 9.815zm30.447 17.516l-13.397 7.7-13.396-7.7v-15.4l13.396-7.7 13.397 7.7v15.4z"/><path d="M143.5 104.948v11.745l10.15 5.872 10.148-5.872v-11.745l-10.148-5.872-10.15 5.872zm16.763 9.63l-6.546 3.773-6.546-3.773v-7.531l6.546-3.774 6.546 3.774v7.53zm70.627 64.656v-22.312l-37.618-21.628-37.686 21.61v22.33h75.304zm-71.566-20.248l33.948-19.478 33.947 19.478v20.248h-67.895v-20.248z"/><path d="M224.04 179.234v-18.386l-30.768-17.685-30.768 17.685v18.386h61.535zm-57.866-16.27l27.064-15.57 27.063 15.57v16.27h-54.127v-16.27z"/><path d="M217.189 179.234v-14.443l-23.917-13.742-23.918 13.742v14.443h47.835zm-44.164-12.344l20.297-11.644 20.298 11.644v12.344h-40.595V166.89z"/><path d="M203.488 179.234v-6.574l-10.149-5.872-10.149 5.872v6.574h20.298zm-16.762-4.492l6.546-3.774 6.546 3.774v4.492h-13.092v-4.492zm-71.736-39.448v4.214l33.948 19.512v20.214h3.67v-22.312z"/><path d="M114.99 143.163v4.214l27.098 15.586v16.271h3.67v-18.386z"/><path d="M114.99 151.033v4.213l20.247 11.644v12.344h3.67v-14.443z"/><path d="M114.99 158.919v4.214l13.397 7.7v8.401h3.67v-10.517zm-36.589 20.315h3.67V159.02l33.357-19.174v-4.214L78.4 156.922z"/><path d="M85.252 179.234h3.67v-16.27l26.506-15.248v-4.214l-30.176 17.346z"/><path d="M92.102 179.234h3.67V166.89l19.656-11.305v-4.197L92.102 164.79z"/><path d="M102.623 179.234v-8.401l12.805-7.362v-4.214l-16.475 9.46v10.517zm-27.266 0v-22.312l-37.618-21.628-37.686 21.61v22.33h75.304zM3.79 158.986l33.948-19.478 33.947 19.478v20.248H3.791v-20.248z"/><path d="M68.506 179.234v-18.386L37.74 143.163 6.97 160.848v18.386h61.535zm-57.865-16.27l27.064-15.57 27.063 15.57v16.27H10.641v-16.27z"/><path d="M54.805 179.234v-10.517l-17.066-9.73-17.067 9.815v10.432h34.133zm-30.446 0v-8.401l13.396-7.7 13.38 7.7v8.401H24.359z"/><path d="M47.955 179.234v-6.574l-10.149-5.872-10.149 5.872v6.574h20.298zm-16.762-4.492l6.546-3.774 6.546 3.774v4.492H31.193v-4.492z"/></g></svg>