<svg width="199" height="171" viewBox="0 0 199 171" xmlns="http://www.w3.org/2000/svg" xmlns:xlink="http://www.w3.org/1999/xlink"><title>material-cardboards</title><defs><path id="a" d="M0 0h349v202H0z"/></defs><g transform="translate(-119 -31)" fill="none" fill-rule="evenodd"><mask id="b" fill="#fff"><use xlink:href="#a"/></mask><g mask="url(#b)" fill-rule="nonzero" fill="#FC9705"><path d="M240.674 31.483v57.009h3.197V31.483m3.222 0v57.009h3.222V31.483m3.222 0v57.009h3.197V31.483m3.442 0v57.009h5.98V59.987h3.027v28.505h3.197V59.987h3.222v28.505h3.344V59.987h3.222v28.505h3.222V59.987h3.32v28.505h28.314v-2.743h-25.459v-3.526h25.556v-3.184h-25.556v-3.085h25.556V72.77h-25.556v-3.208h25.556V66.38h-25.556v-3.21h25.556v-5.926h-54.26v-3.429h54.26v-3.183h-54.26v-3.184h54.26v-3.183h-54.26v-3.208h54.26v-3.183h-54.26v-3.208h54.26v-3.184h-54.26M119.363 139.141h57.433v3.422h-57.433v-3.422zm0-6.379h57.433v3.202h-57.433v-3.202zm0-6.378h57.433v3.177h-57.433v-3.177zm0-3.397v-2.957h57.433v3.201h-57.433v-.244zm0-6.135v85.391h3.197V145.3h3.222v28.447h3.198V145.3h3.222v28.447h3.222V145.3h3.222v28.447h3.197V145.3h3.442v56.943h6.004v-28.496h3.173v28.496h3.198v-28.496h3.222v28.496h3.344v-28.496h3.222v28.496h3.124v-28.496h3.417v28.496h31.487v-2.786h-28.68v-3.421h28.73v-3.177h-28.73v-3.202h28.73v-3.177h-28.73v-3.177h28.73v-3.177h-28.73v-3.202h28.73v-5.914h-57.459v-3.422h57.458v-3.177h-57.458v-3.201h57.458v-3.177h-57.458v-3.177h57.458v-3.178h-57.458v-3.201h57.458l-.049-3.177h-25.483v-28.448h-60.63z"/><path d="M138.646 196.036v6.158h3.222v-28.447h-3.222zm-6.42 0v6.158h3.198v-28.447h-3.198zm-6.444 0v6.158h3.198v-28.447h-3.198zM314.07 94.564v-6.159h-3.197v28.447h3.197zm-6.42 0v-6.159h-3.197v28.447h3.198zm-6.443 0v-6.159h-3.198v28.447h3.198z"/><path d="M234.132 139.141h57.433v3.422h-57.433v-3.422zm0-6.379h57.433v3.202h-57.433v-3.202zm0-6.378h57.433v3.177h-57.433v-3.177zm0-3.397v-2.957h57.433v3.201h-57.433v-.244zm-25.507 44.601v-50.736h3.222v56.895h-3.222v-6.159zm6.42 0v-50.736h3.221v56.895h-3.221v-6.159zm6.443 0v-50.736h3.222v56.895h-3.222v-6.159zm6.444 0v-50.736h3.442v56.895h-3.442v-6.159zm28.705-79.183h-51.258v3.177h57.482v3.128h-57.433v3.178h57.433v3.201h-57.433v3.177h57.433v3.202h-57.433v3.177h57.433v3.421h-57.433v62.81h28.704v3.2h-28.704v3.178h28.704v3.202h-28.704v3.177h28.704v3.201h-28.704v3.177h28.704v3.422h-28.704v2.81h32.024V145.3h3.222v28.447h3.197V145.3h3.222v28.447h3.222V145.3h3.222v28.447h3.197V145.3h3.442v56.943h5.98v-28.496h3.027v28.496h3.197v-28.496h3.222v28.496h3.344v-28.496h3.222v28.496h3.222v-28.496h3.32v28.496h28.314v-2.786h-25.459v-3.421h25.556v-3.177h-25.556v-3.202h25.556v-3.177h-25.556v-3.177h25.556v-3.177h-25.556v-3.202h25.556v-5.914h-54.26v-3.422h54.26v-3.177h-54.26v-3.201h54.26v-3.177h-54.26v-3.177h54.26v-3.178h-54.26v-3.201h54.26V145.3h-3.05v-28.448h-3.198V145.3h-3.222v-28.448h-3.198V145.3h-3.246v-28.448h-3.198V145.3h-3.222V88.405h-6.077v28.447h-3.344V88.405h-3.222v28.447h-3.198V88.405h-3.222v28.447h-3.222V88.405h-3.32v28.447h-3.124V88.405h-9.421z"/><path d="M253.44 196.036v6.158h3.197v-28.447h-3.198zm-6.445 0v6.158h3.222v-28.447h-3.222zm-6.419 0v6.158h3.197v-28.447h-3.197z"/></g></g></svg>