<svg width="264" height="153" viewBox="0 0 264 153" xmlns="http://www.w3.org/2000/svg"><title>material-envelopes</title><g fill="#C12762" fill-rule="evenodd"><path d="M200.265 36.833l3.148-.887c10.408-2.791 20.633-5.583 30.988-8.322a8.035 8.035 0 0 0 3.851-2.218c7.52-7.618 15.117-15.185 22.662-22.777.677-.704 1.57-1.539 2.376-2.609.006 15.929 0 146.209 0 146.209-.832-.783-1.621-1.41-2.298-2.087a1856.868 1856.868 0 0 1-22.532-22.725 8.97 8.97 0 0 0-4.319-2.452c-10.407-2.74-20.815-5.584-31.222-8.401-.833-.235-1.665-.522-2.602-.835l4.45-16.724c1.586-5.948 3.226-11.897 4.709-17.872a7.848 7.848 0 0 0 0-3.626c-2.758-10.619-5.62-21.237-8.456-31.856-.26-.861-.443-1.722-.755-2.818zm2.966 1.774c.338 1.357.599 2.375.885 3.418 2.602 9.836 5.203 19.698 7.805 29.508a6.566 6.566 0 0 1 0 3.653c-2.602 9.914-5.203 19.854-7.961 29.768-.26.992-.495 2.01-.755 3.131l3.07.913c9.731 2.61 19.436 5.218 29.167 7.827a8.477 8.477 0 0 1 4.059 2.348 4220.415 4220.415 0 0 0 21.57 21.629c.676.678.996 1.304 2.22 2.452 0-15.95.014-130.684 0-139.346l-2.247 2.217c-7.129 7.149-14.284 14.272-21.361 21.446a8.529 8.529 0 0 1-4.059 2.348c-9.575 2.61-19.123 5.218-28.62 7.67l-3.773 1.018zm-75.818 40.544c.505.847 1.08 1.65 1.717 2.4 7.546 7.619 15.143 15.185 22.663 22.803a8.503 8.503 0 0 0 4.058 2.348 6700.536 6700.536 0 0 1 30.754 8.219l3.2.939c-.26 1.096-.442 2.061-.676 2.974a6511.21 6511.21 0 0 1-8.456 31.595 7.451 7.451 0 0 0-.251 1.86c-23.721.01-85.12.016-107.168 0a6.653 6.653 0 0 0-.272-2.042 5223.869 5223.869 0 0 1-8.377-31.308c-.26-.94-.443-1.879-.729-3.027 1.145-.34 2.134-.678 3.148-.94 10.252-2.747 20.503-5.487 30.754-8.217a9.05 9.05 0 0 0 4.293-2.61c7.467-7.566 14.987-15.053 22.48-22.593a25.402 25.402 0 0 0 1.821-2.322l1.041-.079zm-60.675 38.43l.885 3.419 7.805 29.273c.179.62.27 1.377.276 2.015 23.98.022 74.472.004 102.225 0a6.84 6.84 0 0 1 .272-1.78L186.007 121c.26-1.018.494-2.035.754-3.157l-2.784-.809c-9.809-2.609-19.618-5.218-29.453-7.827a8.528 8.528 0 0 1-4.084-2.322c-7.156-7.253-14.363-14.454-21.544-21.655-.676-.678-1.379-1.304-2.185-2.06l-2.264 2.217c-7.129 7.148-14.25 14.297-21.361 21.446a8.45 8.45 0 0 1-4.059 2.348c-6.817 1.774-13.608 3.626-20.425 5.453l-11.864 2.948zM190.04 42.677c.468 1.67.858 3.131 1.249 4.566 2.16 8.036 4.319 16.046 6.4 24.081a7.639 7.639 0 0 1 0 3.653c-2.368 9.157-4.865 18.263-7.311 27.447a15.68 15.68 0 0 1-.624 1.591l-14.545-3.861c-4.553-1.226-9.106-2.61-13.686-3.679a7.982 7.982 0 0 1-3.85-2.192c-6.27-6.365-12.593-12.68-18.89-18.993-.624-.626-1.197-1.278-2.185-2.322 1.093-.887 2.133-1.592 3.018-2.479a2459.381 2459.381 0 0 0 17.77-17.845 8.894 8.894 0 0 1 4.268-2.61c8.716-2.269 17.406-4.643 26.018-6.991.78-.052 1.379-.157 2.368-.366zm-1.848 58.233c.287-.782.547-1.435.729-2.087 2.107-7.827 4.241-15.654 6.244-23.48a8.188 8.188 0 0 0 0-3.914c-2.003-7.827-4.11-15.654-6.192-23.299-.208-.756-.494-1.487-.755-2.27-.494 0-.832 0-1.17.21-8.352 2.217-16.704 4.434-25.03 6.73a6.45 6.45 0 0 0-2.602 1.696c-5.906 5.844-11.734 11.715-17.589 17.611-.416.417-.754.913-1.144 1.383.338.417.546.73.806.965a4011.503 4011.503 0 0 0 18.213 18.263 7.045 7.045 0 0 0 2.966 1.592c7.806 2.165 15.611 4.226 23.417 6.313.598-.026 1.17.105 2.081.261l.026.026zm-124.446 3.157c-.338-1.07-.65-1.878-.885-2.609-2.315-8.636-4.631-17.245-6.869-25.907a7.638 7.638 0 0 1-.156-3.653c2.394-9.262 4.892-18.471 7.39-27.707.155-.446.337-.882.546-1.305.78.13 1.483.235 2.133.392 8.873 2.374 17.745 4.748 26.591 7.2a6.395 6.395 0 0 1 2.758 1.461c6.921 6.836 13.764 13.75 20.633 20.664.25.282.485.578.703.887-.599.652-1.12 1.252-1.666 1.8-6.374 6.392-12.723 12.81-19.123 19.124a7.568 7.568 0 0 1-3.096 1.93c-9.523 2.531-19.072 5.062-28.96 7.723zm1.77-58.39c-.261.783-.521 1.331-.677 1.931-2.16 8.01-4.345 16.02-6.4 24.082a8.293 8.293 0 0 0 .155 3.913c1.952 7.592 4.033 15.184 6.063 22.777.234.835.52 1.67.754 2.426a5.19 5.19 0 0 0 1.015 0c8.43-2.27 16.86-4.487 25.264-6.836a6.502 6.502 0 0 0 2.602-1.643c5.828-5.766 11.604-11.61 17.406-17.428.494-.496.885-1.044 1.3-1.566a7.564 7.564 0 0 0-.597-.782c-6.115-6.132-12.203-12.289-18.344-18.264a6.993 6.993 0 0 0-2.966-1.617c-6.088-1.696-12.202-3.314-18.213-4.931l-7.363-2.061zm126.731 106.611a5.78 5.78 0 0 1 .134-1.363c2.42-9.34 4.944-18.654 7.442-27.969.136-.369.301-.727.494-1.07.729.157 1.431.262 2.082.444 8.872 2.374 17.744 4.723 26.59 7.149a6.447 6.447 0 0 1 2.758 1.461c7.103 7.018 14.154 14.148 21.336 21.348-11.34.014-53.791.03-60.836 0zm57.744 0c-.168-.254-.85-.53-1.045-.763-6.115-6.131-12.177-12.288-18.343-18.263a7.045 7.045 0 0 0-2.967-1.618c-7.805-2.165-15.61-4.226-23.416-6.313-.677-.183-1.353-.235-2.16-.392-.234.6-.468 1.07-.598 1.566-2.186 8.114-4.371 16.202-6.453 24.316a6.63 6.63 0 0 0-.196 1.467c2.512.047 47.864.007 55.178 0zm-249.392 0l15.611-15.765a37.666 37.666 0 0 1 6.765-6.418 36.714 36.714 0 0 1 8.924-2.609l19.384-5.218c.677-.183 1.353-.313 2.186-.47.234.679.494 1.227.65 1.8 2.42 8.976 4.84 17.95 7.181 26.926.134.54.198 1.201.19 1.754-31.628 0-50.279-.022-60.891 0zm3.539 0c7.705.015 40.894-.004 54.665 0a6.396 6.396 0 0 0-.26-1.833c-2.056-7.827-4.164-15.654-6.271-23.48-.182-.653-.469-1.305-.703-1.931a4.93 4.93 0 0 0-.936 0 4076.082 4076.082 0 0 0-25.525 6.887 4.784 4.784 0 0 0-1.769 1.018c-6.452 6.366-12.723 12.869-19.201 19.34z"/><path d="M263.29 21.675c.004 31.862-.036 85.192 0 103.273-.676-.6-1.31-1.183-1.882-1.73-5.203-5.219-10.225-10.228-15.298-15.368a8.425 8.425 0 0 0-4.06-2.374c-6.998-1.8-13.945-3.73-20.814-5.61-.755-.208-1.483-.469-2.42-.756.182-.913.312-1.67.52-2.426 1.874-7.07 3.721-14.167 5.673-21.237a7.586 7.586 0 0 0 0-4.201c-1.926-7.07-3.8-14.14-5.672-21.237-.209-.757-.365-1.54-.573-2.479.989-.313 1.795-.6 2.602-.835a2667.408 2667.408 0 0 1 20.659-5.505 8.425 8.425 0 0 0 4.085-2.348c4.995-5.218 10.069-10.123 15.116-15.184.65-.6 1.206-1.174 2.064-1.983zm-38.906 76.522a2595.588 2595.588 0 0 1 19.098 5.218 7.489 7.489 0 0 1 3.616 2.087c4.684 4.775 9.445 9.497 14.18 14.245.599.6.972.765 2.012 1.704.04-25.363-.019-89.297 0-96.23-.607.908-1.718 1.808-2.428 2.637-4.527 4.566-9.106 9.08-13.582 13.698a7.956 7.956 0 0 1-3.85 2.191c-6.635 1.748-13.244 3.548-19.878 5.218-.61.194-1.21.42-1.796.678.234.992.443 1.853.65 2.61 1.666 6.313 3.305 12.627 5.048 18.889a8.423 8.423 0 0 1 0 4.696c-1.743 6.288-3.382 12.601-5.047 18.889-.182.757-.364 1.696-.599 2.609 1.015.34 1.848.626 2.576.861zm-52.974 28.36c-.364 1.46-.624 2.609-.962 3.861-1.691 6.288-3.305 12.602-5.204 18.89-.27.902-.416 2.048-.437 2.98-13.523.011-52.996.021-76.232 0a6.912 6.912 0 0 0-.294-2.198c-1.925-6.966-3.746-13.984-5.594-20.872-.234-.835-.39-1.696-.624-2.609l12.853-3.496c3.513-.94 7.051-1.905 10.59-2.818a7.8 7.8 0 0 0 3.85-2.217c4.996-5.218 10.07-10.123 15.091-15.21a22.914 22.914 0 0 0 1.77-2.323c1.04.94 1.69 1.487 2.289 2.087 5.048 5.062 10.121 10.071 15.09 15.185a9.23 9.23 0 0 0 4.528 2.609c6.739 1.748 13.425 3.574 20.138 5.4 1.093.079 1.952.366 3.148.73zm-9.223 25.731c.003-.691.103-1.58.3-2.25 1.742-6.366 3.434-12.784 5.203-19.176.234-.835.338-1.67.52-2.61l-2.602-.756c-6.374-1.722-12.723-3.47-19.123-5.218a7.957 7.957 0 0 1-3.851-2.244c-4.553-4.67-9.185-9.262-13.79-13.853-.676-.679-1.379-1.279-2.602-2.453a20.585 20.585 0 0 1-1.847 2.61c-4.58 4.643-9.21 9.235-13.79 13.879a7.124 7.124 0 0 1-3.408 1.957c-6.557 1.722-13.01 3.496-19.644 5.218-.755.208-1.457.495-2.316.809.26 1.07.443 1.93.677 2.791 1.69 6.392 3.434 12.784 5.047 19.176.156.657.226 1.45.21 2.12 15.151 0 57.139.034 71.016 0zm18.07-65.231c-2.108-.522-3.955-1.148-5.854-1.435a20.802 20.802 0 0 1-13.686-7.827 56.91 56.91 0 0 0-4.241-4.384l9.757-9.731a2.21 2.21 0 0 1 .936-.496l13.01-3.522c.936 3.366 1.69 6.575 2.602 9.706a12.503 12.503 0 0 1 0 8.087 344.731 344.731 0 0 1-2.524 9.602zm-1.743-24.551l-10.408 2.87a1.638 1.638 0 0 0-.676.417l-7.468 7.462c1.561 1.565 3.045 2.87 4.267 4.357a13.625 13.625 0 0 0 8.56 4.931c1.9.34 3.747.887 5.803 1.409.962-3.548 1.847-6.81 2.601-10.07a2.119 2.119 0 0 0 0-1.044c-.806-3.314-1.743-6.653-2.68-10.332zm-81.23 10.775c-3.409 3.418-6.53 6.575-9.705 9.706a2.6 2.6 0 0 1-1.145.652L73.66 87.083a12.697 12.697 0 0 1-.78-1.748c-.937-3.444-1.874-6.888-2.733-10.436a5.546 5.546 0 0 1-.13-2.61c.963-3.913 2.03-7.826 3.07-11.662a7.08 7.08 0 0 1 .52-1.095c4.346 1.174 8.613 2.296 13.01 3.496a3.26 3.26 0 0 1 1.327.86l9.34 9.393zm-3.253-.13a37.006 37.006 0 0 1-4.058-3.627 15.134 15.134 0 0 0-9.653-5.61c-1.718-.26-3.383-.782-5.204-1.226-.937 3.47-1.795 6.653-2.602 9.836-.11.428-.11.877 0 1.305.859 3.34 1.795 6.679 2.758 10.305 3.59-.965 6.921-1.852 10.251-2.791a2.757 2.757 0 0 0 1.093-.73l7.415-7.462zm139.616 79.137s-20.008.02-27.026 0c-.086-1.719.163-2.875.747-4.52.989-2.948 1.665-6 2.602-9.262 4.553 1.226 8.924 2.4 13.27 3.627.49.199.927.512 1.274.913l9.133 9.242zm-3.435 0l-7.05-6.946a3.382 3.382 0 0 0-1.302-.887c-3.33-.94-6.66-1.827-10.225-2.792-.963 3.6-1.873 7.26-2.732 10.625 7.339.021 13.539-.07 21.31 0zM43.79 138.558l3.512 13.73c-12.189.04-27.293 0-27.293 0 3.252-3.26 6.322-6.398 9.419-9.451a3.9 3.9 0 0 1 1.613-.861c4.163-1.2 8.3-2.218 12.749-3.418zm.858 13.73c-.884-3.365-1.795-7.129-2.732-10.703-3.564.965-6.92 1.852-10.25 2.791-.417.156-.79.406-1.094.73l-7.233 7.182c8.367.069 13.92.003 21.31 0z"/><path d="M235.572 57.288c4.527-1.226 8.716-2.479 13.01-3.47a10.401 10.401 0 0 0 5.385-3.157c2.394-2.609 4.892-4.957 7.363-7.41.625-.626 1.154-1.464 1.96-2.221-.002 6.665 0 52.677 0 64.55-.832-.679-1.075-1.174-1.543-1.67-2.862-2.843-5.698-5.66-8.508-8.557a7.619 7.619 0 0 0-3.825-2.244c-3.799-.913-7.571-2.008-11.37-3.052-.755-.209-1.483-.496-2.446-.783.937-3.574 1.665-7.044 2.784-10.436a16.14 16.14 0 0 0 0-10.932c-1.119-3.339-1.691-6.835-2.81-10.618zm19.15-3.966a8.244 8.244 0 0 1-4.267 2.61c-3.305.756-6.557 1.721-9.81 2.608-.65.183-1.274.496-2.003.783.989 3.809 1.874 7.462 2.94 11.036a10.123 10.123 0 0 1 0 6.262c-.962 3.078-1.69 6.209-2.601 9.314a17.7 17.7 0 0 0-.26 1.878c3.772 1.018 7.337 2.087 10.98 2.922a10.141 10.141 0 0 1 5.385 3.157c2.108 2.296 4.397 4.462 6.609 6.653.494.47.893 1.005 1.595 1.579.027-9.59.026-46.554 0-57.65-3.044 3.105-5.862 5.978-8.568 8.848zM99.183 136.419c.755-.261 1.405-.522 2.056-.705 3.954-1.07 7.805-2.165 11.864-3.183a6.994 6.994 0 0 0 3.408-1.956c3.279-3.392 6.635-6.732 10.122-10.201.65.521 1.223.913 1.717 1.382 2.914 2.896 5.828 5.792 8.69 8.74a7.333 7.333 0 0 0 3.617 2.088c3.98.991 7.805 2.113 11.89 3.183.599.156 1.145.391 1.977.678-.78 3-1.326 5.975-2.367 8.792a19.313 19.313 0 0 0-1.31 7.051c-11.134.008-37.674 0-47.916 0 .029-.672-.032-1.173-.183-1.833-.911-3.809-2.004-7.618-2.992-11.401-.157-.887-.339-1.618-.573-2.635zm48.889 15.87c.327-2.923 1-5.802 2.003-8.565.469-1.878.963-3.73 1.483-5.792-3.096-.835-5.88-1.774-8.742-2.322a15.6 15.6 0 0 1-9.497-5.27c-1.925-2.296-4.215-4.279-6.478-6.549-2.238 2.218-4.397 4.07-6.193 6.236a16.434 16.434 0 0 1-10.12 5.844c-2.759.496-5.465 1.461-8.405 2.27 1.041 3.94 1.926 7.644 3.018 11.297.309.972.456 1.843.444 2.85 11.352.002 34.385.046 42.487 0z"/><path d="M263.29 86.17a14.472 14.472 0 0 0-10.858-6.393 31.748 31.748 0 0 0 1.405-6.496 28.27 28.27 0 0 0-1.379-6.183 30.097 30.097 0 0 0 6.088-1.983 28.713 28.713 0 0 0 4.744-4.279s.026 18.212 0 25.333zm0-21.78c-1.864 2.539-4.85 4.036-7.97 4.43a11.744 11.744 0 0 1 0 9.105c3.259.28 6.146 2.026 7.97 4.748V64.391zm-136.787 75.186a35.26 35.26 0 0 0 5.203 4.644c1.97.866 4.03 1.514 6.14 1.93a13.834 13.834 0 0 0-1.415 6.138H117.3c-.013-2.156-.51-4.133-1.49-6.111 4.345-1.018 8.326-2.296 10.694-6.601zm7.35 12.712a12.57 12.57 0 0 1 .767-4.833c-3.616.209-5.62-2.061-7.805-4.2a11 11 0 0 1-7.806 4.513c.553 1.398.837 3.043.854 4.52h13.99z"/></g></svg>