<svg width="222" height="168" viewBox="0 0 222 168" xmlns="http://www.w3.org/2000/svg"><title>material-paints</title><path d="M57.769 99.429c-4.91-.028-8.872-4.03-8.854-8.948.018-4.916 4.009-8.89 8.92-8.88 4.91.008 8.886 3.997 8.887 8.913a8.945 8.945 0 0 1-2.633 6.314 8.922 8.922 0 0 1-6.32 2.6m32.769.001c-4.911-.028-8.872-4.03-8.854-8.948.018-4.916 4.009-8.89 8.92-8.88 4.91.008 8.886 3.997 8.886 8.913a8.945 8.945 0 0 1-2.632 6.314 8.922 8.922 0 0 1-6.32 2.6m32.768.001c-4.91-.028-8.871-4.03-8.853-8.948.018-4.916 4.009-8.89 8.92-8.88 4.91.008 8.886 3.997 8.886 8.913a8.945 8.945 0 0 1-2.632 6.314 8.922 8.922 0 0 1-6.32 2.6m32.768.001c-4.91-.028-8.872-4.03-8.853-8.948.018-4.916 4.008-8.89 8.92-8.88 4.91.008 8.886 3.997 8.886 8.913a8.945 8.945 0 0 1-2.632 6.314 8.922 8.922 0 0 1-6.32 2.6m65.604.001c-4.91-.028-8.939-4.03-8.92-8.948.017-4.916 4.008-8.89 8.919-8.88m-65.604-37.172c-4.91-.028-8.872-4.03-8.853-8.948.018-4.916 4.008-8.89 8.92-8.88 4.91.008 8.886 3.997 8.886 8.913a8.945 8.945 0 0 1-2.632 6.314 8.922 8.922 0 0 1-6.32 2.6m32.768.001c-4.91-.028-8.872-4.03-8.854-8.948.019-4.916 4.01-8.89 8.92-8.88 4.91.008 8.887 3.997 8.887 8.913a8.945 8.945 0 0 1-2.633 6.314 8.922 8.922 0 0 1-6.32 2.6m32.836.001c-4.91-.028-8.939-4.03-8.92-8.948.017-4.916 4.008-8.89 8.919-8.88M206.774.253c4.914.028 8.877 4.036 8.854 8.956-.023 4.92-4.022 8.89-8.936 8.873-4.914-.018-8.884-4.02-8.87-8.94a8.945 8.945 0 0 1 2.632-6.313 8.922 8.922 0 0 1 6.32-2.6m-98.306 52.668c4.91.027 8.872 4.03 8.853 8.947-.018 4.917-4.008 8.89-8.92 8.882-4.91-.01-8.886-3.998-8.886-8.915a8.945 8.945 0 0 1 2.632-6.313 8.922 8.922 0 0 1 6.32-2.6m32.77-.001c4.91.027 8.871 4.03 8.853 8.947-.018 4.917-4.009 8.89-8.92 8.882-4.91-.01-8.886-3.998-8.886-8.915a8.945 8.945 0 0 1 2.632-6.313 8.922 8.922 0 0 1 6.32-2.6m32.769-.001c4.911.027 8.872 4.03 8.854 8.947-.018 4.917-4.009 8.89-8.92 8.882-4.91-.01-8.886-3.998-8.886-8.915a8.945 8.945 0 0 1 2.632-6.313 8.922 8.922 0 0 1 6.32-2.6m32.769-.001c4.91.027 8.872 4.03 8.854 8.947-.018 4.917-4.009 8.89-8.92 8.882-4.91-.01-8.886-3.998-8.886-8.915a8.945 8.945 0 0 1 2.632-6.313 8.922 8.922 0 0 1 6.32-2.6M57.769 149.691c-4.91-.027-8.872-4.03-8.854-8.947.018-4.916 4.009-8.89 8.92-8.881 4.91.01 8.886 3.997 8.887 8.914a8.945 8.945 0 0 1-2.633 6.314 8.922 8.922 0 0 1-6.32 2.6m32.769 0c-4.911-.027-8.872-4.03-8.854-8.947.018-4.916 4.009-8.89 8.92-8.881 4.91.01 8.886 3.997 8.886 8.914a8.945 8.945 0 0 1-2.632 6.314 8.922 8.922 0 0 1-6.32 2.6m32.768 0c-4.91-.027-8.871-4.03-8.853-8.947.018-4.916 4.009-8.89 8.92-8.881 4.91.01 8.886 3.997 8.886 8.914a8.945 8.945 0 0 1-2.632 6.314 8.922 8.922 0 0 1-6.32 2.6m32.768 0c-4.91-.027-8.872-4.03-8.853-8.947.018-4.916 4.008-8.89 8.92-8.881 4.91.01 8.886 3.997 8.886 8.914a8.945 8.945 0 0 1-2.632 6.314 8.922 8.922 0 0 1-6.32 2.6m32.768 0c-4.91-.027-8.872-4.03-8.854-8.947.019-4.916 4.01-8.89 8.92-8.881 4.91.01 8.887 3.997 8.887 8.914a8.945 8.945 0 0 1-2.633 6.314 8.922 8.922 0 0 1-6.32 2.6m32.769 0c-4.91-.027-8.872-4.03-8.854-8.947.018-4.916 4.01-8.89 8.92-8.881M66.746 167.099a8.945 8.945 0 0 1 2.633-6.314 8.922 8.922 0 0 1 6.32-2.6c4.91.027 8.872 3.998 8.854 8.915m14.962-.001a8.945 8.945 0 0 1 2.632-6.314 8.922 8.922 0 0 1 6.32-2.6c4.911.027 8.873 3.998 8.854 8.915m47.732-.001a8.945 8.945 0 0 1 2.632-6.314 8.922 8.922 0 0 1 6.32-2.6c4.911.027 8.872 3.998 8.854 8.915m14.963-.001a8.945 8.945 0 0 1 2.632-6.314 8.922 8.922 0 0 1 6.32-2.6c4.91.027 8.872 3.998 8.854 8.915M75.699 123.37c-4.91-.028-8.872-4.03-8.854-8.948.018-4.916 4.01-8.89 8.92-8.88 4.91.008 8.887 3.996 8.887 8.913a8.945 8.945 0 0 1-2.633 6.314 8.922 8.922 0 0 1-6.32 2.6m65.538.001c-4.911-.028-8.872-4.03-8.854-8.948.018-4.916 4.009-8.89 8.92-8.88 4.91.008 8.886 3.996 8.886 8.913a8.945 8.945 0 0 1-2.632 6.314 8.922 8.922 0 0 1-6.32 2.6m32.768.001c-4.91-.028-8.871-4.03-8.853-8.948.018-4.916 4.009-8.89 8.92-8.88 4.91.008 8.886 3.996 8.886 8.913a8.945 8.945 0 0 1-2.632 6.314 8.922 8.922 0 0 1-6.32 2.6m32.768.001c-4.91-.028-8.872-4.03-8.854-8.948.019-4.916 4.01-8.89 8.92-8.88 4.91.008 8.887 3.996 8.887 8.913a8.945 8.945 0 0 1-2.633 6.314 8.922 8.922 0 0 1-6.32 2.6M24.613 149.691c-4.91-.027-8.872-4.03-8.854-8.947.018-4.916 4.01-8.89 8.92-8.881 4.91.01 8.887 3.997 8.887 8.914a8.945 8.945 0 0 1-2.633 6.314 8.922 8.922 0 0 1-6.32 2.6M.822 167.099a8.945 8.945 0 0 1 2.632-6.314 8.922 8.922 0 0 1 6.32-2.6c4.91.027 8.872 3.998 8.854 8.915m14.962-.001a8.964 8.964 0 0 1 5.493-8.317 8.945 8.945 0 0 1 9.773 1.912c1.754 1.746 2.672 4.022 2.639 6.406" fill="#FC9705"/></svg>