<svg width="201" height="180" viewBox="0 0 201 180" xmlns="http://www.w3.org/2000/svg"><title>material-films</title><g fill="#00769A"><path d="M138.814 38.297l12.088-7.238V.339H100.49v29.409l-25.3 15.365h2.39l11.38-6.816 12.094-7.238 12.088 7.238 11.38 6.816h2.907l11.386-6.816zm11.34-8.532l-12.088 7.239-11.34 6.79V15.686l23.429-14.03v28.11zm-24.92 14.03l-11.345-6.791-12.089-7.239V1.657l23.43 14.029.005 28.108zM102.509.337h46.939l-23.47 14.055L102.508.338zm97.453.001h-49.06v30.72l12.089 7.24 11.38 6.815h2.907l11.38-6.816 11.304-7.238V.339zM175.08 43.794l-11.34-6.79-12.089-7.239V1.657l23.43 14.029v28.108zM152.358.338h46.938l-23.469 14.055L152.357.338zm47.646 29.427l-12.088 7.239-11.341 6.79V15.686l23.43-14.03v28.11zm-49.102 149.646v-30.695l-23.469-14.054 23.47-14.055v-61.44l-23.47-14.054h-2.906l-23.474 14.054-23.47-14.054h-1.878v29.196L50.522 89.523v29.957L25.71 134.15v29.801L.509 179.411h150.393zm-.747-29.402v28.109l-11.341-6.791-12.089-7.239V135.98l23.43 14.03zm0-30.695l-12.089 7.239-11.34 6.79v-28.108l23.429-14.03v28.109zm-23.43-72.883l23.43 14.03v28.108l-11.341-6.79-12.089-7.24V46.432zm11.341 36.64l11.38 6.816-23.469 14.054-23.469-14.054 11.38-6.815 12.09-7.239 12.088 7.239zM101.8 60.462l23.43-14.03V74.54l-12.089 7.238-11.34 6.79V60.46zm0 30.745l23.43 14.029v28.108l-11.341-6.79-12.089-7.239V91.206zM76.876 46.43l23.429 14.03v28.108l-11.34-6.79-12.09-7.24V46.432zm11.34 36.64l11.381 6.816-23.47 14.054L52.66 89.887l11.38-6.815 12.089-7.239 12.088 7.239zm12.089 8.135v28.108l-12.089 7.239-11.34 6.79v-28.108l23.429-14.03zm-48.354 0l23.43 14.029v28.108l-11.342-6.79-12.088-7.239V91.206zm-49.142 88.23l11.38-6.816 12.09-7.238 12.088 7.238 11.38 6.816H2.81zm47.646-1.318l-11.34-6.791-12.09-7.239V135.98l23.43 14.03v28.108zm-22.721-43.456l23.469-14.055 23.474 14.055-23.474 14.054-23.47-14.054zm47.651 1.318v28.108l-12.093 7.239-11.341 6.79V150.01l23.434-14.029zM52.66 179.436l11.38-6.816 12.089-7.238 12.088 7.238 11.381 6.816H52.659zm47.646-1.318l-11.34-6.791-12.09-7.239V135.98l23.43 14.03v28.108zm-22.722-43.456l23.47-14.055 23.474 14.055-23.474 14.054-23.47-14.054zm47.652 1.318v28.108l-12.094 7.239-11.34 6.79V150.01l23.434-14.029zm-22.727 43.456l11.38-6.816 12.09-7.238 12.088 7.238 11.38 6.816h-46.938z"/><path d="M199.971 58.7l-22.688-13.587h-2.907l-23.474 14.054v61.44l23.474 14.055-23.474 14.054v30.722h49.07V58.7zm-23.396-12.27l23.43 14.03v28.108l-11.342-6.79-12.088-7.24V46.432zm11.34 36.64l11.381 6.816-23.469 14.054-23.47-14.054 11.382-6.815 12.088-7.239 12.089 7.239zm12.09 8.135v28.108l-12.09 7.239-11.34 6.79v-28.108l23.43-14.03zM151.65 60.46l23.43-14.029V74.54l-12.09 7.238-11.34 6.79V60.46zm12.089 66.093l-12.089-7.239V91.206l23.43 14.029v28.108l-11.341-6.79zm-12.089 23.456l23.43-14.029v28.108l-12.09 7.239-11.34 6.79V150.01zm.708 29.427l11.38-6.816 12.09-7.238 12.088 7.238 11.38 6.816h-46.938zm47.646-1.318l-11.34-6.791-12.09-7.239V135.98l23.43 14.03v28.108zm-22.721-43.456l22.72-13.495v27.144l-22.72-13.65z"/></g></svg>