<svg width="385" height="352" viewBox="0 0 385 352" xmlns="http://www.w3.org/2000/svg"><title>tech-digital-print</title><path d="M220.769 70.497c-4.91-.027-8.872-4.03-8.854-8.947.018-4.917 4.009-8.89 8.92-8.881 4.91.009 8.886 3.997 8.887 8.914a8.945 8.945 0 0 1-2.633 6.313 8.922 8.922 0 0 1-6.32 2.601m32.769 0c-4.911-.027-8.872-4.03-8.854-8.947.018-4.917 4.009-8.89 8.92-8.881 4.91.009 8.886 3.997 8.886 8.914a8.945 8.945 0 0 1-2.632 6.313 8.922 8.922 0 0 1-6.32 2.601m32.768 0c-4.91-.027-8.871-4.03-8.853-8.947.018-4.917 4.009-8.89 8.92-8.881 4.91.009 8.886 3.997 8.886 8.914a8.945 8.945 0 0 1-2.632 6.313 8.922 8.922 0 0 1-6.32 2.601m32.768 0c-4.91-.027-8.872-4.03-8.853-8.947.018-4.917 4.008-8.89 8.92-8.881 4.91.009 8.886 3.997 8.886 8.914a8.945 8.945 0 0 1-2.632 6.313 8.922 8.922 0 0 1-6.32 2.601m65.604 0c-4.91-.027-8.939-4.03-8.92-8.947.017-4.917 4.008-8.89 8.919-8.881m-65.604-34.816c-4.91-.027-8.872-4.03-8.853-8.947.018-4.917 4.008-8.89 8.92-8.881 4.91.009 8.886 3.997 8.886 8.914a8.945 8.945 0 0 1-2.632 6.314 8.922 8.922 0 0 1-6.32 2.6m32.768 0c-4.91-.027-8.872-4.03-8.854-8.947.019-4.917 4.01-8.89 8.92-8.881 4.91.009 8.887 3.997 8.887 8.914a8.945 8.945 0 0 1-2.633 6.314 8.922 8.922 0 0 1-6.32 2.6m-80.376 8.469c4.91.027 8.872 4.03 8.853 8.947-.018 4.917-4.008 8.89-8.92 8.881-4.91-.009-8.886-3.997-8.886-8.914a8.945 8.945 0 0 1 2.632-6.313 8.922 8.922 0 0 1 6.32-2.601m32.77 0c4.91.027 8.871 4.03 8.853 8.947-.018 4.917-4.009 8.89-8.92 8.881-4.91-.009-8.886-3.997-8.886-8.914a8.945 8.945 0 0 1 2.632-6.313 8.922 8.922 0 0 1 6.32-2.601m32.769 0c4.911.027 8.872 4.03 8.854 8.947-.018 4.917-4.009 8.89-8.92 8.881-4.91-.009-8.886-3.997-8.886-8.914a8.945 8.945 0 0 1 2.632-6.313 8.922 8.922 0 0 1 6.32-2.601m32.769 0c4.91.027 8.872 4.03 8.854 8.947-.018 4.917-4.009 8.89-8.92 8.881-4.91-.009-8.886-3.997-8.886-8.914a8.945 8.945 0 0 1 2.632-6.313 8.922 8.922 0 0 1 6.32-2.601M238.699 78.966c4.91.027 8.872 4.03 8.854 8.947-.019 4.917-4.01 8.89-8.92 8.881-4.91-.009-8.887-3.997-8.887-8.914a8.945 8.945 0 0 1 2.633-6.314 8.922 8.922 0 0 1 6.32-2.6m65.538 0c4.91.027 8.871 4.03 8.853 8.947-.018 4.917-4.009 8.89-8.92 8.881-4.91-.009-8.886-3.997-8.886-8.914a8.945 8.945 0 0 1 2.632-6.314 8.922 8.922 0 0 1 6.32-2.6m32.769 0c4.911.027 8.872 4.03 8.854 8.947-.018 4.917-4.009 8.89-8.92 8.881-4.91-.009-8.886-3.997-8.886-8.914a8.945 8.945 0 0 1 2.632-6.314 8.922 8.922 0 0 1 6.32-2.6m32.769 0c4.91.027 8.872 4.03 8.854 8.947-.018 4.917-4.009 8.89-8.92 8.881-4.91-.009-8.886-3.997-8.886-8.914a8.945 8.945 0 0 1 2.632-6.314 8.922 8.922 0 0 1 6.32-2.6M220.769 283.429c-4.91-.028-8.872-4.03-8.854-8.948.018-4.916 4.009-8.89 8.92-8.88 4.91.008 8.886 3.997 8.887 8.913a8.945 8.945 0 0 1-2.633 6.314 8.922 8.922 0 0 1-6.32 2.6m32.769.001c-4.911-.028-8.872-4.03-8.854-8.948.018-4.916 4.009-8.89 8.92-8.88 4.91.008 8.886 3.997 8.886 8.913a8.945 8.945 0 0 1-2.632 6.314 8.922 8.922 0 0 1-6.32 2.6m32.768.001c-4.91-.028-8.871-4.03-8.853-8.948.018-4.916 4.009-8.89 8.92-8.88 4.91.008 8.886 3.997 8.886 8.913a8.945 8.945 0 0 1-2.632 6.314 8.922 8.922 0 0 1-6.32 2.6m32.768.001c-4.91-.028-8.872-4.03-8.853-8.948.018-4.916 4.008-8.89 8.92-8.88 4.91.008 8.886 3.997 8.886 8.913a8.945 8.945 0 0 1-2.632 6.314 8.922 8.922 0 0 1-6.32 2.6m65.604.001c-4.91-.028-8.939-4.03-8.92-8.948.017-4.916 4.008-8.89 8.919-8.88m-163.91-142.172c-4.91-.028-8.872-4.03-8.854-8.948.018-4.916 4.009-8.89 8.92-8.88 4.91.008 8.886 3.997 8.887 8.913a8.945 8.945 0 0 1-2.633 6.314 8.922 8.922 0 0 1-6.32 2.6m32.769.001c-4.911-.028-8.872-4.03-8.854-8.948.018-4.916 4.009-8.89 8.92-8.88 4.91.008 8.886 3.997 8.886 8.913a8.945 8.945 0 0 1-2.632 6.314 8.922 8.922 0 0 1-6.32 2.6m32.768.001c-4.91-.028-8.871-4.03-8.853-8.948.018-4.916 4.009-8.89 8.92-8.88 4.91.008 8.886 3.997 8.886 8.913a8.945 8.945 0 0 1-2.632 6.314 8.922 8.922 0 0 1-6.32 2.6m32.768.001c-4.91-.028-8.872-4.03-8.853-8.948.018-4.916 4.008-8.89 8.92-8.88 4.91.008 8.886 3.997 8.886 8.913a8.945 8.945 0 0 1-2.632 6.314 8.922 8.922 0 0 1-6.32 2.6m32.768.001c-4.91-.028-8.872-4.03-8.854-8.948.019-4.916 4.01-8.89 8.92-8.88 4.91.008 8.887 3.997 8.887 8.913a8.945 8.945 0 0 1-2.633 6.314 8.922 8.922 0 0 1-6.32 2.6m32.769.001c-4.91-.028-8.872-4.03-8.854-8.948.018-4.916 4.01-8.89 8.92-8.88m-163.91 122.828c-4.91-.028-8.872-4.03-8.854-8.948.018-4.916 4.009-8.89 8.92-8.88 4.91.008 8.886 3.997 8.887 8.913a8.945 8.945 0 0 1-2.633 6.314 8.922 8.922 0 0 1-6.32 2.6m32.769.001c-4.911-.028-8.872-4.03-8.854-8.948.018-4.916 4.009-8.89 8.92-8.88 4.91.008 8.886 3.997 8.886 8.913a8.945 8.945 0 0 1-2.632 6.314 8.922 8.922 0 0 1-6.32 2.6m32.768.001c-4.91-.028-8.871-4.03-8.853-8.948.018-4.916 4.009-8.89 8.92-8.88 4.91.008 8.886 3.997 8.886 8.913a8.945 8.945 0 0 1-2.632 6.314 8.922 8.922 0 0 1-6.32 2.6m32.768.001c-4.91-.028-8.872-4.03-8.853-8.948.018-4.916 4.008-8.89 8.92-8.88 4.91.008 8.886 3.997 8.886 8.913a8.945 8.945 0 0 1-2.632 6.314 8.922 8.922 0 0 1-6.32 2.6m32.768.001c-4.91-.028-8.872-4.03-8.854-8.948.019-4.916 4.01-8.89 8.92-8.88 4.91.008 8.887 3.997 8.887 8.913a8.945 8.945 0 0 1-2.633 6.314 8.922 8.922 0 0 1-6.32 2.6m32.836.001c-4.91-.028-8.939-4.03-8.92-8.948.017-4.916 4.008-8.89 8.919-8.88m-163.91-34.791c-4.91-.028-8.872-4.03-8.854-8.948.018-4.916 4.009-8.89 8.92-8.88 4.91.008 8.886 3.996 8.887 8.913a8.945 8.945 0 0 1-2.633 6.314 8.922 8.922 0 0 1-6.32 2.6m32.769.001c-4.911-.028-8.872-4.03-8.854-8.948.018-4.916 4.009-8.89 8.92-8.88 4.91.008 8.886 3.996 8.886 8.913a8.945 8.945 0 0 1-2.632 6.314 8.922 8.922 0 0 1-6.32 2.6m32.768.001c-4.91-.028-8.871-4.03-8.853-8.948.018-4.916 4.009-8.89 8.92-8.88 4.91.008 8.886 3.996 8.886 8.913a8.945 8.945 0 0 1-2.632 6.314 8.922 8.922 0 0 1-6.32 2.6m32.768.001c-4.91-.028-8.872-4.03-8.853-8.948.018-4.916 4.008-8.89 8.92-8.88 4.91.008 8.886 3.996 8.886 8.913a8.945 8.945 0 0 1-2.632 6.314 8.922 8.922 0 0 1-6.32 2.6m65.604.001c-4.91-.028-8.939-4.03-8.92-8.948.017-4.916 4.008-8.89 8.919-8.88m-145.98 26.271c4.914.028 8.876 4.036 8.854 8.956-.023 4.92-4.023 8.89-8.936 8.873-4.914-.018-8.884-4.02-8.87-8.94a8.945 8.945 0 0 1 2.632-6.313 8.922 8.922 0 0 1 6.32-2.6m65.538.024c4.913.028 8.876 4.036 8.853 8.956-.023 4.92-4.022 8.89-8.936 8.873-4.914-.018-8.884-4.02-8.87-8.94.027-4.926 4.031-8.902 8.953-8.889m32.768 0c4.914.028 8.877 4.036 8.854 8.956-.023 4.92-4.022 8.89-8.936 8.873-4.914-.018-8.884-4.02-8.87-8.94a8.945 8.945 0 0 1 2.632-6.313 8.922 8.922 0 0 1 6.32-2.6m32.769.024c4.914.028 8.877 4.036 8.854 8.956-.023 4.92-4.022 8.89-8.936 8.873-4.914-.018-8.884-4.02-8.87-8.94a8.945 8.945 0 0 1 2.632-6.313 8.922 8.922 0 0 1 6.32-2.6m-98.306 52.668c4.91.027 8.872 4.03 8.853 8.947-.018 4.917-4.008 8.89-8.92 8.882-4.91-.01-8.886-3.998-8.886-8.915a8.945 8.945 0 0 1 2.632-6.313 8.922 8.922 0 0 1 6.32-2.6m32.77-.001c4.91.027 8.871 4.03 8.853 8.947-.018 4.917-4.009 8.89-8.92 8.882-4.91-.01-8.886-3.998-8.886-8.915a8.945 8.945 0 0 1 2.632-6.313 8.922 8.922 0 0 1 6.32-2.6m32.769-.001c4.911.027 8.872 4.03 8.854 8.947-.018 4.917-4.009 8.89-8.92 8.882-4.91-.01-8.886-3.998-8.886-8.915a8.945 8.945 0 0 1 2.632-6.313 8.922 8.922 0 0 1 6.32-2.6m32.769-.001c4.91.027 8.872 4.03 8.854 8.947-.018 4.917-4.009 8.89-8.92 8.882-4.91-.01-8.886-3.998-8.886-8.915a8.945 8.945 0 0 1 2.632-6.313 8.922 8.922 0 0 1 6.32-2.6m-131.075-87.435c-4.91-.027-8.872-4.03-8.854-8.947.018-4.917 4.01-8.89 8.92-8.882 4.91.01 8.887 3.998 8.887 8.915a8.945 8.945 0 0 1-2.633 6.313 8.922 8.922 0 0 1-6.32 2.6m32.769.001c-4.91-.027-8.872-4.03-8.854-8.947.018-4.917 4.009-8.89 8.92-8.882 4.91.01 8.886 3.998 8.886 8.915a8.945 8.945 0 0 1-2.632 6.313 8.922 8.922 0 0 1-6.32 2.6m32.769.001c-4.911-.027-8.872-4.03-8.854-8.947.018-4.917 4.009-8.89 8.92-8.882 4.91.01 8.886 3.998 8.886 8.915a8.945 8.945 0 0 1-2.632 6.313 8.922 8.922 0 0 1-6.32 2.6m32.768.001c-4.91-.027-8.871-4.03-8.853-8.947.018-4.917 4.009-8.89 8.92-8.882 4.91.01 8.886 3.998 8.886 8.915a8.945 8.945 0 0 1-2.632 6.313 8.922 8.922 0 0 1-6.32 2.6m32.768.001c-4.91-.027-8.872-4.03-8.854-8.947.019-4.917 4.01-8.89 8.92-8.882 4.91.01 8.887 3.998 8.887 8.915a8.945 8.945 0 0 1-2.633 6.313 8.922 8.922 0 0 1-6.32 2.6M220.769 333.691c-4.91-.027-8.872-4.03-8.854-8.947.018-4.916 4.009-8.89 8.92-8.881 4.91.01 8.886 3.997 8.887 8.914a8.945 8.945 0 0 1-2.633 6.314 8.922 8.922 0 0 1-6.32 2.6m32.769 0c-4.911-.027-8.872-4.03-8.854-8.947.018-4.916 4.009-8.89 8.92-8.881 4.91.01 8.886 3.997 8.886 8.914a8.945 8.945 0 0 1-2.632 6.314 8.922 8.922 0 0 1-6.32 2.6m32.768 0c-4.91-.027-8.871-4.03-8.853-8.947.018-4.916 4.009-8.89 8.92-8.881 4.91.01 8.886 3.997 8.886 8.914a8.945 8.945 0 0 1-2.632 6.314 8.922 8.922 0 0 1-6.32 2.6m32.768 0c-4.91-.027-8.872-4.03-8.853-8.947.018-4.916 4.008-8.89 8.92-8.881 4.91.01 8.886 3.997 8.886 8.914a8.945 8.945 0 0 1-2.632 6.314 8.922 8.922 0 0 1-6.32 2.6m32.768 0c-4.91-.027-8.872-4.03-8.854-8.947.019-4.916 4.01-8.89 8.92-8.881 4.91.01 8.887 3.997 8.887 8.914a8.945 8.945 0 0 1-2.633 6.314 8.922 8.922 0 0 1-6.32 2.6m32.769 0c-4.91-.027-8.872-4.03-8.854-8.947.018-4.916 4.01-8.89 8.92-8.881m-154.933 35.236a8.945 8.945 0 0 1 2.633-6.314 8.922 8.922 0 0 1 6.32-2.6c4.91.027 8.872 3.998 8.854 8.915m14.962-.001a8.945 8.945 0 0 1 2.632-6.314 8.922 8.922 0 0 1 6.32-2.6c4.911.027 8.873 3.998 8.854 8.915m47.732-.001a8.945 8.945 0 0 1 2.632-6.314 8.922 8.922 0 0 1 6.32-2.6c4.911.027 8.872 3.998 8.854 8.915m14.963-.001a8.945 8.945 0 0 1 2.632-6.314 8.922 8.922 0 0 1 6.32-2.6c4.91.027 8.872 3.998 8.854 8.915m-139.929-43.73c-4.91-.028-8.872-4.03-8.854-8.948.018-4.916 4.01-8.89 8.92-8.88 4.91.008 8.887 3.996 8.887 8.913a8.945 8.945 0 0 1-2.633 6.314 8.922 8.922 0 0 1-6.32 2.6m65.538.001c-4.911-.028-8.872-4.03-8.854-8.948.018-4.916 4.009-8.89 8.92-8.88 4.91.008 8.886 3.996 8.886 8.913a8.945 8.945 0 0 1-2.632 6.314 8.922 8.922 0 0 1-6.32 2.6m32.768.001c-4.91-.028-8.871-4.03-8.853-8.948.018-4.916 4.009-8.89 8.92-8.88 4.91.008 8.886 3.996 8.886 8.913a8.945 8.945 0 0 1-2.632 6.314 8.922 8.922 0 0 1-6.32 2.6m32.768.001c-4.91-.028-8.872-4.03-8.854-8.948.019-4.916 4.01-8.89 8.92-8.88 4.91.008 8.887 3.996 8.887 8.913a8.945 8.945 0 0 1-2.633 6.314 8.922 8.922 0 0 1-6.32 2.6M205.543 96.794c-4.91-.027-8.872-4.03-8.854-8.947.018-4.917 4.01-8.89 8.92-8.881 4.91.009 8.887 3.997 8.887 8.914a8.945 8.945 0 0 1-2.633 6.314 8.922 8.922 0 0 1-6.32 2.6M56.538 283.429c-4.911-.028-8.872-4.03-8.854-8.948.018-4.916 4.009-8.89 8.92-8.88 4.91.008 8.886 3.997 8.886 8.913a8.945 8.945 0 0 1-2.632 6.314 8.922 8.922 0 0 1-6.32 2.6m32.768.001c-4.91-.028-8.871-4.03-8.853-8.948.018-4.916 4.009-8.89 8.92-8.88 4.91.008 8.886 3.997 8.886 8.913a8.945 8.945 0 0 1-2.632 6.314 8.922 8.922 0 0 1-6.32 2.6m32.768.001c-4.91-.028-8.872-4.03-8.853-8.948.018-4.916 4.008-8.89 8.92-8.88 4.91.008 8.886 3.997 8.886 8.913a8.945 8.945 0 0 1-2.632 6.314 8.922 8.922 0 0 1-6.32 2.6m32.768.001c-4.91-.028-8.872-4.03-8.854-8.948.019-4.916 4.01-8.89 8.92-8.88 4.91.008 8.887 3.997 8.887 8.913a8.945 8.945 0 0 1-2.633 6.314 8.922 8.922 0 0 1-6.32 2.6m0-159.999c-4.91-.028-8.872-4.03-8.854-8.948.019-4.916 4.01-8.89 8.92-8.88 4.91.008 8.887 3.997 8.887 8.913a8.945 8.945 0 0 1-2.633 6.314 8.922 8.922 0 0 1-6.32 2.6m32.769.001c-4.91-.028-8.872-4.03-8.854-8.948.018-4.916 4.01-8.89 8.92-8.88 4.91.008 8.887 3.997 8.887 8.913a8.945 8.945 0 0 1-2.633 6.314 8.922 8.922 0 0 1-6.32 2.6M89.306 228.429c-4.91-.028-8.871-4.03-8.853-8.948.018-4.916 4.009-8.89 8.92-8.88 4.91.008 8.886 3.997 8.886 8.913a8.945 8.945 0 0 1-2.632 6.314 8.922 8.922 0 0 1-6.32 2.6m32.768.001c-4.91-.028-8.872-4.03-8.853-8.948.018-4.916 4.008-8.89 8.92-8.88 4.91.008 8.886 3.997 8.886 8.913a8.945 8.945 0 0 1-2.632 6.314 8.922 8.922 0 0 1-6.32 2.6m32.768.001c-4.91-.028-8.872-4.03-8.854-8.948.019-4.916 4.01-8.89 8.92-8.88 4.91.008 8.887 3.997 8.887 8.913a8.945 8.945 0 0 1-2.633 6.314 8.922 8.922 0 0 1-6.32 2.6m32.769.001c-4.91-.028-8.872-4.03-8.854-8.948.018-4.916 4.01-8.89 8.92-8.88 4.91.008 8.887 3.997 8.887 8.913a8.945 8.945 0 0 1-2.633 6.314 8.922 8.922 0 0 1-6.32 2.6m-32.769-52.618c-4.91-.028-8.872-4.03-8.854-8.948.019-4.916 4.01-8.89 8.92-8.88 4.91.008 8.887 3.996 8.887 8.913a8.945 8.945 0 0 1-2.633 6.314 8.922 8.922 0 0 1-6.32 2.6m32.769.001c-4.91-.028-8.872-4.03-8.854-8.948.018-4.916 4.01-8.89 8.92-8.88 4.91.008 8.887 3.996 8.887 8.913a8.945 8.945 0 0 1-2.633 6.314 8.922 8.922 0 0 1-6.32 2.6m-80.376 8.444c4.913.028 8.876 4.036 8.853 8.956-.023 4.92-4.022 8.89-8.936 8.873-4.914-.018-8.884-4.02-8.87-8.94.027-4.926 4.031-8.902 8.953-8.889m32.768 0c4.914.028 8.877 4.036 8.854 8.956-.023 4.92-4.022 8.89-8.936 8.873-4.914-.018-8.884-4.02-8.87-8.94a8.945 8.945 0 0 1 2.632-6.313 8.922 8.922 0 0 1 6.32-2.6m32.769.024c4.914.028 8.877 4.036 8.854 8.956-.023 4.92-4.022 8.89-8.936 8.873-4.914-.018-8.884-4.02-8.87-8.94a8.945 8.945 0 0 1 2.632-6.313 8.922 8.922 0 0 1 6.32-2.6m23.816 8.914a8.964 8.964 0 0 1 5.493-8.317 8.945 8.945 0 0 1 9.773 1.911 8.972 8.972 0 0 1 1.963 9.775 8.953 8.953 0 0 1-8.276 5.545 8.922 8.922 0 0 1-6.32-2.6 8.945 8.945 0 0 1-2.633-6.314m-89.353 43.754c4.91.027 8.871 4.03 8.853 8.947-.018 4.917-4.009 8.89-8.92 8.882-4.91-.01-8.886-3.998-8.886-8.915a8.945 8.945 0 0 1 2.632-6.313 8.922 8.922 0 0 1 6.32-2.6m32.769-.001c4.911.027 8.872 4.03 8.854 8.947-.018 4.917-4.009 8.89-8.92 8.882-4.91-.01-8.886-3.998-8.886-8.915a8.945 8.945 0 0 1 2.632-6.313 8.922 8.922 0 0 1 6.32-2.6m32.769-.001c4.91.027 8.872 4.03 8.854 8.947-.018 4.917-4.009 8.89-8.92 8.882-4.91-.01-8.886-3.998-8.886-8.915a8.945 8.945 0 0 1 2.632-6.313 8.922 8.922 0 0 1 6.32-2.6m32.769 17.828c-4.91-.028-8.872-4.03-8.854-8.947.018-4.917 4.01-8.89 8.92-8.882 4.91.01 8.887 3.998 8.887 8.914a8.945 8.945 0 0 1-2.633 6.314 8.922 8.922 0 0 1-6.32 2.6m-65.538-105.262c-4.91-.027-8.871-4.03-8.853-8.947.018-4.917 4.009-8.89 8.92-8.882 4.91.01 8.886 3.998 8.886 8.915a8.945 8.945 0 0 1-2.632 6.313 8.922 8.922 0 0 1-6.32 2.6m32.768.001c-4.91-.027-8.872-4.03-8.854-8.947.019-4.917 4.01-8.89 8.92-8.882 4.91.01 8.887 3.998 8.887 8.915a8.945 8.945 0 0 1-2.633 6.313 8.922 8.922 0 0 1-6.32 2.6M23.769 333.691c-4.91-.027-8.872-4.03-8.854-8.947.018-4.916 4.009-8.89 8.92-8.881 4.91.01 8.886 3.997 8.887 8.914a8.945 8.945 0 0 1-2.633 6.314 8.922 8.922 0 0 1-6.32 2.6m32.769 0c-4.911-.027-8.872-4.03-8.854-8.947.018-4.916 4.009-8.89 8.92-8.881 4.91.01 8.886 3.997 8.886 8.914a8.945 8.945 0 0 1-2.632 6.314 8.922 8.922 0 0 1-6.32 2.6m32.768 0c-4.91-.027-8.871-4.03-8.853-8.947.018-4.916 4.009-8.89 8.92-8.881 4.91.01 8.886 3.997 8.886 8.914a8.945 8.945 0 0 1-2.632 6.314 8.922 8.922 0 0 1-6.32 2.6m32.768 0c-4.91-.027-8.872-4.03-8.853-8.947.018-4.916 4.008-8.89 8.92-8.881 4.91.01 8.886 3.997 8.886 8.914a8.945 8.945 0 0 1-2.632 6.314 8.922 8.922 0 0 1-6.32 2.6m32.768 0c-4.91-.027-8.872-4.03-8.854-8.947.019-4.916 4.01-8.89 8.92-8.881 4.91.01 8.887 3.997 8.887 8.914a8.945 8.945 0 0 1-2.633 6.314 8.922 8.922 0 0 1-6.32 2.6m32.769 0c-4.91-.027-8.872-4.03-8.854-8.947.018-4.916 4.01-8.89 8.92-8.881 4.91.01 8.887 3.997 8.887 8.914a8.945 8.945 0 0 1-2.633 6.314 8.922 8.922 0 0 1-6.32 2.6M-.023 351.099a8.945 8.945 0 0 1 2.633-6.314 8.922 8.922 0 0 1 6.32-2.6c4.91.027 8.872 3.998 8.854 8.915m14.962-.001a8.945 8.945 0 0 1 2.633-6.314 8.922 8.922 0 0 1 6.32-2.6c4.91.027 8.872 3.998 8.854 8.915m14.962-.001a8.945 8.945 0 0 1 2.632-6.314 8.922 8.922 0 0 1 6.32-2.6c4.911.027 8.873 3.998 8.854 8.915m14.963-.001a8.945 8.945 0 0 1 2.632-6.314 8.922 8.922 0 0 1 6.32-2.6c4.911.027 8.872 3.998 8.854 8.915m47.732-.001a8.945 8.945 0 0 1 2.632-6.314 8.922 8.922 0 0 1 6.32-2.6c4.91.027 8.872 3.998 8.854 8.915m14.962-.001a8.964 8.964 0 0 1 5.493-8.317 8.945 8.945 0 0 1 9.773 1.912c1.754 1.746 2.672 4.022 2.639 6.406M74.468 307.37c-4.91-.028-8.872-4.03-8.854-8.948.018-4.916 4.009-8.89 8.92-8.88 4.91.008 8.886 3.996 8.886 8.913a8.945 8.945 0 0 1-2.632 6.314 8.922 8.922 0 0 1-6.32 2.6m65.537.001c-4.91-.028-8.871-4.03-8.853-8.948.018-4.916 4.009-8.89 8.92-8.88 4.91.008 8.886 3.996 8.886 8.913a8.945 8.945 0 0 1-2.632 6.314 8.922 8.922 0 0 1-6.32 2.6m32.768.001c-4.91-.028-8.872-4.03-8.854-8.948.019-4.916 4.01-8.89 8.92-8.88 4.91.008 8.887 3.996 8.887 8.913a8.945 8.945 0 0 1-2.633 6.314 8.922 8.922 0 0 1-6.32 2.6m23.816-8.914a8.964 8.964 0 0 1 5.493-8.316 8.945 8.945 0 0 1 9.773 1.91 8.972 8.972 0 0 1 1.963 9.775 8.953 8.953 0 0 1-8.276 5.546 8.922 8.922 0 0 1-6.32-2.601 8.945 8.945 0 0 1-2.633-6.314" fill="#00769A"/></svg>