<svg width="235" height="237" viewBox="0 0 235 237" xmlns="http://www.w3.org/2000/svg"><title>tech-offset</title><g fill="#C12762"><path d="M154.948.5v59h3.31V.5m3.336 0v59h3.336V.5m3.335 0v59h3.31V.5m3.563 0v59h6.191V30h3.133v29.5h3.31V30h3.336v29.5h3.462V30h3.335v29.5h3.336V30h3.436v29.5h29.312v-2.838h-26.355v-3.65h26.456v-3.295h-26.456v-3.193h26.456V43.23h-26.456v-3.32h26.456v-3.294h-26.456v-3.32h26.456v-6.133h-56.172v-3.549h56.172V20.32h-56.172v-3.295h56.172V13.73h-56.172v-3.32h56.172V7.115h-56.172v-3.32h56.172V.5h-56.172m-65.8 183.049v-6.374h-3.336v29.441h3.336zm-6.671 0v-6.374h-3.31v29.441h3.31zm-6.646 0v-6.374h-3.335v29.441H98.8z"/><path d="M29.362 229.683H88.82v3.542H29.362v-3.542zm0-6.601H88.82v3.313H29.362v-3.313zm0-6.601H88.82v3.288H29.362v-3.288zm0-3.516v-3.086H88.82v3.313H29.362v-.227zm-26.406 20.08v-26.429h3.336v29.636H2.956v-3.208zm6.646 0v-26.429h3.336v29.636H9.602v-3.208zm6.646 0v-26.429h3.36v29.636h-3.36v-3.208zm6.67 0v-26.429h3.564v29.636h-3.563v-3.208zm29.742-55.82H0v3.289h59.078v3.313H0v3.288h59.078v3.314H0v3.288h59.078v3.313H0v3.288h59.078v3.541H0v32.198h118.561v-29.44h-2.88v29.44h-3.563v-29.44h-3.336v29.44h-3.335v-29.44h-3.31v29.44H98.8v-29.44h-3.335v29.44H92.13v-58.831h-6.216v29.44h-3.512v-29.44h-3.336v29.44h-3.26v-29.44h-3.41v29.44H69.06v-29.44h-3.361v29.44h-3.285v-29.44H52.66z"/><path d="M115.68 177.175v29.441h2.856v-29.441z"/><path d="M29.362 111.919H88.82v3.54H29.362v-3.54zm0-6.602H88.82v3.314H29.362v-3.314zm0-6.601H88.82v3.288H29.362v-3.288zm0-3.516v-3.06H88.82v3.313H29.362V95.2zm0-6.348v88.374h3.31v-58.933h3.336v29.44h3.31v-29.44h3.336v29.44h3.335v-29.44h3.336v29.44h3.31v-29.44h3.563v58.933h6.216v-29.492h3.285v29.492h3.31v-29.492h3.336v29.492h3.461v-29.492h3.336v29.492h3.234v-29.492h3.538v29.492h32.597v-2.884H88.82v-3.54h29.741v-3.289H88.82V164.2h29.741v-3.288H88.82v-3.288h29.741v-3.289H88.82v-3.313h29.741v-6.12H59.078v-3.542h59.483v-3.288H59.078v-3.313h59.483v-3.289H59.078v-3.288h59.483v-3.288H59.078v-3.313h59.483l-.05-3.288H92.13V88.852H29.361z"/><path d="M49.325 170.801v6.374h3.335v-29.441h-3.335zm-6.646 0v6.374h3.31v-29.441h-3.31zm-6.671 0v6.374h3.31v-29.441h-3.31zm194.924 12.748v-6.374h-3.31v29.441h3.31zm-6.646 0v-6.374h-3.31v29.441h3.31zm-6.671 0v-6.374h-3.31v29.441h3.31z"/><path d="M148.176 229.683h59.458v3.542h-59.458v-3.542zm0-6.601h59.458v3.313h-59.458v-3.313zm0-6.601h59.458v3.288h-59.458v-3.288zm0-3.516v-3.086h59.458v3.313h-59.458v-.227zM121.77 232.87v-26.254h3.336v29.441h-3.336v-3.187zm6.646 0v-26.254h3.336v29.441h-3.336v-3.187zm6.671 0v-26.254h3.336v29.441h-3.336v-3.187zm6.671 0v-26.254h3.563v29.441h-3.563v-3.187zm29.716-55.644H118.41v3.288h59.508v3.313H118.46v3.288h59.458v3.314H118.46v3.288h59.458v3.313H118.46v3.288h59.458v3.541H118.46v32.122l53.115.076h3.563l58.952-.076h-3.158v-29.365h-3.31v29.441h-3.336v-29.44h-3.31v29.44h-3.36v-29.44h-3.311v29.44h-3.336v-58.831h-6.292v29.44h-3.461v-29.44h-3.336v29.44h-3.31v-29.44h-3.336v29.44H187.9v-29.44h-3.437v29.44h-3.234v-29.44h-9.754zm59.458-111.442V59.41h-3.31v29.442h3.31zm-6.646 0V59.41h-3.31v29.442h3.31zm-6.671 0V59.41h-3.31v29.442h3.31z"/><path d="M148.176 111.919h59.458v3.54h-59.458v-3.54zm0-6.602h59.458v3.314h-59.458v-3.314zm0-6.601h59.458v3.288h-59.458v-3.288zm0-3.516v-3.06h59.458v3.313h-59.458V95.2zm-26.406 46.16V88.852h3.336v58.882h-3.336v-6.374zm6.646 0V88.852h3.336v58.882h-3.336v-6.374zm6.671 0V88.852h3.336v58.882h-3.336v-6.374zm6.671 0V88.852h3.563v58.882h-3.563v-6.374zm29.716-81.95H118.41v3.29h59.508v3.237H118.46v3.288h59.458v3.314H118.46v3.288h59.458v3.313H118.46v3.288h59.458v3.541H118.46v65.003h29.716v3.314H118.46v3.288h29.716v3.313H118.46v3.288h29.716v3.314H118.46v3.288h29.716v3.54H118.46v2.91h33.153v-58.933h3.335v29.44h3.31v-29.44h3.336v29.44h3.336v-29.44h3.335v29.44h3.31v-29.44h3.563v58.933h6.191v-29.492h3.133v29.492h3.31v-29.492h3.336v29.492h3.462v-29.492h3.335v29.492h3.336v-29.492h3.436v29.492h29.312v-2.884h-26.355v-3.54h26.456v-3.289h-26.456V164.2h26.456v-3.288h-26.456v-3.288h26.456v-3.289h-26.456v-3.313h26.456v-6.12h-56.172v-3.542h56.172v-3.288h-56.172v-3.313h56.172v-3.289h-56.172v-3.288h56.172v-3.288h-56.172v-3.313h56.172v-3.288h-3.158V88.852h-3.31v29.44h-3.336v-29.44h-3.31v29.44h-3.36v-29.44h-3.311v29.44h-3.336V59.41h-6.292v29.442h-3.461V59.41h-3.336v29.442h-3.31V59.41h-3.336v29.442H187.9V59.41h-3.437v29.442h-3.234V59.41h-9.754z"/><path d="M168.164 170.801v6.374h3.31v-29.441h-3.31zm-6.671 0v6.374h3.335v-29.441h-3.335zm-6.646 0v6.374h3.31v-29.441h-3.31z"/></g></svg>