<svg width="273" height="273" viewBox="0 0 273 273" xmlns="http://www.w3.org/2000/svg"><title>tech-emboss</title><g stroke="#790000" stroke-width="2" fill="none" fill-rule="evenodd"><path d="M65 71c0-3.314 2.695-6 6-6h41c7.18 0 13 5.821 13 13v34c0 7.18-5.821 13-13 13H78c-7.18 0-13-5.821-13-13V71zm0 120c0-3.314 2.695-6 6-6h41c7.18 0 13 5.821 13 13v34c0 7.18-5.821 13-13 13H78c-7.18 0-13-5.821-13-13v-41zm120 0c0-3.314 2.695-6 6-6h41c7.18 0 13 5.821 13 13v34c0 7.18-5.821 13-13 13h-34c-7.18 0-13-5.821-13-13v-41zm0-120c0-3.314 2.695-6 6-6h41c7.18 0 13 5.821 13 13v34c0 7.18-5.821 13-13 13h-34c-7.18 0-13-5.821-13-13V71zm-60 60c0-3.314 2.695-6 6-6h41c7.18 0 13 5.821 13 13v34c0 7.18-5.821 13-13 13h-34c-7.18 0-13-5.821-13-13v-41zm148 54h-15.004c-7.178 0-12.996-5.821-12.996-13v-41a6 6 0 0 1 6.007-6H273m0-60h-15.004C250.818 65 245 59.179 245 52V11a6 6 0 0 1 6.007-6H273m-148 6c0-3.314 2.695-6 6-6h41c7.18 0 13 5.821 13 13v34c0 7.18-5.821 13-13 13h-34c-7.18 0-13-5.821-13-13V11zm0 262v-21.993a6.009 6.009 0 0 1 6-6.007h41c7.18 0 13 5.818 13 12.994v15.002m60 .004v-21.993a6.004 6.004 0 0 1 6.007-6.007H273M5 131c0-3.314 2.695-6 6-6h41c7.18 0 13 5.821 13 13v34c0 7.18-5.821 13-13 13H18c-7.18 0-13-5.821-13-13v-41z"/><g transform="translate(1 1)"><rect x="60" y="60" width="60" height="60" rx="10"/><rect x="60" y="180" width="60" height="60" rx="10"/><rect x="180" y="180" width="60" height="60" rx="10"/><rect x="180" y="60" width="60" height="60" rx="10"/><rect x="120" y="120" width="60" height="60" rx="10"/><path d="M272 180h-22.007c-5.519 0-9.993-4.485-9.993-10.009V130.01c0-5.528 4.483-10.009 9.993-10.009H272M272 60h-22.007C244.474 60 240 55.515 240 49.991V10.01C240 4.48 244.483 0 249.993 0H272"/><rect x="120" width="60" height="60" rx="10"/><path d="M120 272v-22.007c0-5.519 4.485-9.993 10.009-9.993h39.982c5.528 0 10.009 4.483 10.009 9.993V272m60 0v-22.007c0-5.519 4.483-9.993 9.993-9.993H272"/><rect y="120" width="60" height="60" rx="10"/></g></g></svg>