<svg width="308" height="294" viewBox="0 0 308 294" xmlns="http://www.w3.org/2000/svg"><title>tech-cards</title><g fill="#FC9705"><path d="M264.831 4.09c0 9.54-7.745 17.85-17.3 17.85v6.54a17.349 17.349 0 0 0-15.72 8.393 17.29 17.29 0 0 0 0 17.798 17.349 17.349 0 0 0 15.72 8.394v6.54c9.555 0 17.3 7.732 17.3 17.272 0 9.539-7.745 17.272-17.3 17.272v6.539c-9.578 0-17.342 7.752-17.342 17.314 0 9.562 7.764 17.313 17.342 17.313v6.54c9.555 0 17.3 7.732 17.3 17.272 0 9.539-7.745 17.272-17.3 17.272v6.539a17.349 17.349 0 0 0-15.72 8.394 17.29 17.29 0 0 0 0 17.798 17.349 17.349 0 0 0 15.72 8.394v6.539c9.555 0 17.3 7.733 17.3 17.273 0 9.539-7.745 17.272-17.3 17.272v6.539a17.349 17.349 0 0 0-15.72 8.394c-1.784 2.972-2.6 6.12-2.449 9.459 14.06.026 68.128.031 77.794 0 .003-3.085-.82-5.975-2.466-8.72a17.349 17.349 0 0 0-15.72-8.393v-6.539c-9.555 0-17.3-7.733-17.3-17.272 0-9.54 7.745-17.273 17.3-17.273v-6.539a17.349 17.349 0 0 0 15.72-8.393 17.29 17.29 0 0 0 0-17.799 17.349 17.349 0 0 0-15.72-8.394v-6.539c-9.555 0-17.3-7.733-17.3-17.272 0-9.54 7.745-17.273 17.3-17.273v-6.95c9.577 0 17.341-7.751 17.341-17.313 0-9.562-7.764-17.314-17.341-17.314v-6.539c-9.555 0-17.3-7.733-17.3-17.272 0-9.54 7.745-17.273 17.3-17.273v-6.621a17.349 17.349 0 0 0 15.72-8.394 17.29 17.29 0 0 0 0-17.798 17.349 17.349 0 0 0-15.72-8.394v-6.539c-9.555 0-17.3-8.558-17.3-18.097 0-4.789-6.839-4.75-6.839 0zm20.184 275.334h4.12a13.393 13.393 0 0 1 12.21 6.45A13.204 13.204 0 0 1 303.26 293c-14.395-.013-53.955.001-70.189 0-.016-2.417.624-4.98 1.92-7.127a13.393 13.393 0 0 1 12.21-6.45h4.119v-6.95a21.196 21.196 0 0 0 16.476-16.778h.742a21.196 21.196 0 0 0 16.476 16.779v6.95zm0-82.127h4.12a13.393 13.393 0 0 1 12.21 6.45 13.347 13.347 0 0 1 0 13.791 13.393 13.393 0 0 1-12.21 6.45h-4.12v6.95a21.196 21.196 0 0 0-16.476 16.779h-.742a21.196 21.196 0 0 0-16.476-16.78v-6.99h-4.12a13.393 13.393 0 0 1-12.21-6.45 13.347 13.347 0 0 1 0-13.792 13.393 13.393 0 0 1 12.21-6.449h4.12v-7.073a21.237 21.237 0 0 0 16.476-16.78h.742a21.237 21.237 0 0 0 16.476 16.78v7.114zm0-82.332h4.12a13.393 13.393 0 0 1 12.21 6.45 13.347 13.347 0 0 1 0 13.79 13.393 13.393 0 0 1-12.21 6.45h-4.12v7.032a21.237 21.237 0 0 0-16.476 16.78h-.742a21.237 21.237 0 0 0-16.476-16.78v-7.032h-4.12a13.393 13.393 0 0 1-12.21-6.45 13.347 13.347 0 0 1 0-13.79 13.393 13.393 0 0 1 12.21-6.45h4.12v-7.074a21.196 21.196 0 0 0 16.476-16.779h.742a21.196 21.196 0 0 0 16.476 16.78v7.073zm0-82.25h4.12a13.393 13.393 0 0 1 12.21 6.45 13.347 13.347 0 0 1 0 13.79 13.393 13.393 0 0 1-12.21 6.45h-4.12v7.032a21.196 21.196 0 0 0-16.476 16.78h-.742a21.196 21.196 0 0 0-16.476-16.78v-7.032h-4.12a13.393 13.393 0 0 1-12.21-6.45 13.347 13.347 0 0 1 0-13.79 13.393 13.393 0 0 1 12.21-6.45h4.12V25.6a21.196 21.196 0 0 0 16.476-16.779h.742a21.196 21.196 0 0 0 16.476 16.78v7.114zm-172.757 136.37c0 9.54-7.746 17.273-17.3 17.273v6.539c-9.578 0-17.342 7.751-17.342 17.314 0 9.562 7.764 17.313 17.342 17.313v6.539c9.554 0 17.3 7.733 17.3 17.273 0 9.539-7.746 17.272-17.3 17.272v6.539a17.349 17.349 0 0 0-15.72 8.394c-1.708 2.844-2.529 6.262-2.463 9.459 13.83-.028 63.967.05 77.766 0a17.132 17.132 0 0 0-2.466-8.72 17.349 17.349 0 0 0-15.72-8.393v-6.539c-9.555 0-17.3-7.733-17.3-17.272 0-9.54 7.745-17.273 17.3-17.273v-6.539c9.578 0 17.342-7.751 17.342-17.313 0-9.562-7.764-17.314-17.342-17.314v-6.539c-9.555 0-17.3-8.469-17.3-18.008 0-4.678-6.797-4.866-6.797-.005zm19.978 110.339h4.12a13.393 13.393 0 0 1 12.21 6.45c1.308 2.168 1.947 4.685 1.918 7.126-10.55 0-51.75.013-70.19 0-.026-2.434.614-4.965 1.918-7.127a13.393 13.393 0 0 1 12.21-6.45h4.12v-6.95a21.196 21.196 0 0 0 16.476-16.778h.741a21.196 21.196 0 0 0 16.477 16.779v6.95zm0-82.127h4.12a13.393 13.393 0 0 1 12.21 6.45 13.347 13.347 0 0 1 0 13.791 13.393 13.393 0 0 1-12.21 6.45h-4.12v6.95a21.196 21.196 0 0 0-16.477 16.779h-.741a21.196 21.196 0 0 0-16.477-16.78v-6.99h-4.119a13.393 13.393 0 0 1-12.21-6.45 13.347 13.347 0 0 1 0-13.792 13.393 13.393 0 0 1 12.21-6.449h4.12v-7.073a21.196 21.196 0 0 0 16.476-16.78h.741a21.196 21.196 0 0 0 16.477 16.78v7.114z"/><path d="M188.586 169.085c0 9.54-7.746 17.273-17.3 17.273v6.539c-9.578 0-17.342 7.751-17.342 17.314 0 9.562 7.764 17.313 17.341 17.313v6.539c9.555 0 17.3 7.733 17.3 17.273 0 9.539-7.745 17.272-17.3 17.272v6.539a17.349 17.349 0 0 0-15.72 8.394A17.194 17.194 0 0 0 153.11 293c28.72.036 61.81.02 77.802 0 .01-3.1-.812-5.962-2.467-8.72a17.349 17.349 0 0 0-15.72-8.393v-6.539c-9.555 0-17.3-7.733-17.3-17.272 0-9.54 7.745-17.273 17.3-17.273v-6.539c9.578 0 17.342-7.751 17.342-17.313 0-9.562-7.764-17.314-17.342-17.314v-6.539c-9.555 0-17.3-8.469-17.3-18.008 0-4.954-6.838-4.59-6.838-.005zm20.019 110.339h4.12a13.393 13.393 0 0 1 12.21 6.45c1.297 2.15 1.937 4.705 1.918 7.126-8.278.035-56.586.022-70.19 0a13.435 13.435 0 0 1 1.918-7.127 13.393 13.393 0 0 1 12.21-6.45h4.12v-6.95a21.237 21.237 0 0 0 16.476-16.778h.741a21.196 21.196 0 0 0 16.477 16.779v6.95zm0-82.127h4.12a13.393 13.393 0 0 1 12.21 6.45 13.347 13.347 0 0 1 0 13.791 13.393 13.393 0 0 1-12.21 6.45h-4.12v6.95a21.196 21.196 0 0 0-16.477 16.779h-.741a21.237 21.237 0 0 0-16.477-16.78v-6.99h-4.119a13.393 13.393 0 0 1-12.21-6.45 13.347 13.347 0 0 1 0-13.792 13.393 13.393 0 0 1 12.21-6.449h4.12v-7.073a21.237 21.237 0 0 0 16.476-16.78h.741a21.196 21.196 0 0 0 16.477 16.78v7.114zM35.93 251.335c0 9.54-7.745 17.273-17.3 17.273v6.539a17.349 17.349 0 0 0-15.72 8.394C1.151 286.469.333 289.709.454 293c8.836.016 56.527.052 77.8 0 .005-3.09-.817-5.971-2.466-8.72a17.349 17.349 0 0 0-15.72-8.393v-6.539c-9.555 0-17.301-7.733-17.301-17.272 0-4.782-6.838-5.498-6.838-.74zm20.02 21.015v7.074h4.118a13.393 13.393 0 0 1 12.21 6.45c1.343 2.224 1.98 4.623 1.915 7.126-20.773.039-39.577.006-70.18 0-.08-2.526.558-4.882 1.912-7.127a13.393 13.393 0 0 1 12.21-6.45h4.12v-6.95a21.237 21.237 0 0 0 16.476-16.778h.742a21.237 21.237 0 0 0 16.476 16.779"/></g></svg>