<svg width="372" height="215" viewBox="0 0 372 215" xmlns="http://www.w3.org/2000/svg"><title>tech-narrow-print</title><g fill="#006A5F" fill-rule="evenodd"><path d="M282.192 51.76l4.436-1.247c14.665-3.923 29.073-7.846 43.665-11.696a11.329 11.329 0 0 0 5.426-3.116c10.595-10.705 21.3-21.338 31.933-32.006.953-.99 2.211-2.163 3.348-3.667.008 22.384 0 205.457 0 205.457-1.173-1.1-2.285-1.98-3.238-2.933a2612.82 2612.82 0 0 1-31.75-31.933 12.649 12.649 0 0 0-6.086-3.446c-14.665-3.85-29.33-7.846-43.995-11.806-1.173-.33-2.346-.733-3.666-1.173l6.27-23.5c2.236-8.36 4.545-16.719 6.635-25.114.4-1.676.4-3.421 0-5.096-3.886-14.922-7.919-29.844-11.915-44.765-.367-1.21-.623-2.42-1.063-3.96zm4.18 2.492c.476 1.907.842 3.337 1.246 4.803 3.666 13.822 7.332 27.68 10.998 41.465a9.202 9.202 0 0 1 0 5.133c-3.666 13.932-7.332 27.9-11.218 41.832-.367 1.393-.697 2.823-1.064 4.4l4.327 1.282c13.711 3.667 27.386 7.333 41.098 11a11.952 11.952 0 0 1 5.72 3.299 5938.748 5938.748 0 0 0 30.393 30.393c.953.953 1.405 1.833 3.128 3.446 0-22.413.021-183.64 0-195.814l-3.165 3.116c-10.045 10.046-20.128 20.055-30.1 30.137a12.025 12.025 0 0 1-5.72 3.3c-13.49 3.666-26.946 7.332-40.328 10.778l-5.316 1.43zm-106.835 56.974a24.82 24.82 0 0 0 2.42 3.373c10.632 10.705 21.337 21.337 31.932 32.043a11.989 11.989 0 0 0 5.72 3.3 9462.411 9462.411 0 0 1 43.335 11.548l4.51 1.32c-.367 1.54-.624 2.896-.954 4.18a9129.624 9129.624 0 0 1-11.915 44.397 10.444 10.444 0 0 0-.355 2.613c-33.425.014-119.942.024-151.008 0 .022-1-.105-1.898-.383-2.87a7324.631 7324.631 0 0 1-11.805-43.994c-.367-1.32-.624-2.64-1.027-4.253 1.613-.477 3.006-.953 4.436-1.32 14.445-3.862 28.89-7.711 43.335-11.548a12.759 12.759 0 0 0 6.05-3.667c10.522-10.632 21.117-21.154 31.676-31.75a35.71 35.71 0 0 0 2.566-3.262l1.467-.11zM94.04 165.229l1.246 4.803 11 41.135c.25.87.38 1.936.388 2.833 33.79.031 104.938.006 144.045 0a9.587 9.587 0 0 1 .383-2.503l10.999-41.465c.366-1.43.696-2.86 1.063-4.436l-3.923-1.136a66622.119 66622.119 0 0 0-41.502-11 12.025 12.025 0 0 1-5.756-3.262c-10.082-10.192-20.238-20.311-30.356-30.43-.954-.953-1.944-1.833-3.08-2.896l-3.19 3.116a34970.237 34970.237 0 0 0-30.1 30.137 11.915 11.915 0 0 1-5.719 3.3c-9.606 2.492-19.174 5.095-28.78 7.662l-16.718 4.142zM267.783 59.972c.66 2.346 1.21 4.4 1.76 6.415 3.043 11.293 6.086 22.548 9.019 33.84a10.705 10.705 0 0 1 0 5.133c-3.336 12.868-6.856 25.663-10.302 38.569-.252.76-.546 1.507-.88 2.236l-20.494-5.426c-6.416-1.723-12.832-3.666-19.285-5.17a11.255 11.255 0 0 1-5.426-3.08c-8.835-8.945-17.744-17.817-26.617-26.69-.88-.88-1.686-1.796-3.08-3.262 1.54-1.247 3.007-2.237 4.253-3.483 8.384-8.31 16.73-16.67 25.04-25.077a12.539 12.539 0 0 1 6.014-3.667c12.281-3.19 24.527-6.526 36.662-9.825 1.1-.073 1.943-.22 3.336-.513zm-2.603 81.83c.404-1.1.77-2.016 1.027-2.933 2.97-10.999 5.976-21.997 8.799-32.996a11.475 11.475 0 0 0 0-5.5c-2.823-10.998-5.793-21.997-8.726-32.739-.293-1.063-.696-2.09-1.063-3.19-.697 0-1.173 0-1.65.294-11.769 3.116-23.537 6.232-35.27 9.459a9.092 9.092 0 0 0-3.665 2.383c-8.323 8.212-16.535 16.461-24.784 24.747-.587.586-1.063 1.283-1.613 1.943.476.587.77 1.026 1.136 1.356 8.506 8.543 17.012 17.085 25.664 25.664a9.936 9.936 0 0 0 4.18 2.237c10.998 3.043 21.997 5.939 32.996 8.872.843-.037 1.65.146 2.933.366l.036.037zm-175.356 4.436c-.477-1.503-.917-2.64-1.247-3.666-3.263-12.135-6.526-24.234-9.679-36.406a10.705 10.705 0 0 1-.22-5.132c3.373-13.016 6.893-25.958 10.413-38.936.218-.626.475-1.239.77-1.833 1.1.183 2.09.33 3.006.55 12.502 3.336 25.004 6.672 37.469 10.119a9.019 9.019 0 0 1 3.886 2.053c9.752 9.605 19.394 19.32 29.073 29.036.353.397.684.813.99 1.247-.843.916-1.576 1.76-2.346 2.53-8.982 8.982-17.928 18-26.947 26.873a10.669 10.669 0 0 1-4.363 2.713c-13.418 3.556-26.873 7.113-40.805 10.852zm2.493-82.05c-.367 1.1-.733 1.87-.953 2.713-3.043 11.255-6.123 22.51-9.02 33.84a11.622 11.622 0 0 0 .22 5.499c2.75 10.668 5.683 21.337 8.543 32.006.33 1.173.733 2.346 1.063 3.41.476.046.955.046 1.43 0 11.879-3.19 23.757-6.306 35.6-9.606a9.166 9.166 0 0 0 3.665-2.31c8.213-8.102 16.352-16.315 24.528-24.49.696-.697 1.246-1.467 1.833-2.2a10.632 10.632 0 0 0-.843-1.1c-8.616-8.616-17.195-17.268-25.847-25.664a9.862 9.862 0 0 0-4.18-2.273c-8.579-2.383-17.195-4.656-25.664-6.929l-10.375-2.896zM270.894 214c-.014-.71.05-1.214.189-1.916 3.41-13.125 6.966-26.214 10.485-39.302.192-.519.425-1.022.697-1.503 1.026.22 2.016.366 2.933.623 12.502 3.336 25.004 6.636 37.469 10.046a9.092 9.092 0 0 1 3.886 2.053c10.009 9.862 19.945 19.88 30.063 29.999-15.977.018-75.796.043-85.722 0zm81.366 0c-.236-.357-1.197-.746-1.473-1.073-8.616-8.615-17.158-17.268-25.847-25.663a9.936 9.936 0 0 0-4.18-2.274c-10.998-3.042-21.997-5.939-32.996-8.872-.953-.256-1.906-.33-3.043-.55-.33.843-.66 1.503-.843 2.2-3.08 11.402-6.16 22.767-9.092 34.17a9.27 9.27 0 0 0-.277 2.062c3.54.065 67.444.01 77.751 0zM.844 214l21.998-22.154a53.014 53.014 0 0 1 9.532-9.019 51.84 51.84 0 0 1 12.575-3.666l27.313-7.332c.954-.257 1.907-.44 3.08-.66.33.953.697 1.723.917 2.53 3.41 12.611 6.819 25.223 10.119 37.835.188.76.278 1.689.268 2.466-44.568 0-70.848-.032-85.802 0zm4.986 0c10.858.02 57.624-.006 77.029 0a8.966 8.966 0 0 0-.368-2.576c-2.896-10.999-5.866-21.997-8.835-32.996-.257-.917-.66-1.833-.99-2.713a6.966 6.966 0 0 0-1.32 0 5756.133 5756.133 0 0 0-35.966 9.679 6.746 6.746 0 0 0-2.493 1.43C23.795 195.769 14.959 204.908 5.83 214z"/><path d="M371 30.458c.005 44.773-.05 119.715 0 145.123a95.603 95.603 0 0 1-2.652-2.432c-7.332-7.333-14.408-14.372-21.557-21.595a11.879 11.879 0 0 0-5.72-3.336c-9.862-2.53-19.65-5.243-29.33-7.882-1.063-.294-2.09-.66-3.41-1.064.258-1.283.44-2.346.734-3.41 2.64-9.935 5.243-19.907 7.993-29.842a10.632 10.632 0 0 0 0-5.903c-2.713-9.936-5.353-19.871-7.993-29.843-.293-1.063-.513-2.163-.806-3.483 1.393-.44 2.53-.843 3.666-1.173 9.679-2.603 19.394-5.206 29.11-7.736a11.879 11.879 0 0 0 5.756-3.3c7.039-7.332 14.188-14.225 21.3-21.337.917-.844 1.7-1.65 2.909-2.787zM316.178 137.99c8.982 2.42 17.928 4.84 26.91 7.333a10.559 10.559 0 0 1 5.096 2.933c6.6 6.709 13.308 13.345 19.981 20.017.843.844 1.369 1.074 2.835 2.394.057-35.64-.027-125.483 0-135.225-.855 1.276-2.421 2.54-3.422 3.706-6.379 6.416-12.831 12.759-19.137 19.248a11.219 11.219 0 0 1-5.426 3.08c-9.35 2.456-18.662 4.986-28.01 7.332a25.59 25.59 0 0 0-2.53.953c.33 1.394.623 2.603.916 3.667 2.347 8.872 4.656 17.744 7.113 26.543a11.805 11.805 0 0 1 0 6.6c-2.457 8.835-4.766 17.707-7.113 26.543-.256 1.063-.513 2.383-.843 3.666 1.43.477 2.603.88 3.63 1.21zm-74.645 39.851c-.513 2.053-.88 3.667-1.357 5.426-2.383 8.836-4.656 17.708-7.332 26.544-.38 1.268-.586 2.88-.615 4.189-19.057.015-74.677.03-107.42 0 .03-1.084-.107-2.038-.413-3.09-2.713-9.788-5.279-19.65-7.882-29.33-.33-1.172-.55-2.382-.88-3.665l18.111-4.913c4.95-1.32 9.936-2.676 14.922-3.96a10.999 10.999 0 0 0 5.426-3.116c7.04-7.332 14.188-14.225 21.264-21.374a32.043 32.043 0 0 0 2.493-3.263c1.467 1.32 2.383 2.09 3.227 2.933 7.112 7.112 14.261 14.152 21.264 21.337a13.015 13.015 0 0 0 6.38 3.667c9.495 2.456 18.917 5.022 28.376 7.589 1.54.11 2.75.513 4.436 1.026zM228.536 214c.005-.972.145-2.22.422-3.162 2.456-8.946 4.84-17.965 7.332-26.947.33-1.174.477-2.347.733-3.667l-3.666-1.063c-8.982-2.42-17.928-4.876-26.947-7.332a11.219 11.219 0 0 1-5.426-3.153c-6.416-6.563-12.942-13.015-19.43-19.468-.954-.953-1.944-1.797-3.667-3.446a28.927 28.927 0 0 1-2.603 3.666c-6.453 6.526-12.979 12.978-19.431 19.504a10.046 10.046 0 0 1-4.803 2.75c-9.239 2.42-18.331 4.913-27.68 7.333-1.063.293-2.053.696-3.263 1.136.367 1.503.623 2.713.953 3.923 2.383 8.982 4.84 17.965 7.113 26.947.22.923.318 2.037.296 2.979 21.348 0 80.513.047 100.067 0zm25.462-91.666c-2.97-.733-5.572-1.613-8.249-2.016a29.33 29.33 0 0 1-19.284-10.999 80.07 80.07 0 0 0-5.976-6.16l13.748-13.674c.377-.336.83-.575 1.32-.697l18.331-4.95c1.32 4.73 2.383 9.24 3.666 13.64a17.525 17.525 0 0 1 0 11.365c-1.026 4.18-2.236 8.725-3.556 13.491zm-2.456-34.499l-14.665 4.033a2.31 2.31 0 0 0-.953.586L225.4 102.94c2.2 2.2 4.29 4.033 6.013 6.123a19.211 19.211 0 0 0 12.062 6.929c2.676.476 5.28 1.246 8.176 1.98 1.356-4.987 2.603-9.57 3.666-14.152a2.97 2.97 0 0 0 0-1.467c-1.136-4.656-2.456-9.349-3.776-14.518zm-114.46 15.142c-4.803 4.802-9.203 9.239-13.675 13.638a3.666 3.666 0 0 1-1.614.917l-18 4.839a17.818 17.818 0 0 1-1.1-2.456c-1.32-4.84-2.64-9.68-3.85-14.665a7.772 7.772 0 0 1-.184-3.667c1.357-5.499 2.86-10.998 4.327-16.388.2-.533.444-1.048.733-1.54 6.122 1.65 12.135 3.227 18.331 4.913a4.583 4.583 0 0 1 1.87 1.21l13.162 13.199zm-4.583-.184a52.097 52.097 0 0 1-5.72-5.096 21.338 21.338 0 0 0-13.601-7.882c-2.42-.367-4.766-1.1-7.333-1.723-1.32 4.876-2.53 9.349-3.666 13.821a3.666 3.666 0 0 0 0 1.834c1.21 4.692 2.53 9.385 3.886 14.481 5.06-1.356 9.752-2.603 14.445-3.923a3.886 3.886 0 0 0 1.54-1.026l10.449-10.486zM329.23 214s-28.194.026-38.082 0c-.121-2.416.23-4.04 1.052-6.352 1.394-4.143 2.347-8.432 3.667-13.015 6.416 1.723 12.575 3.373 18.698 5.096a4.73 4.73 0 0 1 1.796 1.283L329.23 214zm-4.84 0l-9.935-9.762a4.766 4.766 0 0 0-1.834-1.246c-4.692-1.32-9.385-2.567-14.408-3.923-1.356 5.06-2.64 10.202-3.85 14.931 10.342.03 19.078-.099 30.027 0zM61.704 194.706L66.654 214c-17.176.055-38.46 0-38.46 0 4.583-4.583 8.91-8.992 13.272-13.281a5.5 5.5 0 0 1 2.273-1.21c5.866-1.687 11.695-3.116 17.965-4.803zM62.914 214c-1.247-4.73-2.53-10.018-3.85-15.041-5.023 1.356-9.752 2.603-14.445 3.923a4.033 4.033 0 0 0-1.54 1.026L32.887 214c11.79.097 19.614.004 30.027 0z"/><path d="M331.943 80.503c6.379-1.724 12.281-3.483 18.33-4.877a14.665 14.665 0 0 0 7.59-4.436c3.373-3.666 6.892-6.966 10.375-10.412.88-.88 1.625-2.058 2.762-3.121-.003 9.365 0 74.023 0 90.706-1.173-.953-1.515-1.648-2.175-2.345-4.033-3.996-8.03-7.955-11.989-12.025a10.742 10.742 0 0 0-5.389-3.153c-5.353-1.283-10.669-2.823-16.022-4.29-1.063-.293-2.09-.696-3.446-1.1 1.32-5.022 2.347-9.898 3.923-14.664a22.62 22.62 0 0 0 0-15.362c-1.576-4.693-2.383-9.605-3.96-14.921zm26.983-5.573a11.622 11.622 0 0 1-6.013 3.666c-4.656 1.063-9.238 2.42-13.821 3.666-.917.257-1.797.697-2.823 1.1 1.393 5.353 2.64 10.486 4.143 15.508.932 2.86.932 5.94 0 8.8-1.357 4.326-2.383 8.725-3.667 13.088-.168.873-.29 1.754-.366 2.64 5.316 1.43 10.339 2.933 15.471 4.106a14.298 14.298 0 0 1 7.59 4.436c2.969 3.226 6.195 6.27 9.312 9.349.696.66 1.258 1.412 2.248 2.218.038-13.476.037-65.418 0-81.01-4.29 4.362-8.261 8.4-12.074 12.433zM139.758 191.7c1.063-.367 1.98-.734 2.896-.99 5.573-1.503 11-3.043 16.718-4.473a9.862 9.862 0 0 0 4.803-2.75c4.62-4.766 9.35-9.459 14.262-14.335.916.734 1.723 1.284 2.42 1.943 4.106 4.07 8.212 8.14 12.245 12.282a10.339 10.339 0 0 0 5.096 2.933c5.61 1.394 10.999 2.97 16.755 4.473.843.22 1.613.55 2.786.953-1.1 4.217-1.87 8.396-3.336 12.356a27.073 27.073 0 0 0-1.845 9.908c-15.69.01-53.088 0-67.519 0 .04-.944-.045-1.65-.258-2.576-1.283-5.353-2.823-10.705-4.216-16.021-.22-1.247-.477-2.273-.807-3.703zm68.889 22.3a52.249 52.249 0 0 1 2.823-12.035c.66-2.64 1.356-5.243 2.09-8.139-4.363-1.173-8.286-2.493-12.32-3.263a21.997 21.997 0 0 1-13.38-7.406c-2.714-3.226-5.94-6.012-9.13-9.202-3.153 3.116-6.196 5.72-8.725 8.762a23.17 23.17 0 0 1-14.262 8.213c-3.886.696-7.7 2.053-11.842 3.19 1.466 5.535 2.713 10.742 4.253 15.874.434 1.366.642 2.59.624 4.006 15.996.002 48.453.064 59.869 0z"/><path d="M371 121.088c-3.443-5.168-9.11-8.477-15.3-8.982a44.508 44.508 0 0 0 1.98-9.13 39.632 39.632 0 0 0-1.944-8.688 42.492 42.492 0 0 0 8.58-2.787A40.42 40.42 0 0 0 371 85.49s.037 25.592 0 35.599zm0-30.604c-2.627 3.566-6.835 5.67-11.23 6.223a16.461 16.461 0 0 1 0 12.796c4.591.393 8.66 2.847 11.23 6.672V90.484zM178.254 196.136a49.641 49.641 0 0 0 7.332 6.526 41.465 41.465 0 0 0 8.652 2.713 19.397 19.397 0 0 0-1.994 8.625h-26.96c-.017-3.03-.718-5.808-2.099-8.589 6.123-1.43 11.732-3.226 15.069-9.275zM188.612 214a17.62 17.62 0 0 1 1.08-6.792c-5.096.293-7.919-2.896-10.998-5.903a15.508 15.508 0 0 1-11 6.343c.78 1.965 1.18 4.276 1.203 6.352h19.715z"/></g></svg>