<svg xmlns="http://www.w3.org/2000/svg" viewBox="0 0 164.5 141.97"><defs><style>.cls-1,.cls-2{fill:none;stroke:#000000;stroke-linecap:round;stroke-linejoin:round;}.cls-1{stroke-width:7px;}.cls-2{stroke-width:3px;}</style></defs><title>Ресурс 2</title><g id="Слой_2" data-name="Слой 2"><g id="Layer_1" data-name="Layer 1"><path class="cls-1" d="M129.61,55.39V14.33A10.83,10.83,0,0,0,118.77,3.5H14.33A10.83,10.83,0,0,0,3.5,14.33V90.67A10.83,10.83,0,0,0,14.33,101.5H22.8l18.88,29.88L60.55,101.5H80"/><path class="cls-1" d="M151.86,55.39H89.14A9.14,9.14,0,0,0,80,64.53v43.24a9.14,9.14,0,0,0,9.14,9.14h31.25l13.22,21.56,13.22-21.56h5a9.14,9.14,0,0,0,9.14-9.14V64.53A9.14,9.14,0,0,0,151.86,55.39Z"/><circle class="cls-2" cx="100.2" cy="96.21" r="5.25"/><circle class="cls-2" cx="120.5" cy="96.21" r="5.25"/><circle class="cls-2" cx="140.8" cy="96.21" r="5.25"/></g></g></svg>