<svg xmlns="http://www.w3.org/2000/svg" viewBox="0 0 186.25 135.23"><defs><style>.cls-1,.cls-2,.cls-3{fill:none;stroke:#231f20;}.cls-1,.cls-2{stroke-miterlimit:10;}.cls-2{stroke-width:3px;}.cls-3{stroke-linecap:round;stroke-linejoin:round;stroke-width:7px;}</style></defs><title>Ресурс 1</title><g id="Слой_2" data-name="Слой 2"><g id="Layer_1" data-name="Layer 1"><polyline class="cls-1" points="137.02 51.33 156.7 71 182.75 44.95 141.3 3.5"/><line class="cls-2" x1="170.75" y1="32.95" x2="144.7" y2="59"/><polyline class="cls-1" points="49.9 50.66 29.55 71 3.5 44.95 44.95 3.5"/><path class="cls-2" d="M93.46,10A50.52,50.52,0,0,1,68.58,3.5H44.9l5,47.16v81.07H137V50.79L142,3.5H118.34A50.52,50.52,0,0,1,93.46,10Z"/><line class="cls-2" x1="15.5" y1="32.95" x2="41.55" y2="59"/><line class="cls-2" x1="49.9" y1="115.23" x2="137.03" y2="115.23"/><path class="cls-2" d="M68.64,3.54a24.82,24.82,0,0,0,49.63,0"/><path class="cls-3" d="M182.75,45,142,3.5H118.34A50.52,50.52,0,0,1,93.46,10,50.52,50.52,0,0,1,68.58,3.5H44.9L3.5,45,29.55,71,49.9,50.66h0v81.07H137V51.33L156.7,71Z"/></g></g></svg>