<svg xmlns="http://www.w3.org/2000/svg" viewBox="0 0 38.7 30.14"><defs><style>.cls-1,.cls-2,.cls-3,.cls-4{fill:none;stroke:#000000;stroke-linecap:round;stroke-linejoin:round;}.cls-1{stroke-width:1.5px;}.cls-2,.cls-3,.cls-4{stroke-width:0.75px;}.cls-3{stroke-dasharray:0.9 1.8;}.cls-4{stroke-dasharray:1.07 2.14;}.cls-5{fill:#000000;}</style></defs><title>Ресурс 1</title><g id="Слой_2" data-name="Слой 2"><g id="Isolation_Mode" data-name="Isolation Mode"><path class="cls-1" d="M.75,10.3,14,28.9a2.58,2.58,0,0,1,3.51.5l8.37-6A2.58,2.58,0,0,1,26.54,20L13.32,1.36A2.59,2.59,0,0,1,9.71.75L1.36,6.68A2.59,2.59,0,0,1,.75,10.3Z"/><polyline class="cls-2" points="23.31 19.31 23.6 19.72 23.2 20.01"/><line class="cls-3" x1="21.73" y1="21.05" x2="15.85" y2="25.23"/><polyline class="cls-2" points="15.11 25.75 14.71 26.04 14.42 25.63"/><line class="cls-4" x1="13.18" y1="23.89" x2="4.51" y2="11.7"/><polyline class="cls-2" points="3.89 10.82 3.6 10.42 4.01 10.13"/><line class="cls-3" x1="5.48" y1="9.08" x2="11.36" y2="4.91"/><polyline class="cls-2" points="12.09 4.38 12.5 4.09 12.79 4.5"/><line class="cls-4" x1="14.03" y1="6.24" x2="22.7" y2="18.44"/><path class="cls-1" d="M23,25.5l2.41,3.4a2.58,2.58,0,0,1,3.51.5l8.37-6A2.58,2.58,0,0,1,37.95,20L24.73,1.36A2.59,2.59,0,0,1,21.12.75L15.65,4.64"/><path class="cls-5" d="M34.59,20.41a.39.39,0,0,1-.23-.71l.11-.08-.08-.11a.39.39,0,1,1,.64-.45l.3.42a.39.39,0,0,1-.09.54l-.42.3A.39.39,0,0,1,34.59,20.41Z"/><path class="cls-5" d="M28,25.09a.39.39,0,0,1-.23-.71l.73-.52a.39.39,0,1,1,.45.64l-.73.52A.39.39,0,0,1,28,25.09Zm2.2-1.56a.39.39,0,0,1-.23-.71l.73-.52a.39.39,0,0,1,.45.64l-.73.52A.39.39,0,0,1,30.2,23.53ZM32.39,22a.39.39,0,0,1-.23-.71l.73-.52a.39.39,0,1,1,.45.64l-.73.52A.39.39,0,0,1,32.39,22Z"/><path class="cls-5" d="M26.11,26.43a.39.39,0,0,1-.32-.16l-.3-.42a.39.39,0,0,1,.64-.45l.08.11.11-.08a.39.39,0,0,1,.45.64l-.42.3A.39.39,0,0,1,26.11,26.43Z"/><path class="cls-5" d="M19.09,7.91a.39.39,0,0,1-.23-.71l.73-.52a.39.39,0,1,1,.45.64l-.73.52A.39.39,0,0,1,19.09,7.91Zm2.2-1.56a.39.39,0,0,1-.23-.71l.73-.52a.39.39,0,1,1,.45.64l-.73.52A.39.39,0,0,1,21.29,6.35Z"/><path class="cls-5" d="M24.21,4.91a.39.39,0,0,1-.32-.16l-.08-.11-.11.08a.39.39,0,0,1-.45-.64l.42-.3a.39.39,0,0,1,.54.09l.3.42a.39.39,0,0,1-.32.62Z"/><path class="cls-5" d="M33.47,17.94a.39.39,0,0,1-.32-.16l-.62-.87a.39.39,0,1,1,.64-.45l.62.87a.39.39,0,0,1-.32.62Zm-1.85-2.61a.39.39,0,0,1-.32-.16l-.62-.87a.39.39,0,0,1,.64-.45l.62.87a.39.39,0,0,1-.32.62Zm-1.85-2.61a.39.39,0,0,1-.32-.16l-.62-.87a.39.39,0,1,1,.64-.45l.62.87a.39.39,0,0,1-.32.62Zm-1.85-2.61A.39.39,0,0,1,27.6,10L27,9.09a.39.39,0,0,1,.64-.45l.62.87a.39.39,0,0,1-.32.62ZM26.06,7.52a.39.39,0,0,1-.32-.16l-.62-.87A.39.39,0,1,1,25.76,6l.62.87a.39.39,0,0,1-.32.62Z"/></g></g></svg>