<svg xmlns="http://www.w3.org/2000/svg" viewBox="0 0 84 82.47"><title>reopening-icon_gift</title><g id="Слой_2" data-name="Слой 2"><g id="Layer_1" data-name="Layer 1"><path fill="#ffffff" d="M79,17.47H57.07c3.79-1.75,7.05-4,8.2-6.8.58-1.4,1.11-4.21-1.86-7.18A10.5,10.5,0,0,0,55.92,0C49.81,0,44.68,6.34,42,12.18,39.32,6.34,34.19,0,28.08,0a10.5,10.5,0,0,0-7.49,3.49c-3,3-2.44,5.77-1.86,7.18,1.15,2.76,4.41,5.05,8.2,6.8H5a5,5,0,0,0-5,5v13a5,5,0,0,0,4,4.9v37.1a5,5,0,0,0,5,5H75a5,5,0,0,0,5-5V40.37a5,5,0,0,0,4-4.9v-13A5,5,0,0,0,79,17.47ZM55.92,4a6.73,6.73,0,0,1,4.67,2.32c1.52,1.52,1.14,2.43,1,2.82C60,12.9,50,16.35,44.37,17.25,45.75,12.27,50.81,4,55.92,4ZM22.43,9.14c-.16-.39-.54-1.3,1-2.82A6.73,6.73,0,0,1,28.08,4c5.11,0,10.17,8.27,11.55,13.25C34,16.35,24,12.9,22.43,9.14ZM4,22.47a1,1,0,0,1,1-1H40v15H5a1,1,0,0,1-1-1Zm5,56a1,1,0,0,1-1-1v-37H40v38Zm66,0H44v-38H76v37A1,1,0,0,1,75,78.47Zm5-43a1,1,0,0,1-1,1H44v-15H79a1,1,0,0,1,1,1Z"/></g></g></svg>