<svg xmlns="http://www.w3.org/2000/svg" viewBox="0 0 49 90"><title>reopening-icon_prizes</title><g id="Слой_2" data-name="Слой 2"><g id="Layer_1" data-name="Layer 1" fill="#ffffff"><path d="M47.28,15.25H1.72A1.72,1.72,0,0,1,0,13.52V11.66A11.7,11.7,0,0,1,11.71,0H37.29A11.7,11.7,0,0,1,49,11.66v1.86A1.72,1.72,0,0,1,47.28,15.25ZM3.44,11.8H45.56v-.14a8.26,8.26,0,0,0-8.27-8.22H11.71a8.26,8.26,0,0,0-8.27,8.22Z"/><path d="M37.29,90H11.71A11.7,11.7,0,0,1,0,78.34V71a1.72,1.72,0,0,1,1.72-1.72H47.28A1.72,1.72,0,0,1,49,71v7.38A11.7,11.7,0,0,1,37.29,90ZM3.44,72.68v5.66a8.26,8.26,0,0,0,8.27,8.22H37.29a8.26,8.26,0,0,0,8.27-8.22V72.68Z"/><circle cx="24.5" cy="79.23" r="3.29"/><path d="M32.67,7.62a1.11,1.11,0,0,1-1.11,1.11H17.44a1.11,1.11,0,0,1-1.11-1.11h0a1.11,1.11,0,0,1,1.11-1.1H31.57a1.1,1.1,0,0,1,1.1,1.1Z"/><path d="M47.28,72.68H1.72A1.72,1.72,0,0,1,0,71V13.52A1.72,1.72,0,0,1,1.72,11.8H47.28A1.72,1.72,0,0,1,49,13.52V71A1.72,1.72,0,0,1,47.28,72.68ZM3.44,69.24H45.56v-54H3.44Z"/></g></g></svg>