<svg xmlns="http://www.w3.org/2000/svg" viewBox="0 0 30.18 55.39"><title>reopening-icon_food</title><g id="Слой_2" data-name="Слой 2"><g id="Layer_1" data-name="Layer 1"><path fill="#ffffff" d="M27.48,20.61A5.05,5.05,0,0,0,28,16.56a4.87,4.87,0,0,0-3.29-3.25,5,5,0,0,0,.38-2.62A6.22,6.22,0,0,0,21,6.39a4.87,4.87,0,0,0-.62-4.27A5.28,5.28,0,0,0,16.52,0a1,1,0,0,0-1,.52,1,1,0,0,0,.09,1.08,3.12,3.12,0,0,1-.08,3.29c-.36.64-1.12,1.47-3.5,1.35a5,5,0,0,0-3.8,1.68,5.07,5.07,0,0,0-1.47,4.93,5.39,5.39,0,0,0-2.68,1.5A4.63,4.63,0,0,0,2.69,18a5.82,5.82,0,0,0,.51,1.91A4.93,4.93,0,0,0,0,24.62a5,5,0,0,0,5,5h.35L13,53.55a2.5,2.5,0,0,0,4.81,0l7.76-24.1c2.35-.3,3.92-1.48,4.45-3.4A4.78,4.78,0,0,0,27.48,20.61ZM15.91,53.05a.5.5,0,0,1-1,0L7.45,29.69h16ZM28.08,25.56c-.37,1.34-1.64,2-3.77,2H18.72L5,27.69a3,3,0,0,1-3-3,2.94,2.94,0,0,1,2.87-3A1,1,0,0,0,5.57,20a3.83,3.83,0,0,1-.89-2.13,2.64,2.64,0,0,1,.83-2.07,3.3,3.3,0,0,1,2.26-1h.36a1,1,0,0,0,.94-.43,1,1,0,0,0,.06-1,4,4,0,0,1-.45-1.48,3.44,3.44,0,0,1,1-2.54,3,3,0,0,1,2.24-1.07c2.6.15,4.4-.65,5.37-2.37A5.76,5.76,0,0,0,18,2.64a1.9,1.9,0,0,1,.61.62,2.55,2.55,0,0,1,.08,3.09,1,1,0,0,0-.22,1,1,1,0,0,0,.72.68c.35.09,3.42.91,3.85,3.14a4.53,4.53,0,0,1-.74,2.6,1,1,0,0,0,0,1,1,1,0,0,0,.85.48h0a2.89,2.89,0,0,1,2.9,1.9,3.15,3.15,0,0,1-1,3.22A1,1,0,0,0,25,21.78a1,1,0,0,0,.61.33h.34A2.87,2.87,0,0,1,28.08,25.56Z"/></g></g></svg>