<svg xmlns="http://www.w3.org/2000/svg" viewBox="0 0 59.86 56.17"><title>reopening-icon_show</title><g id="Слой_2" data-name="Слой 2"><g id="Layer_1" data-name="Layer 1"><path fill="#ffffff" d="M58.38,6.87a13,13,0,0,0-17.6-5.3,13,13,0,0,0-6.5,8.3l-25.8,16a1.46,1.46,0,0,0-.5,2l1.9,3.5-9.1,4.9a1.49,1.49,0,0,0-.6,2,1.56,1.56,0,0,0,1.3.8,1.85,1.85,0,0,0,.7-.2l9.1-4.9,1.9,3.5a1.56,1.56,0,0,0,1.3.8,1.27,1.27,0,0,0,.6-.1l28.2-12.8a13.37,13.37,0,0,0,9.8-1A13.06,13.06,0,0,0,58.38,6.87Zm-45.2,24.4h0l-1.9-3.6,23.9-14.8,5.9,10.3-26,11.7Zm38.4-9.5a10,10,0,0,1-7.4.8l-6.9-12.1a9.88,9.88,0,0,1,5-6.3,10,10,0,0,1,13.5,4.2A10,10,0,0,1,51.58,21.77Zm-7.7,32.9a1.54,1.54,0,0,1-1.5,1.5H10.78a1.5,1.5,0,0,1,0-3h14.3V35.87l3-1.4v18.6h14.3A1.63,1.63,0,0,1,43.88,54.67Z"/></g></g></svg>