<svg xmlns="http://www.w3.org/2000/svg" viewBox="0 0 46 28"><title>reopening-icon_bus</title><g id="Слой_2" data-name="Слой 2"><g id="Layer_1" data-name="Layer 1"><path fill="#ffffff" d="M45,0H7a1,1,0,0,0-.9.55l-6,12A1.14,1.14,0,0,0,0,13V23a1,1,0,0,0,1,1H6.1a5,5,0,0,0,9.8,0H30.1a5,5,0,0,0,9.8,0H45a1,1,0,0,0,1-1V1A1,1,0,0,0,45,0ZM43,12H37a1,1,0,0,1-1-1V3a1,1,0,0,1,1-1h6a1,1,0,0,1,1,1v8A1,1,0,0,1,43,12ZM26,11V3a1,1,0,0,1,1-1h6a1,1,0,0,1,1,1v8a1,1,0,0,1-1,1H27A1,1,0,0,1,26,11ZM16,11V3a1,1,0,0,1,1-1h6a1,1,0,0,1,1,1v8a1,1,0,0,1-1,1H17A1,1,0,0,1,16,11ZM8.24,2H13a1,1,0,0,1,1,1v8a1,1,0,0,1-1,1H4.24a1,1,0,0,1-.9-1.45l4-8A1,1,0,0,1,8.24,2Zm4,23.76a3,3,0,0,1-4.06-3.67,2.92,2.92,0,0,1,1.91-1.94A3,3,0,0,1,14,23h0A2.94,2.94,0,0,1,12.2,25.76Zm23.39.18a3,3,0,1,1,2.35-2.35A3,3,0,0,1,35.59,25.94ZM39.9,22a5,5,0,0,0-9.8,0H15.9a5,5,0,0,0-9.8,0H3.42A1.43,1.43,0,0,1,2,20.58V15.42A1.43,1.43,0,0,1,3.42,14H42.58A1.43,1.43,0,0,1,44,15.42v5.16A1.43,1.43,0,0,1,42.58,22Z"/></g></g></svg>