<svg xmlns="http://www.w3.org/2000/svg" viewBox="0 0 29.23 28.67"><title>reopening-icon_cart</title><g id="Слой_2" data-name="Слой 2"><g id="Layer_1" data-name="Layer 1" fill="#ffffff"><path d="M9.31,5A.5.5,0,0,1,10,4.71l2.75,1L16,2.87a.49.49,0,0,1,.7.06l3.86,4.59a.51.51,0,0,1-.06.71l-2.91,2.44H16.06L19.5,7.78,16.29,4,13.8,6l1.82.63a.5.5,0,0,1,.31.63l-1.16,3.37H13.71l1.11-3.22L10.09,5.82,8.42,10.67h-1ZM29.19,2a.52.52,0,0,0-.25-.67L26.22.05a.49.49,0,0,0-.66.24L20.72,10.67h1.1l4.43-9.51L28.07,2l-4,8.66h1.1Z"/><path d="M3.5,4.67l5,20.08,1-.25L4.38,4.05a.5.5,0,0,0-.48-.38H.5a.5.5,0,0,0,0,1Z"/><path d="M12,26.17a2.5,2.5,0,1,0-2.5,2.5A2.5,2.5,0,0,0,12,26.17Zm-4,0a1.5,1.5,0,1,1,1.5,1.5A1.5,1.5,0,0,1,8,26.17Z"/><path d="M26,26.17a2.5,2.5,0,1,0-2.5,2.5A2.5,2.5,0,0,0,26,26.17Zm-4,0a1.5,1.5,0,1,1,1.5,1.5A1.5,1.5,0,0,1,22,26.17Z"/><path d="M26.86,10.67l-2.75,11H8.5v1h16a.51.51,0,0,0,.49-.38l3-12a.51.51,0,0,0-.49-.62H5.5v1Z"/><path d="M21.5,26.67v-1h-10v1Z"/></g></g></svg>