<svg width="22" height="16" viewBox="0 0 22 16" xmlns="http://www.w3.org/2000/svg" xmlns:xlink="http://www.w3.org/1999/xlink"><title>en</title><defs><path id="a" d="M0 0h22v16H0z"/></defs><g fill="none" fill-rule="evenodd"><mask id="b" fill="#fff"><use xlink:href="#a"/></mask><use fill="#06389B" xlink:href="#a"/><path d="M-1-1l7.815 7.056" stroke="#D0011B" stroke-width="2" stroke-linecap="square" mask="url(#b)"/><path d="M1-2l7.982 8.199" stroke="#FFF" stroke-width="2" stroke-linecap="square" mask="url(#b)"/><path d="M13.964-1l8.5 7.199" stroke="#D0011B" stroke-width="2" stroke-linecap="square" mask="url(#b)" transform="matrix(-1 0 0 1 35.964 0)"/><path d="M15.964 0l8.5 6.199" stroke="#FFF" stroke-width="2" stroke-linecap="square" mask="url(#b)" transform="matrix(-1 0 0 1 39.964 0)"/><path d="M-1 9.397l9.982 8.5" stroke="#D0011B" stroke-width="2" stroke-linecap="square" mask="url(#b)" transform="matrix(1 0 0 -1 0 27.397)"/><path d="M-2 9.397l8.982 7.5" stroke="#FFF" stroke-width="2" stroke-linecap="square" mask="url(#b)" transform="matrix(1 0 0 -1 0 26.397)"/><path d="M14.964 9.397l8.5 7.5" stroke="#D0011B" stroke-width="2" stroke-linecap="square" mask="url(#b)" transform="rotate(180 18.982 13.199)"/><path d="M12.964 9.397l9.5 8.5" stroke="#FFF" stroke-width="2" stroke-linecap="square" mask="url(#b)" transform="rotate(180 17.482 13.699)"/><path fill="#FFF" mask="url(#b)" d="M0 6h22v4H0z"/><path fill="#FFF" mask="url(#b)" d="M9 0h4v16H9z"/><path fill="#CF0F0E" mask="url(#b)" d="M0 7h22v2H0z"/><path fill="#CF0F0E" mask="url(#b)" d="M10 0h2v16h-2z"/></g></svg>