<svg width="16" height="9" viewBox="0 0 16 9" xmlns="http://www.w3.org/2000/svg"><title>vk</title><path d="M8.485 8.522s.27-.03.409-.18c.127-.136.123-.393.123-.393s-.018-1.203.54-1.38c.551-.175 1.258 1.162 2.007 1.677.567.389.997.304.997.304l2.003-.028s1.048-.065.551-.889c-.04-.067-.29-.61-1.49-1.723-1.255-1.166-1.087-.978.426-2.994.921-1.228 1.29-1.978 1.175-2.3-.11-.305-.788-.224-.788-.224l-2.255.014s-.168-.023-.291.051c-.122.073-.2.242-.2.242s-.357.95-.833 1.759c-1.004 1.705-1.406 1.795-1.57 1.69-.382-.248-.286-.992-.286-1.521 0-1.653.25-2.342-.488-2.52C8.27.047 8.089.008 7.462.002 6.657-.006 5.976.004 5.59.193 5.334.32 5.136.6 5.256.615c.15.02.487.091.666.335.231.314.223 1.02.223 1.02s.133 1.946-.31 2.187c-.304.166-.721-.172-1.616-1.72C3.759 1.646 3.413.77 3.413.77S3.347.605 3.228.518C3.083.41 2.88.378 2.88.378L.738.392S.416.4.298.54C.193.665.289.923.289.923s1.678 3.925 3.578 5.904c1.743 1.814 3.72 1.695 3.72 1.695h.898z" fill="#4C6C91" fill-rule="evenodd"/></svg>